%TF.GenerationSoftware,KiCad,Pcbnew,9.0.2*%
%TF.CreationDate,2025-06-24T14:03:34-04:00*%
%TF.ProjectId,allankeyboard,616c6c61-6e6b-4657-9962-6f6172642e6b,rev?*%
%TF.SameCoordinates,Original*%
%TF.FileFunction,Soldermask,Bot*%
%TF.FilePolarity,Negative*%
%FSLAX46Y46*%
G04 Gerber Fmt 4.6, Leading zero omitted, Abs format (unit mm)*
G04 Created by KiCad (PCBNEW 9.0.2) date 2025-06-24 14:03:34*
%MOMM*%
%LPD*%
G01*
G04 APERTURE LIST*
G04 Aperture macros list*
%AMRoundRect*
0 Rectangle with rounded corners*
0 $1 Rounding radius*
0 $2 $3 $4 $5 $6 $7 $8 $9 X,Y pos of 4 corners*
0 Add a 4 corners polygon primitive as box body*
4,1,4,$2,$3,$4,$5,$6,$7,$8,$9,$2,$3,0*
0 Add four circle primitives for the rounded corners*
1,1,$1+$1,$2,$3*
1,1,$1+$1,$4,$5*
1,1,$1+$1,$6,$7*
1,1,$1+$1,$8,$9*
0 Add four rect primitives between the rounded corners*
20,1,$1+$1,$2,$3,$4,$5,0*
20,1,$1+$1,$4,$5,$6,$7,0*
20,1,$1+$1,$6,$7,$8,$9,0*
20,1,$1+$1,$8,$9,$2,$3,0*%
G04 Aperture macros list end*
%ADD10C,1.700000*%
%ADD11C,4.000000*%
%ADD12C,2.200000*%
%ADD13C,3.048000*%
%ADD14C,3.987800*%
%ADD15C,3.050000*%
%ADD16RoundRect,0.250000X0.550000X-0.550000X0.550000X0.550000X-0.550000X0.550000X-0.550000X-0.550000X0*%
%ADD17C,1.600000*%
%ADD18C,1.752600*%
G04 APERTURE END LIST*
D10*
%TO.C,S73*%
X156998750Y-265843000D03*
D11*
X162078750Y-265843000D03*
D10*
X167158750Y-265843000D03*
D12*
X164618750Y-260763000D03*
X158268750Y-263303000D03*
%TD*%
D10*
%TO.C,S7*%
X254630000Y-165830500D03*
D11*
X259710000Y-165830500D03*
D10*
X264790000Y-165830500D03*
D12*
X262250000Y-160750500D03*
X255900000Y-163290500D03*
%TD*%
D10*
%TO.C,S80*%
X402267500Y-270605500D03*
D11*
X407347500Y-270605500D03*
D10*
X412427500Y-270605500D03*
D12*
X409887500Y-265525500D03*
X403537500Y-268065500D03*
%TD*%
D10*
%TO.C,S35*%
X235580000Y-208693000D03*
D11*
X240660000Y-208693000D03*
D10*
X245740000Y-208693000D03*
D12*
X243200000Y-203613000D03*
X236850000Y-206153000D03*
%TD*%
D10*
%TO.C,S37*%
X273680000Y-208693000D03*
D11*
X278760000Y-208693000D03*
D10*
X283840000Y-208693000D03*
D12*
X281300000Y-203613000D03*
X274950000Y-206153000D03*
%TD*%
D10*
%TO.C,S63*%
X230817500Y-246793000D03*
D11*
X235897500Y-246793000D03*
D10*
X240977500Y-246793000D03*
D12*
X238437500Y-241713000D03*
X232087500Y-244253000D03*
%TD*%
D13*
%TO.C,REF\u002A\u002A*%
X207330000Y-258840000D03*
D14*
X207330000Y-274050000D03*
D13*
X307330000Y-258840000D03*
D14*
X307330000Y-274050000D03*
%TD*%
D10*
%TO.C,S64*%
X249867500Y-246793000D03*
D11*
X254947500Y-246793000D03*
D10*
X260027500Y-246793000D03*
D12*
X257487500Y-241713000D03*
X251137500Y-244253000D03*
%TD*%
D10*
%TO.C,S31*%
X159380000Y-208693000D03*
D11*
X164460000Y-208693000D03*
D10*
X169540000Y-208693000D03*
D12*
X167000000Y-203613000D03*
X160650000Y-206153000D03*
%TD*%
D10*
%TO.C,S2*%
X154617500Y-165830500D03*
D11*
X159697500Y-165830500D03*
D10*
X164777500Y-165830500D03*
D12*
X162237500Y-160750500D03*
X155887500Y-163290500D03*
%TD*%
D10*
%TO.C,S56*%
X354642500Y-227743000D03*
D11*
X359722500Y-227743000D03*
D10*
X364802500Y-227743000D03*
D12*
X362262500Y-222663000D03*
X355912500Y-225203000D03*
%TD*%
D10*
%TO.C,S34*%
X216530000Y-208693000D03*
D11*
X221610000Y-208693000D03*
D10*
X226690000Y-208693000D03*
D12*
X224150000Y-203613000D03*
X217800000Y-206153000D03*
%TD*%
D11*
%TO.C,S30*%
X140647500Y-208693000D03*
D12*
X143187500Y-203613000D03*
X136837500Y-206153000D03*
%TD*%
D10*
%TO.C,S65*%
X268917500Y-246793000D03*
D11*
X273997500Y-246793000D03*
D10*
X279077500Y-246793000D03*
D12*
X276537500Y-241713000D03*
X270187500Y-244253000D03*
%TD*%
D10*
%TO.C,S23*%
X283205000Y-189643000D03*
D11*
X288285000Y-189643000D03*
D10*
X293365000Y-189643000D03*
D12*
X290825000Y-184563000D03*
X284475000Y-187103000D03*
%TD*%
D10*
%TO.C,S62*%
X211767500Y-246793000D03*
D11*
X216847500Y-246793000D03*
D10*
X221927500Y-246793000D03*
D12*
X219387500Y-241713000D03*
X213037500Y-244253000D03*
%TD*%
D10*
%TO.C,S50*%
X240342500Y-227743000D03*
D11*
X245422500Y-227743000D03*
D10*
X250502500Y-227743000D03*
D12*
X247962500Y-222663000D03*
X241612500Y-225203000D03*
%TD*%
D10*
%TO.C,S52*%
X278442500Y-227743000D03*
D11*
X283522500Y-227743000D03*
D10*
X288602500Y-227743000D03*
D12*
X286062500Y-222663000D03*
X279712500Y-225203000D03*
%TD*%
D10*
%TO.C,S71*%
X402267500Y-251555500D03*
D11*
X407347500Y-251555500D03*
D10*
X412427500Y-251555500D03*
D12*
X409887500Y-246475500D03*
X403537500Y-249015500D03*
%TD*%
D10*
%TO.C,S69*%
X345117500Y-246793000D03*
D11*
X350197500Y-246793000D03*
D10*
X355277500Y-246793000D03*
D12*
X352737500Y-241713000D03*
X346387500Y-244253000D03*
%TD*%
D15*
%TO.C,S57*%
X378778750Y-220743000D03*
D11*
X378778750Y-235983000D03*
D10*
X385598750Y-227743000D03*
D11*
X390678750Y-227743000D03*
D10*
X395758750Y-227743000D03*
D15*
X402578750Y-220743000D03*
D11*
X402578750Y-235983000D03*
D12*
X393218750Y-222663000D03*
X386868750Y-225203000D03*
%TD*%
D10*
%TO.C,S44*%
X421317500Y-208693000D03*
D11*
X426397500Y-208693000D03*
D10*
X431477500Y-208693000D03*
D12*
X428937500Y-203613000D03*
X422587500Y-206153000D03*
%TD*%
D10*
%TO.C,S55*%
X335592500Y-227743000D03*
D11*
X340672500Y-227743000D03*
D10*
X345752500Y-227743000D03*
D12*
X343212500Y-222663000D03*
X336862500Y-225203000D03*
%TD*%
D10*
%TO.C,S40*%
X330830000Y-208693000D03*
D11*
X335910000Y-208693000D03*
D10*
X340990000Y-208693000D03*
D12*
X338450000Y-203613000D03*
X332100000Y-206153000D03*
%TD*%
D10*
%TO.C,S12*%
X354642500Y-165830500D03*
D11*
X359722500Y-165830500D03*
D10*
X364802500Y-165830500D03*
D12*
X362262500Y-160750500D03*
X355912500Y-163290500D03*
%TD*%
D10*
%TO.C,S9*%
X292730000Y-165830500D03*
D11*
X297810000Y-165830500D03*
D10*
X302890000Y-165830500D03*
D12*
X300350000Y-160750500D03*
X294000000Y-163290500D03*
%TD*%
D10*
%TO.C,S45*%
X137945000Y-227710000D03*
D11*
X143025000Y-227710000D03*
D10*
X148105000Y-227710000D03*
D12*
X145565000Y-222630000D03*
X139215000Y-225170000D03*
%TD*%
D10*
%TO.C,S17*%
X168905000Y-189643000D03*
D11*
X173985000Y-189643000D03*
D10*
X179065000Y-189643000D03*
D12*
X176525000Y-184563000D03*
X170175000Y-187103000D03*
%TD*%
D10*
%TO.C,S79*%
X383217500Y-270605500D03*
D11*
X388297500Y-270605500D03*
D10*
X393377500Y-270605500D03*
D12*
X390837500Y-265525500D03*
X384487500Y-268065500D03*
%TD*%
D10*
%TO.C,S54*%
X316542500Y-227743000D03*
D11*
X321622500Y-227743000D03*
D10*
X326702500Y-227743000D03*
D12*
X324162500Y-222663000D03*
X317812500Y-225203000D03*
%TD*%
D10*
%TO.C,S81*%
X421317500Y-270605500D03*
D11*
X426397500Y-270605500D03*
D10*
X431477500Y-270605500D03*
D12*
X428937500Y-265525500D03*
X422587500Y-268065500D03*
%TD*%
D10*
%TO.C,S26*%
X340355000Y-189643000D03*
D11*
X345435000Y-189643000D03*
D10*
X350515000Y-189643000D03*
D12*
X347975000Y-184563000D03*
X341625000Y-187103000D03*
%TD*%
D10*
%TO.C,S74*%
X180811250Y-265843000D03*
D11*
X185891250Y-265843000D03*
D10*
X190971250Y-265843000D03*
D12*
X188431250Y-260763000D03*
X182081250Y-263303000D03*
%TD*%
D10*
%TO.C,S3*%
X173667500Y-165830500D03*
D11*
X178747500Y-165830500D03*
D10*
X183827500Y-165830500D03*
D12*
X181287500Y-160750500D03*
X174937500Y-163290500D03*
%TD*%
D10*
%TO.C,S22*%
X264155000Y-189643000D03*
D11*
X269235000Y-189643000D03*
D10*
X274315000Y-189643000D03*
D12*
X271775000Y-184563000D03*
X265425000Y-187103000D03*
%TD*%
D10*
%TO.C,S33*%
X197480000Y-208693000D03*
D11*
X202560000Y-208693000D03*
D10*
X207640000Y-208693000D03*
D12*
X205100000Y-203613000D03*
X198750000Y-206153000D03*
%TD*%
D10*
%TO.C,S10*%
X316542500Y-165830500D03*
D11*
X321622500Y-165830500D03*
D10*
X326702500Y-165830500D03*
D12*
X324162500Y-160750500D03*
X317812500Y-163290500D03*
%TD*%
D10*
%TO.C,S24*%
X302255000Y-189643000D03*
D11*
X307335000Y-189643000D03*
D10*
X312415000Y-189643000D03*
D12*
X309875000Y-184563000D03*
X303525000Y-187103000D03*
%TD*%
D10*
%TO.C,S8*%
X273680000Y-165830500D03*
D11*
X278760000Y-165830500D03*
D10*
X283840000Y-165830500D03*
D12*
X281300000Y-160750500D03*
X274950000Y-163290500D03*
%TD*%
D10*
%TO.C,S41*%
X349880000Y-208693000D03*
D11*
X354960000Y-208693000D03*
D10*
X360040000Y-208693000D03*
D12*
X357500000Y-203613000D03*
X351150000Y-206153000D03*
%TD*%
D10*
%TO.C,S77*%
X340355000Y-265843000D03*
D11*
X345435000Y-265843000D03*
D10*
X350515000Y-265843000D03*
D12*
X347975000Y-260763000D03*
X341625000Y-263303000D03*
%TD*%
D10*
%TO.C,S67*%
X307017500Y-246793000D03*
D11*
X312097500Y-246793000D03*
D10*
X317177500Y-246793000D03*
D12*
X314637500Y-241713000D03*
X308287500Y-244253000D03*
%TD*%
D10*
%TO.C,S21*%
X245105000Y-189643000D03*
D11*
X250185000Y-189643000D03*
D10*
X255265000Y-189643000D03*
D12*
X252725000Y-184563000D03*
X246375000Y-187103000D03*
%TD*%
D10*
%TO.C,S15*%
X130805000Y-189643000D03*
D11*
X135885000Y-189643000D03*
D10*
X140965000Y-189643000D03*
D12*
X138425000Y-184563000D03*
X132075000Y-187103000D03*
%TD*%
D10*
%TO.C,S38*%
X292730000Y-208693000D03*
D11*
X297810000Y-208693000D03*
D10*
X302890000Y-208693000D03*
D12*
X300350000Y-203613000D03*
X294000000Y-206153000D03*
%TD*%
D10*
%TO.C,S6*%
X235580000Y-165830500D03*
D11*
X240660000Y-165830500D03*
D10*
X245740000Y-165830500D03*
D12*
X243200000Y-160750500D03*
X236850000Y-163290500D03*
%TD*%
D10*
%TO.C,S20*%
X226055000Y-189643000D03*
D11*
X231135000Y-189643000D03*
D10*
X236215000Y-189643000D03*
D12*
X233675000Y-184563000D03*
X227325000Y-187103000D03*
%TD*%
D10*
%TO.C,S19*%
X207005000Y-189643000D03*
D11*
X212085000Y-189643000D03*
D10*
X217165000Y-189643000D03*
D12*
X214625000Y-184563000D03*
X208275000Y-187103000D03*
%TD*%
D10*
%TO.C,S18*%
X187955000Y-189643000D03*
D11*
X193035000Y-189643000D03*
D10*
X198115000Y-189643000D03*
D12*
X195575000Y-184563000D03*
X189225000Y-187103000D03*
%TD*%
D10*
%TO.C,S39*%
X311780000Y-208693000D03*
D11*
X316860000Y-208693000D03*
D10*
X321940000Y-208693000D03*
D12*
X319400000Y-203613000D03*
X313050000Y-206153000D03*
%TD*%
D10*
%TO.C,S13*%
X373692500Y-165830500D03*
D11*
X378772500Y-165830500D03*
D10*
X383852500Y-165830500D03*
D12*
X381312500Y-160750500D03*
X374962500Y-163290500D03*
%TD*%
D10*
%TO.C,S51*%
X259392500Y-227743000D03*
D11*
X264472500Y-227743000D03*
D10*
X269552500Y-227743000D03*
D12*
X267012500Y-222663000D03*
X260662500Y-225203000D03*
%TD*%
D15*
%TO.C,S75*%
X207328750Y-258843000D03*
D11*
X207328750Y-274083000D03*
D10*
X252248750Y-265843000D03*
D11*
X257328750Y-265843000D03*
D10*
X262408750Y-265843000D03*
D15*
X307328750Y-258843000D03*
D11*
X307328750Y-274083000D03*
D12*
X259868750Y-260763000D03*
X253518750Y-263303000D03*
%TD*%
D15*
%TO.C,S28*%
X381160000Y-182643000D03*
D11*
X381160000Y-197883000D03*
D10*
X387980000Y-189643000D03*
D11*
X393060000Y-189643000D03*
D10*
X398140000Y-189643000D03*
D15*
X404960000Y-182643000D03*
D11*
X404960000Y-197883000D03*
D12*
X395600000Y-184563000D03*
X389250000Y-187103000D03*
%TD*%
D10*
%TO.C,S16*%
X149855000Y-189643000D03*
D11*
X154935000Y-189643000D03*
D10*
X160015000Y-189643000D03*
D12*
X157475000Y-184563000D03*
X151125000Y-187103000D03*
%TD*%
D10*
%TO.C,S48*%
X202242500Y-227743000D03*
D11*
X207322500Y-227743000D03*
D10*
X212402500Y-227743000D03*
D12*
X209862500Y-222663000D03*
X203512500Y-225203000D03*
%TD*%
D10*
%TO.C,S72*%
X133186250Y-265843000D03*
D11*
X138266250Y-265843000D03*
D10*
X143346250Y-265843000D03*
D12*
X140806250Y-260763000D03*
X134456250Y-263303000D03*
%TD*%
D10*
%TO.C,S76*%
X321305000Y-265843000D03*
D11*
X326385000Y-265843000D03*
D10*
X331465000Y-265843000D03*
D12*
X328925000Y-260763000D03*
X322575000Y-263303000D03*
%TD*%
D10*
%TO.C,S11*%
X335592500Y-165830500D03*
D11*
X340672500Y-165830500D03*
D10*
X345752500Y-165830500D03*
D12*
X343212500Y-160750500D03*
X336862500Y-163290500D03*
%TD*%
D10*
%TO.C,S68*%
X326067500Y-246793000D03*
D11*
X331147500Y-246793000D03*
D10*
X336227500Y-246793000D03*
D12*
X333687500Y-241713000D03*
X327337500Y-244253000D03*
%TD*%
D10*
%TO.C,S70*%
X371311250Y-246793000D03*
D11*
X376391250Y-246793000D03*
D10*
X381471250Y-246793000D03*
D12*
X378931250Y-241713000D03*
X372581250Y-244253000D03*
%TD*%
D10*
%TO.C,S47*%
X183192500Y-227743000D03*
D11*
X188272500Y-227743000D03*
D10*
X193352500Y-227743000D03*
D12*
X190812500Y-222663000D03*
X184462500Y-225203000D03*
%TD*%
D10*
%TO.C,S14*%
X397505000Y-165830500D03*
D11*
X402585000Y-165830500D03*
D10*
X407665000Y-165830500D03*
D12*
X405125000Y-160750500D03*
X398775000Y-163290500D03*
%TD*%
D10*
%TO.C,S53*%
X297492500Y-227743000D03*
D11*
X302572500Y-227743000D03*
D10*
X307652500Y-227743000D03*
D12*
X305112500Y-222663000D03*
X298762500Y-225203000D03*
%TD*%
D10*
%TO.C,S4*%
X192717500Y-165830500D03*
D11*
X197797500Y-165830500D03*
D10*
X202877500Y-165830500D03*
D12*
X200337500Y-160750500D03*
X193987500Y-163290500D03*
%TD*%
D10*
%TO.C,S61*%
X192717500Y-246793000D03*
D11*
X197797500Y-246793000D03*
D10*
X202877500Y-246793000D03*
D12*
X200337500Y-241713000D03*
X193987500Y-244253000D03*
%TD*%
D10*
%TO.C,S36*%
X254630000Y-208693000D03*
D11*
X259710000Y-208693000D03*
D10*
X264790000Y-208693000D03*
D12*
X262250000Y-203613000D03*
X255900000Y-206153000D03*
%TD*%
D10*
%TO.C,S66*%
X287967500Y-246793000D03*
D11*
X293047500Y-246793000D03*
D10*
X298127500Y-246793000D03*
D12*
X295587500Y-241713000D03*
X289237500Y-244253000D03*
%TD*%
D10*
%TO.C,S42*%
X368930000Y-208693000D03*
D11*
X374010000Y-208693000D03*
D10*
X379090000Y-208693000D03*
D12*
X376550000Y-203613000D03*
X370200000Y-206153000D03*
%TD*%
D10*
%TO.C,S43*%
X392742500Y-208693000D03*
D11*
X397822500Y-208693000D03*
D10*
X402902500Y-208693000D03*
D12*
X400362500Y-203613000D03*
X394012500Y-206153000D03*
%TD*%
D10*
%TO.C,S1*%
X130805000Y-165640000D03*
D11*
X135885000Y-165640000D03*
D10*
X140965000Y-165640000D03*
D12*
X138425000Y-160560000D03*
X132075000Y-163100000D03*
%TD*%
D13*
%TO.C,REF\u002A\u002A*%
X135853250Y-239810550D03*
D14*
X135853250Y-255020550D03*
D13*
X159729250Y-239810550D03*
D14*
X159729250Y-255020550D03*
%TD*%
D10*
%TO.C,S25*%
X321305000Y-189643000D03*
D11*
X326385000Y-189643000D03*
D10*
X331465000Y-189643000D03*
D12*
X328925000Y-184563000D03*
X322575000Y-187103000D03*
%TD*%
D15*
%TO.C,S59*%
X135891250Y-239793000D03*
D11*
X135891250Y-255033000D03*
D10*
X142711250Y-246793000D03*
D11*
X147791250Y-246793000D03*
D10*
X152871250Y-246793000D03*
D15*
X159691250Y-239793000D03*
D11*
X159691250Y-255033000D03*
D12*
X150331250Y-241713000D03*
X143981250Y-244253000D03*
%TD*%
D10*
%TO.C,S5*%
X211767500Y-165830500D03*
D11*
X216847500Y-165830500D03*
D10*
X221927500Y-165830500D03*
D12*
X219387500Y-160750500D03*
X213037500Y-163290500D03*
%TD*%
D10*
%TO.C,S60*%
X173667500Y-246793000D03*
D11*
X178747500Y-246793000D03*
D10*
X183827500Y-246793000D03*
D12*
X181287500Y-241713000D03*
X174937500Y-244253000D03*
%TD*%
D10*
%TO.C,S27*%
X359405000Y-189643000D03*
D11*
X364485000Y-189643000D03*
D10*
X369565000Y-189643000D03*
D12*
X367025000Y-184563000D03*
X360675000Y-187103000D03*
%TD*%
D10*
%TO.C,S78*%
X359405000Y-265843000D03*
D11*
X364485000Y-265843000D03*
D10*
X369565000Y-265843000D03*
D12*
X367025000Y-260763000D03*
X360675000Y-263303000D03*
%TD*%
D10*
%TO.C,S58*%
X421317500Y-227743000D03*
D11*
X426397500Y-227743000D03*
D10*
X431477500Y-227743000D03*
D12*
X428937500Y-222663000D03*
X422587500Y-225203000D03*
%TD*%
D10*
%TO.C,S46*%
X164142500Y-227743000D03*
D11*
X169222500Y-227743000D03*
D10*
X174302500Y-227743000D03*
D12*
X171762500Y-222663000D03*
X165412500Y-225203000D03*
%TD*%
D10*
%TO.C,S32*%
X178430000Y-208693000D03*
D11*
X183510000Y-208693000D03*
D10*
X188590000Y-208693000D03*
D12*
X186050000Y-203613000D03*
X179700000Y-206153000D03*
%TD*%
D10*
%TO.C,S49*%
X221292500Y-227743000D03*
D11*
X226372500Y-227743000D03*
D10*
X231452500Y-227743000D03*
D12*
X228912500Y-222663000D03*
X222562500Y-225203000D03*
%TD*%
D13*
%TO.C,REF\u002A\u002A*%
X378704000Y-220730000D03*
D14*
X378704000Y-235940000D03*
D13*
X402580000Y-220730000D03*
D14*
X402580000Y-235940000D03*
%TD*%
D16*
%TO.C,D65*%
X283677400Y-253902400D03*
D17*
X283677400Y-246282400D03*
%TD*%
D16*
%TO.C,D30*%
X155092600Y-215803200D03*
D17*
X155092600Y-208183200D03*
%TD*%
D16*
%TO.C,D72*%
X150330200Y-272952000D03*
D17*
X150330200Y-265332000D03*
%TD*%
D16*
%TO.C,D81*%
X426330000Y-255620000D03*
D17*
X426330000Y-248000000D03*
%TD*%
D16*
%TO.C,D55*%
X350351000Y-234852800D03*
D17*
X350351000Y-227232800D03*
%TD*%
D16*
%TO.C,D66*%
X302727000Y-253902400D03*
D17*
X302727000Y-246282400D03*
%TD*%
D16*
%TO.C,D14*%
X412262200Y-174132200D03*
D17*
X412262200Y-166512200D03*
%TD*%
D16*
%TO.C,D12*%
X369400600Y-174132200D03*
D17*
X369400600Y-166512200D03*
%TD*%
D16*
%TO.C,D25*%
X336063800Y-197944200D03*
D17*
X336063800Y-190324200D03*
%TD*%
D16*
%TO.C,D70*%
X393212600Y-253902400D03*
D17*
X393212600Y-246282400D03*
%TD*%
D16*
%TO.C,D10*%
X331301400Y-174132200D03*
D17*
X331301400Y-166512200D03*
%TD*%
D16*
%TO.C,D28*%
X412262200Y-197944200D03*
D17*
X412262200Y-190324200D03*
%TD*%
D16*
%TO.C,D7*%
X269393750Y-172942500D03*
D17*
X269393750Y-165322500D03*
%TD*%
D16*
%TO.C,D80*%
X417024600Y-278225500D03*
D17*
X417024600Y-270605500D03*
%TD*%
D16*
%TO.C,D50*%
X255103000Y-234852800D03*
D17*
X255103000Y-227232800D03*
%TD*%
D16*
%TO.C,D32*%
X193191800Y-215803200D03*
D17*
X193191800Y-208183200D03*
%TD*%
D16*
%TO.C,D13*%
X390831400Y-174132200D03*
D17*
X390831400Y-166512200D03*
%TD*%
D16*
%TO.C,D31*%
X174142200Y-216993800D03*
D17*
X174142200Y-209373800D03*
%TD*%
D16*
%TO.C,D69*%
X361066400Y-252711800D03*
D17*
X361066400Y-245091800D03*
%TD*%
D16*
%TO.C,D24*%
X317014200Y-197944200D03*
D17*
X317014200Y-190324200D03*
%TD*%
D16*
%TO.C,D23*%
X297810000Y-197944200D03*
D17*
X297810000Y-190324200D03*
%TD*%
D16*
%TO.C,D34*%
X231291000Y-215803200D03*
D17*
X231291000Y-208183200D03*
%TD*%
D16*
%TO.C,D8*%
X288325000Y-173770000D03*
D17*
X288325000Y-166150000D03*
%TD*%
D16*
%TO.C,D48*%
X217003800Y-234852800D03*
D17*
X217003800Y-227232800D03*
%TD*%
D16*
%TO.C,D37*%
X289630400Y-215803200D03*
D17*
X289630400Y-208183200D03*
%TD*%
D16*
%TO.C,D74*%
X197954200Y-272713800D03*
D17*
X197954200Y-265093800D03*
%TD*%
D16*
%TO.C,D33*%
X212241400Y-215803200D03*
D17*
X212241400Y-208183200D03*
%TD*%
D16*
%TO.C,D49*%
X236053400Y-234852800D03*
D17*
X236053400Y-227232800D03*
%TD*%
D16*
%TO.C,D20*%
X240815800Y-197944200D03*
D17*
X240815800Y-190324200D03*
%TD*%
D16*
%TO.C,D78*%
X374163000Y-272952000D03*
D17*
X374163000Y-265332000D03*
%TD*%
D16*
%TO.C,D75*%
X317014200Y-273463000D03*
D17*
X317014200Y-265843000D03*
%TD*%
D16*
%TO.C,D4*%
X207481250Y-173895000D03*
D17*
X207481250Y-166275000D03*
%TD*%
D16*
%TO.C,D77*%
X355113400Y-273463000D03*
D17*
X355113400Y-265843000D03*
%TD*%
D16*
%TO.C,D9*%
X310325000Y-173580000D03*
D17*
X310325000Y-165960000D03*
%TD*%
D16*
%TO.C,D1*%
X147950000Y-173895000D03*
D17*
X147950000Y-166275000D03*
%TD*%
D16*
%TO.C,D35*%
X250340600Y-215803200D03*
D17*
X250340600Y-208183200D03*
%TD*%
D16*
%TO.C,D56*%
X369400600Y-234852800D03*
D17*
X369400600Y-227232800D03*
%TD*%
D16*
%TO.C,D26*%
X355113400Y-197944200D03*
D17*
X355113400Y-190324200D03*
%TD*%
D16*
%TO.C,D11*%
X350351000Y-174132200D03*
D17*
X350351000Y-166512200D03*
%TD*%
D16*
%TO.C,D17*%
X183667000Y-197944200D03*
D17*
X183667000Y-190324200D03*
%TD*%
D16*
%TO.C,D2*%
X169381250Y-173895000D03*
D17*
X169381250Y-166275000D03*
%TD*%
D16*
%TO.C,D60*%
X188429400Y-255093000D03*
D17*
X188429400Y-247473000D03*
%TD*%
D16*
%TO.C,D15*%
X145567800Y-197944200D03*
D17*
X145567800Y-190324200D03*
%TD*%
D16*
%TO.C,D79*%
X397975000Y-278225500D03*
D17*
X397975000Y-270605500D03*
%TD*%
D16*
%TO.C,D59*%
X169379800Y-253902400D03*
D17*
X169379800Y-246282400D03*
%TD*%
D16*
%TO.C,D42*%
X383687800Y-215803200D03*
D17*
X383687800Y-208183200D03*
%TD*%
D16*
%TO.C,D73*%
X174142200Y-272952000D03*
D17*
X174142200Y-265332000D03*
%TD*%
D16*
%TO.C,D47*%
X197797500Y-234852800D03*
D17*
X197797500Y-227232800D03*
%TD*%
D16*
%TO.C,D39*%
X326539000Y-215803200D03*
D17*
X326539000Y-208183200D03*
%TD*%
D16*
%TO.C,D64*%
X264627800Y-253902400D03*
D17*
X264627800Y-246282400D03*
%TD*%
D16*
%TO.C,D38*%
X307489400Y-215803200D03*
D17*
X307489400Y-208183200D03*
%TD*%
D16*
%TO.C,D53*%
X312251800Y-234852800D03*
D17*
X312251800Y-227232800D03*
%TD*%
D16*
%TO.C,D5*%
X228912500Y-173895000D03*
D17*
X228912500Y-166275000D03*
%TD*%
D16*
%TO.C,D52*%
X293202200Y-234852800D03*
D17*
X293202200Y-227232800D03*
%TD*%
D16*
%TO.C,D3*%
X188431250Y-173895000D03*
D17*
X188431250Y-166275000D03*
%TD*%
D16*
%TO.C,D19*%
X221766200Y-197467800D03*
D17*
X221766200Y-189847800D03*
%TD*%
D16*
%TO.C,D27*%
X374163000Y-196753600D03*
D17*
X374163000Y-189133600D03*
%TD*%
D16*
%TO.C,D36*%
X269390200Y-215803200D03*
D17*
X269390200Y-208183200D03*
%TD*%
D16*
%TO.C,D62*%
X226528600Y-253902400D03*
D17*
X226528600Y-246282400D03*
%TD*%
D16*
%TO.C,D76*%
X336063800Y-273463000D03*
D17*
X336063800Y-265843000D03*
%TD*%
D16*
%TO.C,D57*%
X412250000Y-239470000D03*
D17*
X412250000Y-231850000D03*
%TD*%
D16*
%TO.C,D16*%
X164617400Y-197944200D03*
D17*
X164617400Y-190324200D03*
%TD*%
D16*
%TO.C,D68*%
X340826200Y-253902400D03*
D17*
X340826200Y-246282400D03*
%TD*%
D16*
%TO.C,D6*%
X250343750Y-173895000D03*
D17*
X250343750Y-166275000D03*
%TD*%
D16*
%TO.C,D43*%
X412700000Y-215420000D03*
D17*
X412700000Y-207800000D03*
%TD*%
D16*
%TO.C,D46*%
X178825000Y-235330000D03*
D17*
X178825000Y-227710000D03*
%TD*%
D16*
%TO.C,D71*%
X417024600Y-257474200D03*
D17*
X417024600Y-249854200D03*
%TD*%
D16*
%TO.C,D54*%
X331301400Y-234852800D03*
D17*
X331301400Y-227232800D03*
%TD*%
D16*
%TO.C,D18*%
X202716600Y-197706000D03*
D17*
X202716600Y-190086000D03*
%TD*%
D16*
%TO.C,D58*%
X432350000Y-255310000D03*
D17*
X432350000Y-247690000D03*
%TD*%
D16*
%TO.C,D21*%
X259865400Y-197944200D03*
D17*
X259865400Y-190324200D03*
%TD*%
D16*
%TO.C,D51*%
X274152600Y-234852800D03*
D17*
X274152600Y-227232800D03*
%TD*%
D16*
%TO.C,D22*%
X278915000Y-197944200D03*
D17*
X278915000Y-190324200D03*
%TD*%
D16*
%TO.C,D67*%
X322967200Y-253902400D03*
D17*
X322967200Y-246282400D03*
%TD*%
D18*
%TO.C,U1*%
X432370000Y-160310000D03*
X432370000Y-162850000D03*
X432370000Y-165390000D03*
X432370000Y-167930000D03*
X432370000Y-170470000D03*
X432370000Y-173010000D03*
X432370000Y-175550000D03*
X432370000Y-178090000D03*
X432370000Y-180630000D03*
X432370000Y-183170000D03*
X432370000Y-185710000D03*
X432370000Y-188250000D03*
X417130000Y-188250000D03*
X417130000Y-185710000D03*
X417130000Y-183170000D03*
X417130000Y-180630000D03*
X417130000Y-178090000D03*
X417130000Y-175550000D03*
X417130000Y-173010000D03*
X417130000Y-170470000D03*
X417130000Y-167930000D03*
X417130000Y-165390000D03*
X417130000Y-162850000D03*
X417130000Y-160310000D03*
X429830000Y-183170000D03*
X427290000Y-183170000D03*
X424750000Y-183170000D03*
%TD*%
D16*
%TO.C,D40*%
X345588600Y-215803200D03*
D17*
X345588600Y-208183200D03*
%TD*%
D16*
%TO.C,D63*%
X245578200Y-253902400D03*
D17*
X245578200Y-246282400D03*
%TD*%
D16*
%TO.C,D41*%
X364638200Y-215803200D03*
D17*
X364638200Y-208183200D03*
%TD*%
D16*
%TO.C,D45*%
X159725000Y-235330000D03*
D17*
X159725000Y-227710000D03*
%TD*%
D16*
%TO.C,D44*%
X412450000Y-226570000D03*
D17*
X412450000Y-218950000D03*
%TD*%
D16*
%TO.C,D61*%
X207479000Y-253902400D03*
D17*
X207479000Y-246282400D03*
%TD*%
M02*
