%TF.GenerationSoftware,KiCad,Pcbnew,9.0.2*%
%TF.CreationDate,2025-06-24T14:03:34-04:00*%
%TF.ProjectId,allankeyboard,616c6c61-6e6b-4657-9962-6f6172642e6b,rev?*%
%TF.SameCoordinates,Original*%
%TF.FileFunction,Copper,L1,Top*%
%TF.FilePolarity,Positive*%
%FSLAX46Y46*%
G04 Gerber Fmt 4.6, Leading zero omitted, Abs format (unit mm)*
G04 Created by KiCad (PCBNEW 9.0.2) date 2025-06-24 14:03:34*
%MOMM*%
%LPD*%
G01*
G04 APERTURE LIST*
G04 Aperture macros list*
%AMRoundRect*
0 Rectangle with rounded corners*
0 $1 Rounding radius*
0 $2 $3 $4 $5 $6 $7 $8 $9 X,Y pos of 4 corners*
0 Add a 4 corners polygon primitive as box body*
4,1,4,$2,$3,$4,$5,$6,$7,$8,$9,$2,$3,0*
0 Add four circle primitives for the rounded corners*
1,1,$1+$1,$2,$3*
1,1,$1+$1,$4,$5*
1,1,$1+$1,$6,$7*
1,1,$1+$1,$8,$9*
0 Add four rect primitives between the rounded corners*
20,1,$1+$1,$2,$3,$4,$5,0*
20,1,$1+$1,$4,$5,$6,$7,0*
20,1,$1+$1,$6,$7,$8,$9,0*
20,1,$1+$1,$8,$9,$2,$3,0*%
G04 Aperture macros list end*
%TA.AperFunction,ComponentPad*%
%ADD10C,2.200000*%
%TD*%
%TA.AperFunction,ComponentPad*%
%ADD11RoundRect,0.250000X0.550000X-0.550000X0.550000X0.550000X-0.550000X0.550000X-0.550000X-0.550000X0*%
%TD*%
%TA.AperFunction,ComponentPad*%
%ADD12C,1.600000*%
%TD*%
%TA.AperFunction,ComponentPad*%
%ADD13C,1.752600*%
%TD*%
%TA.AperFunction,ViaPad*%
%ADD14C,0.600000*%
%TD*%
%TA.AperFunction,Conductor*%
%ADD15C,0.200000*%
%TD*%
G04 APERTURE END LIST*
D10*
%TO.P,S73,1,1*%
%TO.N,Row 5*%
X164618750Y-260763000D03*
%TO.P,S73,2,2*%
%TO.N,Net-(D60-K)*%
X158268750Y-263303000D03*
%TD*%
%TO.P,S7,1,1*%
%TO.N,Row 0*%
X262250000Y-160750500D03*
%TO.P,S7,2,2*%
%TO.N,Net-(D7-A)*%
X255900000Y-163290500D03*
%TD*%
%TO.P,S80,1,1*%
%TO.N,Row 6*%
X409887500Y-265525500D03*
%TO.P,S80,2,2*%
%TO.N,Net-(D27-K)*%
X403537500Y-268065500D03*
%TD*%
%TO.P,S35,1,1*%
%TO.N,Row 2*%
X243200000Y-203613000D03*
%TO.P,S35,2,2*%
%TO.N,Net-(D20-K)*%
X236850000Y-206153000D03*
%TD*%
%TO.P,S37,1,1*%
%TO.N,Row 2*%
X281300000Y-203613000D03*
%TO.P,S37,2,2*%
%TO.N,Net-(D22-K)*%
X274950000Y-206153000D03*
%TD*%
%TO.P,S63,1,1*%
%TO.N,Row 4*%
X238437500Y-241713000D03*
%TO.P,S63,2,2*%
%TO.N,Net-(D49-K)*%
X232087500Y-244253000D03*
%TD*%
%TO.P,S64,1,1*%
%TO.N,Row 4*%
X257487500Y-241713000D03*
%TO.P,S64,2,2*%
%TO.N,Net-(D50-K)*%
X251137500Y-244253000D03*
%TD*%
%TO.P,S31,1,1*%
%TO.N,Row 2*%
X167000000Y-203613000D03*
%TO.P,S31,2,2*%
%TO.N,Net-(D16-K)*%
X160650000Y-206153000D03*
%TD*%
%TO.P,S2,1,1*%
%TO.N,Row 0*%
X162237500Y-160750500D03*
%TO.P,S2,2,2*%
%TO.N,Net-(D2-A)*%
X155887500Y-163290500D03*
%TD*%
%TO.P,S56,1,1*%
%TO.N,Row 6*%
X362262500Y-222663000D03*
%TO.P,S56,2,2*%
%TO.N,Net-(D43-K)*%
X355912500Y-225203000D03*
%TD*%
%TO.P,S34,1,1*%
%TO.N,Row 2*%
X224150000Y-203613000D03*
%TO.P,S34,2,2*%
%TO.N,Net-(D19-K)*%
X217800000Y-206153000D03*
%TD*%
%TO.P,S30,1,1*%
%TO.N,Row 2*%
X143187500Y-203613000D03*
%TO.P,S30,2,2*%
%TO.N,Net-(D15-K)*%
X136837500Y-206153000D03*
%TD*%
%TO.P,S65,1,1*%
%TO.N,Row 4*%
X276537500Y-241713000D03*
%TO.P,S65,2,2*%
%TO.N,Net-(D51-K)*%
X270187500Y-244253000D03*
%TD*%
%TO.P,S23,1,1*%
%TO.N,Row 1*%
X290825000Y-184563000D03*
%TO.P,S23,2,2*%
%TO.N,Net-(D23-A)*%
X284475000Y-187103000D03*
%TD*%
%TO.P,S62,1,1*%
%TO.N,Row 4*%
X219387500Y-241713000D03*
%TO.P,S62,2,2*%
%TO.N,Net-(D48-K)*%
X213037500Y-244253000D03*
%TD*%
%TO.P,S50,1,1*%
%TO.N,Row 3*%
X247962500Y-222663000D03*
%TO.P,S50,2,2*%
%TO.N,Net-(D35-K)*%
X241612500Y-225203000D03*
%TD*%
%TO.P,S52,1,1*%
%TO.N,Row 3*%
X286062500Y-222663000D03*
%TO.P,S52,2,2*%
%TO.N,Net-(D37-K)*%
X279712500Y-225203000D03*
%TD*%
%TO.P,S71,1,1*%
%TO.N,Row 7*%
X409887500Y-246475500D03*
%TO.P,S71,2,2*%
%TO.N,Column 0*%
X403537500Y-249015500D03*
%TD*%
%TO.P,S69,1,1*%
%TO.N,Row 7*%
X352737500Y-241713000D03*
%TO.P,S69,2,2*%
%TO.N,Column 2*%
X346387500Y-244253000D03*
%TD*%
%TO.P,S57,1,1*%
%TO.N,Row 5*%
X393218750Y-222663000D03*
%TO.P,S57,2,2*%
%TO.N,Net-(D57-A)*%
X386868750Y-225203000D03*
%TD*%
%TO.P,S44,1,1*%
%TO.N,Row 5*%
X428937500Y-203613000D03*
%TO.P,S44,2,2*%
%TO.N,Net-(D44-A)*%
X422587500Y-206153000D03*
%TD*%
%TO.P,S55,1,1*%
%TO.N,Row 6*%
X343212500Y-222663000D03*
%TO.P,S55,2,2*%
%TO.N,Net-(D42-K)*%
X336862500Y-225203000D03*
%TD*%
%TO.P,S40,1,1*%
%TO.N,Row 7*%
X338450000Y-203613000D03*
%TO.P,S40,2,2*%
%TO.N,Column 4*%
X332100000Y-206153000D03*
%TD*%
%TO.P,S12,1,1*%
%TO.N,Row 7*%
X362262500Y-160750500D03*
%TO.P,S12,2,2*%
%TO.N,Column 9*%
X355912500Y-163290500D03*
%TD*%
%TO.P,S9,1,1*%
%TO.N,Row 0*%
X300350000Y-160750500D03*
%TO.P,S9,2,2*%
%TO.N,Net-(D9-A)*%
X294000000Y-163290500D03*
%TD*%
%TO.P,S45,1,1*%
%TO.N,Row 3*%
X145565000Y-222630000D03*
%TO.P,S45,2,2*%
%TO.N,Net-(D30-K)*%
X139215000Y-225170000D03*
%TD*%
%TO.P,S17,1,1*%
%TO.N,Row 1*%
X176525000Y-184563000D03*
%TO.P,S17,2,2*%
%TO.N,Net-(D17-A)*%
X170175000Y-187103000D03*
%TD*%
%TO.P,S79,1,1*%
%TO.N,Row 6*%
X390837500Y-265525500D03*
%TO.P,S79,2,2*%
%TO.N,Net-(D75-K)*%
X384487500Y-268065500D03*
%TD*%
%TO.P,S54,1,1*%
%TO.N,Row 3*%
X324162500Y-222663000D03*
%TO.P,S54,2,2*%
%TO.N,Net-(D39-K)*%
X317812500Y-225203000D03*
%TD*%
%TO.P,S81,1,1*%
%TO.N,Row 6*%
X428937500Y-265525500D03*
%TO.P,S81,2,2*%
%TO.N,Net-(D28-K)*%
X422587500Y-268065500D03*
%TD*%
%TO.P,S26,1,1*%
%TO.N,Row 7*%
X347975000Y-184563000D03*
%TO.P,S26,2,2*%
%TO.N,Column 7*%
X341625000Y-187103000D03*
%TD*%
%TO.P,S74,1,1*%
%TO.N,Row 5*%
X188431250Y-260763000D03*
%TO.P,S74,2,2*%
%TO.N,Net-(D61-K)*%
X182081250Y-263303000D03*
%TD*%
%TO.P,S3,1,1*%
%TO.N,Row 0*%
X181287500Y-160750500D03*
%TO.P,S3,2,2*%
%TO.N,Net-(D3-A)*%
X174937500Y-163290500D03*
%TD*%
%TO.P,S22,1,1*%
%TO.N,Row 1*%
X271775000Y-184563000D03*
%TO.P,S22,2,2*%
%TO.N,Net-(D22-A)*%
X265425000Y-187103000D03*
%TD*%
%TO.P,S33,1,1*%
%TO.N,Row 2*%
X205100000Y-203613000D03*
%TO.P,S33,2,2*%
%TO.N,Net-(D18-K)*%
X198750000Y-206153000D03*
%TD*%
%TO.P,S10,1,1*%
%TO.N,Row 0*%
X324162500Y-160750500D03*
%TO.P,S10,2,2*%
%TO.N,Net-(D10-A)*%
X317812500Y-163290500D03*
%TD*%
%TO.P,S24,1,1*%
%TO.N,Row 1*%
X309875000Y-184563000D03*
%TO.P,S24,2,2*%
%TO.N,Net-(D10-K)*%
X303525000Y-187103000D03*
%TD*%
%TO.P,S8,1,1*%
%TO.N,Row 0*%
X281300000Y-160750500D03*
%TO.P,S8,2,2*%
%TO.N,Net-(D8-A)*%
X274950000Y-163290500D03*
%TD*%
%TO.P,S41,1,1*%
%TO.N,Row 7*%
X357500000Y-203613000D03*
%TO.P,S41,2,2*%
%TO.N,Column 5*%
X351150000Y-206153000D03*
%TD*%
%TO.P,S77,1,1*%
%TO.N,Row 6*%
X347975000Y-260763000D03*
%TO.P,S77,2,2*%
%TO.N,Net-(D73-K)*%
X341625000Y-263303000D03*
%TD*%
%TO.P,S67,1,1*%
%TO.N,Row 4*%
X314637500Y-241713000D03*
%TO.P,S67,2,2*%
%TO.N,Net-(D53-K)*%
X308287500Y-244253000D03*
%TD*%
%TO.P,S21,1,1*%
%TO.N,Row 1*%
X252725000Y-184563000D03*
%TO.P,S21,2,2*%
%TO.N,Net-(D21-A)*%
X246375000Y-187103000D03*
%TD*%
%TO.P,S15,1,1*%
%TO.N,Row 1*%
X138425000Y-184563000D03*
%TO.P,S15,2,2*%
%TO.N,Net-(D1-K)*%
X132075000Y-187103000D03*
%TD*%
%TO.P,S38,1,1*%
%TO.N,Row 2*%
X300350000Y-203613000D03*
%TO.P,S38,2,2*%
%TO.N,Net-(D23-K)*%
X294000000Y-206153000D03*
%TD*%
%TO.P,S6,1,1*%
%TO.N,Row 0*%
X243200000Y-160750500D03*
%TO.P,S6,2,2*%
%TO.N,Net-(D6-A)*%
X236850000Y-163290500D03*
%TD*%
%TO.P,S20,1,1*%
%TO.N,Row 1*%
X233675000Y-184563000D03*
%TO.P,S20,2,2*%
%TO.N,Net-(D20-A)*%
X227325000Y-187103000D03*
%TD*%
%TO.P,S19,1,1*%
%TO.N,Row 1*%
X214625000Y-184563000D03*
%TO.P,S19,2,2*%
%TO.N,Net-(D19-A)*%
X208275000Y-187103000D03*
%TD*%
%TO.P,S18,1,1*%
%TO.N,Row 1*%
X195575000Y-184563000D03*
%TO.P,S18,2,2*%
%TO.N,Net-(D18-A)*%
X189225000Y-187103000D03*
%TD*%
%TO.P,S39,1,1*%
%TO.N,Row 2*%
X319400000Y-203613000D03*
%TO.P,S39,2,2*%
%TO.N,Net-(D24-K)*%
X313050000Y-206153000D03*
%TD*%
%TO.P,S13,1,1*%
%TO.N,Row 6*%
X381312500Y-160750500D03*
%TO.P,S13,2,2*%
%TO.N,Net-(D13-A)*%
X374962500Y-163290500D03*
%TD*%
%TO.P,S51,1,1*%
%TO.N,Row 3*%
X267012500Y-222663000D03*
%TO.P,S51,2,2*%
%TO.N,Net-(D36-K)*%
X260662500Y-225203000D03*
%TD*%
%TO.P,S75,1,1*%
%TO.N,Row 5*%
X259868750Y-260763000D03*
%TO.P,S75,2,2*%
%TO.N,Net-(D62-K)*%
X253518750Y-263303000D03*
%TD*%
%TO.P,S28,1,1*%
%TO.N,Row 5*%
X395600000Y-184563000D03*
%TO.P,S28,2,2*%
%TO.N,Net-(D28-A)*%
X389250000Y-187103000D03*
%TD*%
%TO.P,S16,1,1*%
%TO.N,Row 1*%
X157475000Y-184563000D03*
%TO.P,S16,2,2*%
%TO.N,Net-(D16-A)*%
X151125000Y-187103000D03*
%TD*%
%TO.P,S48,1,1*%
%TO.N,Row 3*%
X209862500Y-222663000D03*
%TO.P,S48,2,2*%
%TO.N,Net-(D33-K)*%
X203512500Y-225203000D03*
%TD*%
%TO.P,S72,1,1*%
%TO.N,Row 5*%
X140806250Y-260763000D03*
%TO.P,S72,2,2*%
%TO.N,Net-(D59-K)*%
X134456250Y-263303000D03*
%TD*%
%TO.P,S76,1,1*%
%TO.N,Row 6*%
X328925000Y-260763000D03*
%TO.P,S76,2,2*%
%TO.N,Net-(D72-K)*%
X322575000Y-263303000D03*
%TD*%
%TO.P,S11,1,1*%
%TO.N,Row 7*%
X343212500Y-160750500D03*
%TO.P,S11,2,2*%
%TO.N,Column 8*%
X336862500Y-163290500D03*
%TD*%
%TO.P,S68,1,1*%
%TO.N,Row 4*%
X333687500Y-241713000D03*
%TO.P,S68,2,2*%
%TO.N,Net-(D54-K)*%
X327337500Y-244253000D03*
%TD*%
%TO.P,S70,1,1*%
%TO.N,Row 7*%
X378931250Y-241713000D03*
%TO.P,S70,2,2*%
%TO.N,Column 3*%
X372581250Y-244253000D03*
%TD*%
%TO.P,S47,1,1*%
%TO.N,Row 3*%
X190812500Y-222663000D03*
%TO.P,S47,2,2*%
%TO.N,Net-(D32-K)*%
X184462500Y-225203000D03*
%TD*%
%TO.P,S14,1,1*%
%TO.N,Row 6*%
X405125000Y-160750500D03*
%TO.P,S14,2,2*%
%TO.N,Net-(D14-A)*%
X398775000Y-163290500D03*
%TD*%
%TO.P,S53,1,1*%
%TO.N,Row 3*%
X305112500Y-222663000D03*
%TO.P,S53,2,2*%
%TO.N,Net-(D38-K)*%
X298762500Y-225203000D03*
%TD*%
%TO.P,S4,1,1*%
%TO.N,Row 0*%
X200337500Y-160750500D03*
%TO.P,S4,2,2*%
%TO.N,Net-(D4-A)*%
X193987500Y-163290500D03*
%TD*%
%TO.P,S61,1,1*%
%TO.N,Row 4*%
X200337500Y-241713000D03*
%TO.P,S61,2,2*%
%TO.N,Net-(D47-K)*%
X193987500Y-244253000D03*
%TD*%
%TO.P,S36,1,1*%
%TO.N,Row 2*%
X262250000Y-203613000D03*
%TO.P,S36,2,2*%
%TO.N,Net-(D21-K)*%
X255900000Y-206153000D03*
%TD*%
%TO.P,S66,1,1*%
%TO.N,Row 4*%
X295587500Y-241713000D03*
%TO.P,S66,2,2*%
%TO.N,Net-(D52-K)*%
X289237500Y-244253000D03*
%TD*%
%TO.P,S42,1,1*%
%TO.N,Row 5*%
X376550000Y-203613000D03*
%TO.P,S42,2,2*%
%TO.N,Net-(D42-A)*%
X370200000Y-206153000D03*
%TD*%
%TO.P,S43,1,1*%
%TO.N,Row 5*%
X400362500Y-203613000D03*
%TO.P,S43,2,2*%
%TO.N,Net-(D43-A)*%
X394012500Y-206153000D03*
%TD*%
%TO.P,S1,1,1*%
%TO.N,Row 0*%
X138425000Y-160560000D03*
%TO.P,S1,2,2*%
%TO.N,Net-(D1-A)*%
X132075000Y-163100000D03*
%TD*%
%TO.P,S25,1,1*%
%TO.N,Row 7*%
X328925000Y-184563000D03*
%TO.P,S25,2,2*%
%TO.N,Column 6*%
X322575000Y-187103000D03*
%TD*%
%TO.P,S59,1,1*%
%TO.N,Row 4*%
X150331250Y-241713000D03*
%TO.P,S59,2,2*%
%TO.N,Net-(D45-K)*%
X143981250Y-244253000D03*
%TD*%
%TO.P,S5,1,1*%
%TO.N,Row 0*%
X219387500Y-160750500D03*
%TO.P,S5,2,2*%
%TO.N,Net-(D5-A)*%
X213037500Y-163290500D03*
%TD*%
%TO.P,S60,1,1*%
%TO.N,Row 4*%
X181287500Y-241713000D03*
%TO.P,S60,2,2*%
%TO.N,Net-(D46-K)*%
X174937500Y-244253000D03*
%TD*%
%TO.P,S27,1,1*%
%TO.N,Row 5*%
X367025000Y-184563000D03*
%TO.P,S27,2,2*%
%TO.N,Net-(D27-A)*%
X360675000Y-187103000D03*
%TD*%
%TO.P,S78,1,1*%
%TO.N,Row 6*%
X367025000Y-260763000D03*
%TO.P,S78,2,2*%
%TO.N,Net-(D74-K)*%
X360675000Y-263303000D03*
%TD*%
%TO.P,S58,1,1*%
%TO.N,Row 7*%
X428937500Y-222663000D03*
%TO.P,S58,2,2*%
%TO.N,Column 1*%
X422587500Y-225203000D03*
%TD*%
%TO.P,S46,1,1*%
%TO.N,Row 3*%
X171762500Y-222663000D03*
%TO.P,S46,2,2*%
%TO.N,Net-(D31-K)*%
X165412500Y-225203000D03*
%TD*%
%TO.P,S32,1,1*%
%TO.N,Row 2*%
X186050000Y-203613000D03*
%TO.P,S32,2,2*%
%TO.N,Net-(D17-K)*%
X179700000Y-206153000D03*
%TD*%
%TO.P,S49,1,1*%
%TO.N,Row 3*%
X228912500Y-222663000D03*
%TO.P,S49,2,2*%
%TO.N,Net-(D34-K)*%
X222562500Y-225203000D03*
%TD*%
D11*
%TO.P,D65,1,K*%
%TO.N,Net-(D57-A)*%
X283677400Y-253902400D03*
D12*
%TO.P,D65,2,A*%
%TO.N,Net-(D51-K)*%
X283677400Y-246282400D03*
%TD*%
D11*
%TO.P,D30,1,K*%
%TO.N,Net-(D30-K)*%
X155092600Y-215803200D03*
D12*
%TO.P,D30,2,A*%
%TO.N,Net-(D15-K)*%
X155092600Y-208183200D03*
%TD*%
D11*
%TO.P,D72,1,K*%
%TO.N,Net-(D72-K)*%
X150330200Y-272952000D03*
D12*
%TO.P,D72,2,A*%
%TO.N,Net-(D59-K)*%
X150330200Y-265332000D03*
%TD*%
D11*
%TO.P,D81,1,K*%
%TO.N,Column 5*%
X426330000Y-255620000D03*
D12*
%TO.P,D81,2,A*%
%TO.N,Net-(D28-K)*%
X426330000Y-248000000D03*
%TD*%
D11*
%TO.P,D55,1,K*%
%TO.N,Column 8*%
X350351000Y-234852800D03*
D12*
%TO.P,D55,2,A*%
%TO.N,Net-(D42-K)*%
X350351000Y-227232800D03*
%TD*%
D11*
%TO.P,D66,1,K*%
%TO.N,Net-(D44-A)*%
X302727000Y-253902400D03*
D12*
%TO.P,D66,2,A*%
%TO.N,Net-(D52-K)*%
X302727000Y-246282400D03*
%TD*%
D11*
%TO.P,D14,1,K*%
%TO.N,Column 7*%
X412262200Y-174132200D03*
D12*
%TO.P,D14,2,A*%
%TO.N,Net-(D14-A)*%
X412262200Y-166512200D03*
%TD*%
D11*
%TO.P,D12,1,K*%
%TO.N,unconnected-(D12-K-Pad1)*%
X369400600Y-174132200D03*
D12*
%TO.P,D12,2,A*%
%TO.N,Column 9*%
X369400600Y-166512200D03*
%TD*%
D11*
%TO.P,D25,1,K*%
%TO.N,Column 6*%
X336063800Y-197944200D03*
D12*
%TO.P,D25,2,A*%
X336063800Y-190324200D03*
%TD*%
D11*
%TO.P,D70,1,K*%
%TO.N,Column 3*%
X393212600Y-253902400D03*
D12*
%TO.P,D70,2,A*%
X393212600Y-246282400D03*
%TD*%
D11*
%TO.P,D10,1,K*%
%TO.N,Net-(D10-K)*%
X331301400Y-174132200D03*
D12*
%TO.P,D10,2,A*%
%TO.N,Net-(D10-A)*%
X331301400Y-166512200D03*
%TD*%
D11*
%TO.P,D28,1,K*%
%TO.N,Net-(D28-K)*%
X412262200Y-197944200D03*
D12*
%TO.P,D28,2,A*%
%TO.N,Net-(D28-A)*%
X412262200Y-190324200D03*
%TD*%
D11*
%TO.P,D7,1,K*%
%TO.N,Net-(D21-A)*%
X269393750Y-172942500D03*
D12*
%TO.P,D7,2,A*%
%TO.N,Net-(D7-A)*%
X269393750Y-165322500D03*
%TD*%
D11*
%TO.P,D80,1,K*%
%TO.N,Column 4*%
X417024600Y-278225500D03*
D12*
%TO.P,D80,2,A*%
%TO.N,Net-(D27-K)*%
X417024600Y-270605500D03*
%TD*%
D11*
%TO.P,D50,1,K*%
%TO.N,Net-(D50-K)*%
X255103000Y-234852800D03*
D12*
%TO.P,D50,2,A*%
%TO.N,Net-(D35-K)*%
X255103000Y-227232800D03*
%TD*%
D11*
%TO.P,D32,1,K*%
%TO.N,Net-(D32-K)*%
X193191800Y-215803200D03*
D12*
%TO.P,D32,2,A*%
%TO.N,Net-(D17-K)*%
X193191800Y-208183200D03*
%TD*%
D11*
%TO.P,D13,1,K*%
%TO.N,Column 6*%
X390831400Y-174132200D03*
D12*
%TO.P,D13,2,A*%
%TO.N,Net-(D13-A)*%
X390831400Y-166512200D03*
%TD*%
D11*
%TO.P,D31,1,K*%
%TO.N,Net-(D31-K)*%
X174142200Y-216993800D03*
D12*
%TO.P,D31,2,A*%
%TO.N,Net-(D16-K)*%
X174142200Y-209373800D03*
%TD*%
D11*
%TO.P,D69,1,K*%
%TO.N,Column 2*%
X361066400Y-252711800D03*
D12*
%TO.P,D69,2,A*%
X361066400Y-245091800D03*
%TD*%
D11*
%TO.P,D24,1,K*%
%TO.N,Net-(D24-K)*%
X317014200Y-197944200D03*
D12*
%TO.P,D24,2,A*%
%TO.N,Net-(D10-K)*%
X317014200Y-190324200D03*
%TD*%
D11*
%TO.P,D23,1,K*%
%TO.N,Net-(D23-K)*%
X297810000Y-197944200D03*
D12*
%TO.P,D23,2,A*%
%TO.N,Net-(D23-A)*%
X297810000Y-190324200D03*
%TD*%
D11*
%TO.P,D34,1,K*%
%TO.N,Net-(D34-K)*%
X231291000Y-215803200D03*
D12*
%TO.P,D34,2,A*%
%TO.N,Net-(D19-K)*%
X231291000Y-208183200D03*
%TD*%
D11*
%TO.P,D8,1,K*%
%TO.N,Net-(D22-A)*%
X288325000Y-173770000D03*
D12*
%TO.P,D8,2,A*%
%TO.N,Net-(D8-A)*%
X288325000Y-166150000D03*
%TD*%
D11*
%TO.P,D48,1,K*%
%TO.N,Net-(D48-K)*%
X217003800Y-234852800D03*
D12*
%TO.P,D48,2,A*%
%TO.N,Net-(D33-K)*%
X217003800Y-227232800D03*
%TD*%
D11*
%TO.P,D37,1,K*%
%TO.N,Net-(D37-K)*%
X289630400Y-215803200D03*
D12*
%TO.P,D37,2,A*%
%TO.N,Net-(D22-K)*%
X289630400Y-208183200D03*
%TD*%
D11*
%TO.P,D74,1,K*%
%TO.N,Net-(D74-K)*%
X197954200Y-272713800D03*
D12*
%TO.P,D74,2,A*%
%TO.N,Net-(D61-K)*%
X197954200Y-265093800D03*
%TD*%
D11*
%TO.P,D33,1,K*%
%TO.N,Net-(D33-K)*%
X212241400Y-215803200D03*
D12*
%TO.P,D33,2,A*%
%TO.N,Net-(D18-K)*%
X212241400Y-208183200D03*
%TD*%
D11*
%TO.P,D49,1,K*%
%TO.N,Net-(D49-K)*%
X236053400Y-234852800D03*
D12*
%TO.P,D49,2,A*%
%TO.N,Net-(D34-K)*%
X236053400Y-227232800D03*
%TD*%
D11*
%TO.P,D20,1,K*%
%TO.N,Net-(D20-K)*%
X240815800Y-197944200D03*
D12*
%TO.P,D20,2,A*%
%TO.N,Net-(D20-A)*%
X240815800Y-190324200D03*
%TD*%
D11*
%TO.P,D78,1,K*%
%TO.N,Column 2*%
X374163000Y-272952000D03*
D12*
%TO.P,D78,2,A*%
%TO.N,Net-(D74-K)*%
X374163000Y-265332000D03*
%TD*%
D11*
%TO.P,D75,1,K*%
%TO.N,Net-(D75-K)*%
X317014200Y-273463000D03*
D12*
%TO.P,D75,2,A*%
%TO.N,Net-(D62-K)*%
X317014200Y-265843000D03*
%TD*%
D11*
%TO.P,D4,1,K*%
%TO.N,Net-(D18-A)*%
X207481250Y-173895000D03*
D12*
%TO.P,D4,2,A*%
%TO.N,Net-(D4-A)*%
X207481250Y-166275000D03*
%TD*%
D11*
%TO.P,D77,1,K*%
%TO.N,Column 1*%
X355113400Y-273463000D03*
D12*
%TO.P,D77,2,A*%
%TO.N,Net-(D73-K)*%
X355113400Y-265843000D03*
%TD*%
D11*
%TO.P,D9,1,K*%
%TO.N,Net-(D23-A)*%
X310325000Y-173580000D03*
D12*
%TO.P,D9,2,A*%
%TO.N,Net-(D9-A)*%
X310325000Y-165960000D03*
%TD*%
D11*
%TO.P,D1,1,K*%
%TO.N,Net-(D1-K)*%
X147950000Y-173895000D03*
D12*
%TO.P,D1,2,A*%
%TO.N,Net-(D1-A)*%
X147950000Y-166275000D03*
%TD*%
D11*
%TO.P,D35,1,K*%
%TO.N,Net-(D35-K)*%
X250340600Y-215803200D03*
D12*
%TO.P,D35,2,A*%
%TO.N,Net-(D20-K)*%
X250340600Y-208183200D03*
%TD*%
D11*
%TO.P,D56,1,K*%
%TO.N,Column 9*%
X369400600Y-234852800D03*
D12*
%TO.P,D56,2,A*%
%TO.N,Net-(D43-K)*%
X369400600Y-227232800D03*
%TD*%
D11*
%TO.P,D26,1,K*%
%TO.N,Column 7*%
X355113400Y-197944200D03*
D12*
%TO.P,D26,2,A*%
X355113400Y-190324200D03*
%TD*%
D11*
%TO.P,D11,1,K*%
%TO.N,Column 8*%
X350351000Y-174132200D03*
D12*
%TO.P,D11,2,A*%
X350351000Y-166512200D03*
%TD*%
D11*
%TO.P,D17,1,K*%
%TO.N,Net-(D17-K)*%
X183667000Y-197944200D03*
D12*
%TO.P,D17,2,A*%
%TO.N,Net-(D17-A)*%
X183667000Y-190324200D03*
%TD*%
D11*
%TO.P,D2,1,K*%
%TO.N,Net-(D16-A)*%
X169381250Y-173895000D03*
D12*
%TO.P,D2,2,A*%
%TO.N,Net-(D2-A)*%
X169381250Y-166275000D03*
%TD*%
D11*
%TO.P,D60,1,K*%
%TO.N,Net-(D60-K)*%
X188429400Y-255093000D03*
D12*
%TO.P,D60,2,A*%
%TO.N,Net-(D46-K)*%
X188429400Y-247473000D03*
%TD*%
D11*
%TO.P,D15,1,K*%
%TO.N,Net-(D15-K)*%
X145567800Y-197944200D03*
D12*
%TO.P,D15,2,A*%
%TO.N,Net-(D1-K)*%
X145567800Y-190324200D03*
%TD*%
D11*
%TO.P,D79,1,K*%
%TO.N,Column 3*%
X397975000Y-278225500D03*
D12*
%TO.P,D79,2,A*%
%TO.N,Net-(D75-K)*%
X397975000Y-270605500D03*
%TD*%
D11*
%TO.P,D59,1,K*%
%TO.N,Net-(D59-K)*%
X169379800Y-253902400D03*
D12*
%TO.P,D59,2,A*%
%TO.N,Net-(D45-K)*%
X169379800Y-246282400D03*
%TD*%
D11*
%TO.P,D42,1,K*%
%TO.N,Net-(D42-K)*%
X383687800Y-215803200D03*
D12*
%TO.P,D42,2,A*%
%TO.N,Net-(D42-A)*%
X383687800Y-208183200D03*
%TD*%
D11*
%TO.P,D73,1,K*%
%TO.N,Net-(D73-K)*%
X174142200Y-272952000D03*
D12*
%TO.P,D73,2,A*%
%TO.N,Net-(D60-K)*%
X174142200Y-265332000D03*
%TD*%
D11*
%TO.P,D47,1,K*%
%TO.N,Net-(D47-K)*%
X197797500Y-234852800D03*
D12*
%TO.P,D47,2,A*%
%TO.N,Net-(D32-K)*%
X197797500Y-227232800D03*
%TD*%
D11*
%TO.P,D39,1,K*%
%TO.N,Net-(D39-K)*%
X326539000Y-215803200D03*
D12*
%TO.P,D39,2,A*%
%TO.N,Net-(D24-K)*%
X326539000Y-208183200D03*
%TD*%
D11*
%TO.P,D64,1,K*%
%TO.N,Net-(D28-A)*%
X264627800Y-253902400D03*
D12*
%TO.P,D64,2,A*%
%TO.N,Net-(D50-K)*%
X264627800Y-246282400D03*
%TD*%
D11*
%TO.P,D38,1,K*%
%TO.N,Net-(D38-K)*%
X307489400Y-215803200D03*
D12*
%TO.P,D38,2,A*%
%TO.N,Net-(D23-K)*%
X307489400Y-208183200D03*
%TD*%
D11*
%TO.P,D53,1,K*%
%TO.N,Net-(D53-K)*%
X312251800Y-234852800D03*
D12*
%TO.P,D53,2,A*%
%TO.N,Net-(D38-K)*%
X312251800Y-227232800D03*
%TD*%
D11*
%TO.P,D5,1,K*%
%TO.N,Net-(D19-A)*%
X228912500Y-173895000D03*
D12*
%TO.P,D5,2,A*%
%TO.N,Net-(D5-A)*%
X228912500Y-166275000D03*
%TD*%
D11*
%TO.P,D52,1,K*%
%TO.N,Net-(D52-K)*%
X293202200Y-234852800D03*
D12*
%TO.P,D52,2,A*%
%TO.N,Net-(D37-K)*%
X293202200Y-227232800D03*
%TD*%
D11*
%TO.P,D3,1,K*%
%TO.N,Net-(D17-A)*%
X188431250Y-173895000D03*
D12*
%TO.P,D3,2,A*%
%TO.N,Net-(D3-A)*%
X188431250Y-166275000D03*
%TD*%
D11*
%TO.P,D19,1,K*%
%TO.N,Net-(D19-K)*%
X221766200Y-197467800D03*
D12*
%TO.P,D19,2,A*%
%TO.N,Net-(D19-A)*%
X221766200Y-189847800D03*
%TD*%
D11*
%TO.P,D27,1,K*%
%TO.N,Net-(D27-K)*%
X374163000Y-196753600D03*
D12*
%TO.P,D27,2,A*%
%TO.N,Net-(D27-A)*%
X374163000Y-189133600D03*
%TD*%
D11*
%TO.P,D36,1,K*%
%TO.N,Net-(D36-K)*%
X269390200Y-215803200D03*
D12*
%TO.P,D36,2,A*%
%TO.N,Net-(D21-K)*%
X269390200Y-208183200D03*
%TD*%
D11*
%TO.P,D62,1,K*%
%TO.N,Net-(D62-K)*%
X226528600Y-253902400D03*
D12*
%TO.P,D62,2,A*%
%TO.N,Net-(D48-K)*%
X226528600Y-246282400D03*
%TD*%
D11*
%TO.P,D76,1,K*%
%TO.N,Column 0*%
X336063800Y-273463000D03*
D12*
%TO.P,D76,2,A*%
%TO.N,Net-(D72-K)*%
X336063800Y-265843000D03*
%TD*%
D11*
%TO.P,D57,1,K*%
%TO.N,Net-(D13-A)*%
X412250000Y-239470000D03*
D12*
%TO.P,D57,2,A*%
%TO.N,Net-(D57-A)*%
X412250000Y-231850000D03*
%TD*%
D11*
%TO.P,D16,1,K*%
%TO.N,Net-(D16-K)*%
X164617400Y-197944200D03*
D12*
%TO.P,D16,2,A*%
%TO.N,Net-(D16-A)*%
X164617400Y-190324200D03*
%TD*%
D11*
%TO.P,D68,1,K*%
%TO.N,Net-(D43-A)*%
X340826200Y-253902400D03*
D12*
%TO.P,D68,2,A*%
%TO.N,Net-(D54-K)*%
X340826200Y-246282400D03*
%TD*%
D11*
%TO.P,D6,1,K*%
%TO.N,Net-(D20-A)*%
X250343750Y-173895000D03*
D12*
%TO.P,D6,2,A*%
%TO.N,Net-(D6-A)*%
X250343750Y-166275000D03*
%TD*%
D11*
%TO.P,D43,1,K*%
%TO.N,Net-(D43-K)*%
X412700000Y-215420000D03*
D12*
%TO.P,D43,2,A*%
%TO.N,Net-(D43-A)*%
X412700000Y-207800000D03*
%TD*%
D11*
%TO.P,D46,1,K*%
%TO.N,Net-(D46-K)*%
X178825000Y-235330000D03*
D12*
%TO.P,D46,2,A*%
%TO.N,Net-(D31-K)*%
X178825000Y-227710000D03*
%TD*%
D11*
%TO.P,D71,1,K*%
%TO.N,Column 0*%
X417024600Y-257474200D03*
D12*
%TO.P,D71,2,A*%
X417024600Y-249854200D03*
%TD*%
D11*
%TO.P,D54,1,K*%
%TO.N,Net-(D54-K)*%
X331301400Y-234852800D03*
D12*
%TO.P,D54,2,A*%
%TO.N,Net-(D39-K)*%
X331301400Y-227232800D03*
%TD*%
D11*
%TO.P,D18,1,K*%
%TO.N,Net-(D18-K)*%
X202716600Y-197706000D03*
D12*
%TO.P,D18,2,A*%
%TO.N,Net-(D18-A)*%
X202716600Y-190086000D03*
%TD*%
D11*
%TO.P,D58,1,K*%
%TO.N,Column 1*%
X432350000Y-255310000D03*
D12*
%TO.P,D58,2,A*%
X432350000Y-247690000D03*
%TD*%
D11*
%TO.P,D21,1,K*%
%TO.N,Net-(D21-K)*%
X259865400Y-197944200D03*
D12*
%TO.P,D21,2,A*%
%TO.N,Net-(D21-A)*%
X259865400Y-190324200D03*
%TD*%
D11*
%TO.P,D51,1,K*%
%TO.N,Net-(D51-K)*%
X274152600Y-234852800D03*
D12*
%TO.P,D51,2,A*%
%TO.N,Net-(D36-K)*%
X274152600Y-227232800D03*
%TD*%
D11*
%TO.P,D22,1,K*%
%TO.N,Net-(D22-K)*%
X278915000Y-197944200D03*
D12*
%TO.P,D22,2,A*%
%TO.N,Net-(D22-A)*%
X278915000Y-190324200D03*
%TD*%
D11*
%TO.P,D67,1,K*%
%TO.N,Net-(D42-A)*%
X322967200Y-253902400D03*
D12*
%TO.P,D67,2,A*%
%TO.N,Net-(D53-K)*%
X322967200Y-246282400D03*
%TD*%
D13*
%TO.P,U1,1,1*%
%TO.N,Row 1*%
X432370000Y-160310000D03*
%TO.P,U1,2,0*%
%TO.N,Row 0*%
X432370000Y-162850000D03*
%TO.P,U1,3,GND*%
%TO.N,GND*%
X432370000Y-165390000D03*
%TO.P,U1,4,GND*%
%TO.N,unconnected-(U1-GND-Pad4)*%
X432370000Y-167930000D03*
%TO.P,U1,5,2*%
%TO.N,Row 2*%
X432370000Y-170470000D03*
%TO.P,U1,6,3*%
%TO.N,Row 3*%
X432370000Y-173010000D03*
%TO.P,U1,7,4*%
%TO.N,Row 4*%
X432370000Y-175550000D03*
%TO.P,U1,8,5*%
%TO.N,Row 5*%
X432370000Y-178090000D03*
%TO.P,U1,9,6*%
%TO.N,Row 6*%
X432370000Y-180630000D03*
%TO.P,U1,10,7*%
%TO.N,Row 7*%
X432370000Y-183170000D03*
%TO.P,U1,11,8*%
%TO.N,Column 1*%
X432370000Y-185710000D03*
%TO.P,U1,12,9*%
%TO.N,Column 0*%
X432370000Y-188250000D03*
%TO.P,U1,13,10*%
%TO.N,Column 2*%
X417130000Y-188250000D03*
%TO.P,U1,14,16*%
%TO.N,Column 3*%
X417130000Y-185710000D03*
%TO.P,U1,15,14*%
%TO.N,Column 4*%
X417130000Y-183170000D03*
%TO.P,U1,16,15*%
%TO.N,Column 5*%
X417130000Y-180630000D03*
%TO.P,U1,17,18*%
%TO.N,Column 6*%
X417130000Y-178090000D03*
%TO.P,U1,18,19*%
%TO.N,Column 7*%
X417130000Y-175550000D03*
%TO.P,U1,19,20*%
%TO.N,Column 8*%
X417130000Y-173010000D03*
%TO.P,U1,20,21*%
%TO.N,Column 9*%
X417130000Y-170470000D03*
%TO.P,U1,21,3.3v*%
%TO.N,unconnected-(U1-3.3v-Pad21)*%
X417130000Y-167930000D03*
%TO.P,U1,22,RST*%
%TO.N,unconnected-(U1-RST-Pad22)*%
X417130000Y-165390000D03*
%TO.P,U1,23,GND*%
%TO.N,unconnected-(U1-GND-Pad23)*%
X417130000Y-162850000D03*
%TO.P,U1,24,B+*%
%TO.N,unconnected-(U1-B+-Pad24)*%
X417130000Y-160310000D03*
%TO.P,U1,25,1*%
%TO.N,unconnected-(U1-1-Pad25)*%
X429830000Y-183170000D03*
%TO.P,U1,26,2*%
%TO.N,unconnected-(U1-2-Pad26)*%
X427290000Y-183170000D03*
%TO.P,U1,27,7*%
%TO.N,unconnected-(U1-7-Pad27)*%
X424750000Y-183170000D03*
%TD*%
D11*
%TO.P,D40,1,K*%
%TO.N,Column 4*%
X345588600Y-215803200D03*
D12*
%TO.P,D40,2,A*%
X345588600Y-208183200D03*
%TD*%
D11*
%TO.P,D63,1,K*%
%TO.N,Net-(D27-A)*%
X245578200Y-253902400D03*
D12*
%TO.P,D63,2,A*%
%TO.N,Net-(D49-K)*%
X245578200Y-246282400D03*
%TD*%
D11*
%TO.P,D41,1,K*%
%TO.N,Column 5*%
X364638200Y-215803200D03*
D12*
%TO.P,D41,2,A*%
X364638200Y-208183200D03*
%TD*%
D11*
%TO.P,D45,1,K*%
%TO.N,Net-(D45-K)*%
X159725000Y-235330000D03*
D12*
%TO.P,D45,2,A*%
%TO.N,Net-(D30-K)*%
X159725000Y-227710000D03*
%TD*%
D11*
%TO.P,D44,1,K*%
%TO.N,Net-(D14-A)*%
X412450000Y-226570000D03*
D12*
%TO.P,D44,2,A*%
%TO.N,Net-(D44-A)*%
X412450000Y-218950000D03*
%TD*%
D11*
%TO.P,D61,1,K*%
%TO.N,Net-(D61-K)*%
X207479000Y-253902400D03*
D12*
%TO.P,D61,2,A*%
%TO.N,Net-(D47-K)*%
X207479000Y-246282400D03*
%TD*%
D14*
%TO.N,Net-(D44-A)*%
X399420000Y-240140000D03*
%TO.N,Column 9*%
X385330000Y-191600000D03*
X375340000Y-200100000D03*
X393610000Y-179400000D03*
%TO.N,Column 5*%
X398200000Y-235980000D03*
X366560000Y-211510000D03*
X382520000Y-228010000D03*
%TO.N,Column 4*%
X336930000Y-222750000D03*
X385210000Y-205880000D03*
%TO.N,Column 0*%
X369350000Y-258430000D03*
%TO.N,Column 6*%
X401840000Y-176000000D03*
%TO.N,Column 7*%
X386140000Y-184340000D03*
%TO.N,Row 4*%
X344730000Y-241970000D03*
X349760000Y-242290000D03*
%TO.N,Column 2*%
X371840000Y-227280000D03*
X388780000Y-209610000D03*
%TO.N,Row 5*%
X396970000Y-188810000D03*
X367240000Y-196670000D03*
X425290000Y-216420000D03*
X403930000Y-205180000D03*
X406010000Y-204480000D03*
X414790000Y-201860000D03*
X395630000Y-199230000D03*
X346270000Y-205100000D03*
%TO.N,Column 3*%
X398930000Y-244900000D03*
%TO.N,Net-(D13-A)*%
X409680000Y-201300000D03*
X402780000Y-189040000D03*
X408560000Y-193380000D03*
%TO.N,Net-(D14-A)*%
X422920000Y-184700000D03*
%TO.N,Net-(D28-K)*%
X416140000Y-198530000D03*
%TO.N,Net-(D42-K)*%
X357470000Y-229770000D03*
%TO.N,Net-(D43-K)*%
X379090000Y-227360000D03*
X395630000Y-216070000D03*
%TO.N,Net-(D27-A)*%
X350470000Y-193520000D03*
X260370000Y-221410000D03*
%TO.N,Net-(D28-A)*%
X346830000Y-200260000D03*
%TO.N,Net-(D42-A)*%
X333490000Y-220100000D03*
%TO.N,Net-(D57-A)*%
X290750000Y-262000000D03*
X356760000Y-254180000D03*
X367680000Y-251290000D03*
X367850000Y-239940000D03*
%TO.N,Row 7*%
X425490000Y-220210000D03*
X356600000Y-239090000D03*
X429400000Y-186910000D03*
%TD*%
D15*
%TO.N,Row 0*%
X255329000Y-160560000D02*
X138425000Y-160560000D01*
X324162500Y-160750500D02*
X255519500Y-160750500D01*
X255519500Y-160750500D02*
X255329000Y-160560000D01*
%TO.N,Row 3*%
X325563500Y-221262000D02*
X324162500Y-222663000D01*
X408611450Y-195532000D02*
X390495816Y-195532000D01*
X413363200Y-190780250D02*
X408611450Y-195532000D01*
X324129500Y-222630000D02*
X324162500Y-222663000D01*
X413363200Y-190351846D02*
X413363200Y-190780250D01*
X390495816Y-195532000D02*
X364765816Y-221262000D01*
X418307300Y-187072700D02*
X416642346Y-187072700D01*
X364765816Y-221262000D02*
X325563500Y-221262000D01*
X432370000Y-173010000D02*
X418307300Y-187072700D01*
X416642346Y-187072700D02*
X413363200Y-190351846D01*
X145565000Y-222630000D02*
X324129500Y-222630000D01*
%TO.N,Column 8*%
X367027800Y-174132200D02*
X350351000Y-174132200D01*
X368150000Y-173010000D02*
X367027800Y-174132200D01*
X347129300Y-163290500D02*
X350351000Y-166512200D01*
X336862500Y-163290500D02*
X347129300Y-163290500D01*
X417130000Y-173010000D02*
X368150000Y-173010000D01*
%TO.N,Net-(D44-A)*%
X405533314Y-240140000D02*
X411288500Y-245895186D01*
X409307186Y-247876500D02*
X408814086Y-247383400D01*
X392756550Y-247383400D02*
X390027150Y-244654000D01*
X408814086Y-247383400D02*
X392756550Y-247383400D01*
X412758970Y-218950000D02*
X422587500Y-209121470D01*
X390027150Y-244654000D02*
X381855066Y-244654000D01*
X371505666Y-255003400D02*
X303828000Y-255003400D01*
X411288500Y-247055814D02*
X410467814Y-247876500D01*
X303828000Y-255003400D02*
X302727000Y-253902400D01*
X410467814Y-247876500D02*
X409307186Y-247876500D01*
X411288500Y-245895186D02*
X411288500Y-247055814D01*
X412450000Y-218950000D02*
X412758970Y-218950000D01*
X422587500Y-209121470D02*
X422587500Y-206153000D01*
X399420000Y-240140000D02*
X405533314Y-240140000D01*
X381855066Y-244654000D02*
X371505666Y-255003400D01*
%TO.N,Column 9*%
X369400600Y-166512200D02*
X366178900Y-163290500D01*
X417130000Y-170470000D02*
X373358400Y-170470000D01*
X381249000Y-194191000D02*
X382739000Y-194191000D01*
X393610000Y-179400000D02*
X353732640Y-179400000D01*
X366178900Y-163290500D02*
X355912500Y-163290500D01*
X354415540Y-168181500D02*
X367731300Y-168181500D01*
X349250000Y-173347040D02*
X354415540Y-168181500D01*
X349250000Y-174917360D02*
X349250000Y-173347040D01*
X382739000Y-194191000D02*
X385330000Y-191600000D01*
X375340000Y-200100000D02*
X381249000Y-194191000D01*
X353732640Y-179400000D02*
X349250000Y-174917360D01*
X367731300Y-168181500D02*
X369400600Y-166512200D01*
X373358400Y-170470000D02*
X369400600Y-166512200D01*
%TO.N,Column 5*%
X351150000Y-206153000D02*
X362608000Y-206153000D01*
X433948300Y-167843346D02*
X433948300Y-248001700D01*
X362608000Y-206153000D02*
X364638200Y-208183200D01*
X432857654Y-166752700D02*
X433948300Y-167843346D01*
X364638200Y-215803200D02*
X364638200Y-213431800D01*
X390490000Y-235980000D02*
X382520000Y-228010000D01*
X398200000Y-235980000D02*
X390490000Y-235980000D01*
X431007300Y-166752700D02*
X432857654Y-166752700D01*
X364638200Y-213431800D02*
X366560000Y-211510000D01*
X433948300Y-248001700D02*
X426330000Y-255620000D01*
X417130000Y-180630000D02*
X431007300Y-166752700D01*
%TO.N,Row 2*%
X331019000Y-191994000D02*
X382377686Y-191994000D01*
X400831935Y-181168000D02*
X404182935Y-184519000D01*
X418321000Y-184519000D02*
X432370000Y-170470000D01*
X143187500Y-203613000D02*
X319400000Y-203613000D01*
X393203686Y-181168000D02*
X400831935Y-181168000D01*
X382377686Y-191994000D02*
X393203686Y-181168000D01*
X319400000Y-203613000D02*
X331019000Y-191994000D01*
X404182935Y-184519000D02*
X418321000Y-184519000D01*
%TO.N,Column 4*%
X344054814Y-223802000D02*
X343792814Y-224064000D01*
X384433950Y-205880000D02*
X366249950Y-224064000D01*
X332100000Y-206153000D02*
X343558400Y-206153000D01*
X343558400Y-206153000D02*
X345588600Y-208183200D01*
X366249950Y-224064000D02*
X357846000Y-224064000D01*
X357584000Y-223802000D02*
X344054814Y-223802000D01*
X338244000Y-224064000D02*
X336930000Y-222750000D01*
X343792814Y-224064000D02*
X338244000Y-224064000D01*
X357846000Y-224064000D02*
X357584000Y-223802000D01*
X385210000Y-205880000D02*
X384433950Y-205880000D01*
%TO.N,Column 0*%
X424046500Y-242832300D02*
X417024600Y-249854200D01*
X403537500Y-249015500D02*
X416185900Y-249015500D01*
X424046500Y-196573500D02*
X424046500Y-242832300D01*
X416185900Y-249015500D02*
X417024600Y-249854200D01*
X432370000Y-188250000D02*
X424046500Y-196573500D01*
X378764500Y-249015500D02*
X403537500Y-249015500D01*
X369350000Y-258430000D02*
X378764500Y-249015500D01*
%TO.N,Column 6*%
X401840000Y-176000000D02*
X399972200Y-174132200D01*
X332842600Y-187103000D02*
X322575000Y-187103000D01*
X399972200Y-174132200D02*
X390831400Y-174132200D01*
X336063800Y-190324200D02*
X332842600Y-187103000D01*
%TO.N,Column 7*%
X361255314Y-185702000D02*
X359735600Y-185702000D01*
X341625000Y-187103000D02*
X351892200Y-187103000D01*
X386140000Y-184340000D02*
X384516000Y-185964000D01*
X351892200Y-187103000D02*
X355113400Y-190324200D01*
X361517314Y-185964000D02*
X361255314Y-185702000D01*
X384516000Y-185964000D02*
X361517314Y-185964000D01*
X359735600Y-185702000D02*
X355113400Y-190324200D01*
%TO.N,Row 1*%
X313671000Y-180767000D02*
X309875000Y-184563000D01*
X410248046Y-180767000D02*
X313671000Y-180767000D01*
X416642346Y-174372700D02*
X410248046Y-180767000D01*
X418307300Y-174372700D02*
X416642346Y-174372700D01*
X138425000Y-184563000D02*
X309875000Y-184563000D01*
X432370000Y-160310000D02*
X418307300Y-174372700D01*
%TO.N,Row 4*%
X418307300Y-187762346D02*
X418307300Y-188737654D01*
X395413500Y-208323600D02*
X373242100Y-230495000D01*
X344473000Y-241713000D02*
X333687500Y-241713000D01*
X395413500Y-205572686D02*
X395413500Y-208323600D01*
X150331250Y-241713000D02*
X333687500Y-241713000D01*
X430519646Y-175550000D02*
X418307300Y-187762346D01*
X361555000Y-230495000D02*
X349760000Y-242290000D01*
X432370000Y-175550000D02*
X430519646Y-175550000D01*
X373242100Y-230495000D02*
X361555000Y-230495000D01*
X418307300Y-188737654D02*
X401472268Y-205572686D01*
X344730000Y-241970000D02*
X344473000Y-241713000D01*
X401472268Y-205572686D02*
X395413500Y-205572686D01*
%TO.N,Column 2*%
X371840000Y-224790000D02*
X371840000Y-227280000D01*
X387020000Y-209610000D02*
X371840000Y-224790000D01*
X361066400Y-245091800D02*
X361066400Y-252711800D01*
X388780000Y-209610000D02*
X387020000Y-209610000D01*
X346387500Y-244253000D02*
X360227600Y-244253000D01*
X360227600Y-244253000D02*
X361066400Y-245091800D01*
%TO.N,Column 1*%
X414037440Y-279326500D02*
X421372532Y-271991408D01*
X411349000Y-206731000D02*
X411349000Y-219406050D01*
X421372532Y-271991408D02*
X421686776Y-271991408D01*
X421686776Y-271991408D02*
X427536500Y-266141684D01*
X427536500Y-266141684D02*
X427536500Y-260123500D01*
X417145950Y-225203000D02*
X422587500Y-225203000D01*
X360976900Y-279326500D02*
X414037440Y-279326500D01*
X355113400Y-273463000D02*
X360976900Y-279326500D01*
X411349000Y-219406050D02*
X417145950Y-225203000D01*
X432370000Y-185710000D02*
X411349000Y-206731000D01*
X427536500Y-260123500D02*
X432350000Y-255310000D01*
%TO.N,Row 5*%
X395979500Y-199230000D02*
X400362500Y-203613000D01*
X369357686Y-205014000D02*
X370758686Y-203613000D01*
X414790000Y-201860000D02*
X413629000Y-200699000D01*
X346270000Y-205100000D02*
X346618000Y-204752000D01*
X428937500Y-203613000D02*
X433547300Y-199003200D01*
X390373816Y-191994000D02*
X394033816Y-191994000D01*
X425448970Y-216420000D02*
X425290000Y-216420000D01*
X428937500Y-203613000D02*
X428937500Y-212931470D01*
X413629000Y-200699000D02*
X409431057Y-200699000D01*
X393218750Y-222663000D02*
X400173500Y-215708250D01*
X409431057Y-200699000D02*
X406010000Y-204120057D01*
X376550000Y-203613000D02*
X378754816Y-203613000D01*
X406010000Y-204120057D02*
X406010000Y-204480000D01*
X400173500Y-215708250D02*
X400173500Y-208936500D01*
X140806250Y-260763000D02*
X259868750Y-260763000D01*
X433547300Y-199003200D02*
X433547300Y-179267300D01*
X428937500Y-212931470D02*
X425448970Y-216420000D01*
X367240000Y-196670000D02*
X374183000Y-203613000D01*
X400173500Y-208936500D02*
X403930000Y-205180000D01*
X374183000Y-203613000D02*
X376550000Y-203613000D01*
X378754816Y-203613000D02*
X390373816Y-191994000D01*
X396970000Y-189057816D02*
X396970000Y-188810000D01*
X356919686Y-205014000D02*
X369357686Y-205014000D01*
X433547300Y-179267300D02*
X432370000Y-178090000D01*
X394033816Y-191994000D02*
X396970000Y-189057816D01*
X370758686Y-203613000D02*
X376550000Y-203613000D01*
X346618000Y-204752000D02*
X356657686Y-204752000D01*
X395630000Y-199230000D02*
X395979500Y-199230000D01*
X356657686Y-204752000D02*
X356919686Y-205014000D01*
%TO.N,Column 3*%
X397387600Y-246282400D02*
X393212600Y-246282400D01*
X372581250Y-244253000D02*
X391183200Y-244253000D01*
X399090000Y-277110500D02*
X399090000Y-259779800D01*
X391183200Y-244253000D02*
X393212600Y-246282400D01*
X399090000Y-259779800D02*
X393212600Y-253902400D01*
X398930000Y-244900000D02*
X398770000Y-244900000D01*
X398770000Y-244900000D02*
X397387600Y-246282400D01*
X397975000Y-278225500D02*
X399090000Y-277110500D01*
%TO.N,Net-(D1-A)*%
X132075000Y-163100000D02*
X144775000Y-163100000D01*
X144775000Y-163100000D02*
X147950000Y-166275000D01*
%TO.N,Net-(D1-K)*%
X142346600Y-187103000D02*
X145567800Y-190324200D01*
X132075000Y-187103000D02*
X142346600Y-187103000D01*
%TO.N,Net-(D16-A)*%
X161396200Y-187103000D02*
X164617400Y-190324200D01*
X151125000Y-187103000D02*
X161396200Y-187103000D01*
%TO.N,Net-(D2-A)*%
X155887500Y-163290500D02*
X166396750Y-163290500D01*
X166396750Y-163290500D02*
X169381250Y-166275000D01*
%TO.N,Net-(D3-A)*%
X185446750Y-163290500D02*
X188431250Y-166275000D01*
X174937500Y-163290500D02*
X185446750Y-163290500D01*
%TO.N,Net-(D17-A)*%
X180445800Y-187103000D02*
X183667000Y-190324200D01*
X170175000Y-187103000D02*
X180445800Y-187103000D01*
%TO.N,Net-(D18-A)*%
X202716600Y-190086000D02*
X199733600Y-187103000D01*
X199733600Y-187103000D02*
X189225000Y-187103000D01*
%TO.N,Net-(D4-A)*%
X202035970Y-163290500D02*
X205020470Y-166275000D01*
X193987500Y-163290500D02*
X202035970Y-163290500D01*
X205020470Y-166275000D02*
X207481250Y-166275000D01*
%TO.N,Net-(D19-A)*%
X217882400Y-185964000D02*
X209414000Y-185964000D01*
X209414000Y-185964000D02*
X208275000Y-187103000D01*
X221766200Y-189847800D02*
X217882400Y-185964000D01*
%TO.N,Net-(D5-A)*%
X213037500Y-163290500D02*
X225928000Y-163290500D01*
X225928000Y-163290500D02*
X228912500Y-166275000D01*
%TO.N,Net-(D6-A)*%
X244900500Y-163290500D02*
X247885000Y-166275000D01*
X247885000Y-166275000D02*
X250343750Y-166275000D01*
X236850000Y-163290500D02*
X244900500Y-163290500D01*
%TO.N,Net-(D20-A)*%
X237594600Y-187103000D02*
X227325000Y-187103000D01*
X240815800Y-190324200D02*
X237594600Y-187103000D01*
%TO.N,Net-(D7-A)*%
X267361750Y-163290500D02*
X269393750Y-165322500D01*
X255900000Y-163290500D02*
X267361750Y-163290500D01*
%TO.N,Net-(D21-A)*%
X247514000Y-185964000D02*
X246375000Y-187103000D01*
X259865400Y-190324200D02*
X255505200Y-185964000D01*
X255505200Y-185964000D02*
X247514000Y-185964000D01*
%TO.N,Net-(D8-A)*%
X285465500Y-163290500D02*
X274950000Y-163290500D01*
X288325000Y-166150000D02*
X285465500Y-163290500D01*
%TO.N,Net-(D22-A)*%
X265425000Y-187103000D02*
X273533000Y-187103000D01*
X273533000Y-187103000D02*
X276754200Y-190324200D01*
X276754200Y-190324200D02*
X278915000Y-190324200D01*
%TO.N,Net-(D9-A)*%
X294000000Y-163290500D02*
X307655500Y-163290500D01*
X307655500Y-163290500D02*
X310325000Y-165960000D01*
%TO.N,Net-(D23-A)*%
X294588800Y-187103000D02*
X284475000Y-187103000D01*
X297810000Y-190324200D02*
X294588800Y-187103000D01*
%TO.N,Net-(D10-K)*%
X317014200Y-190324200D02*
X313793000Y-187103000D01*
X313793000Y-187103000D02*
X303525000Y-187103000D01*
%TO.N,Net-(D10-A)*%
X331301400Y-166512200D02*
X328079700Y-163290500D01*
X328079700Y-163290500D02*
X317812500Y-163290500D01*
%TO.N,Net-(D13-A)*%
X407120000Y-193380000D02*
X402780000Y-189040000D01*
X413551000Y-238169000D02*
X413551000Y-222175150D01*
X412250000Y-239470000D02*
X413551000Y-238169000D01*
X409680000Y-218304150D02*
X409680000Y-201300000D01*
X374962500Y-163290500D02*
X387609700Y-163290500D01*
X387609700Y-163290500D02*
X390831400Y-166512200D01*
X413551000Y-222175150D02*
X409680000Y-218304150D01*
X408560000Y-193380000D02*
X407120000Y-193380000D01*
%TO.N,Net-(D14-A)*%
X412450000Y-226570000D02*
X405409000Y-219529000D01*
X405409000Y-219529000D02*
X405409000Y-202211000D01*
X412262200Y-166512200D02*
X409040500Y-163290500D01*
X409040500Y-163290500D02*
X398775000Y-163290500D01*
X405409000Y-202211000D02*
X422920000Y-184700000D01*
%TO.N,Net-(D16-K)*%
X170921400Y-206153000D02*
X174142200Y-209373800D01*
X160650000Y-206153000D02*
X170921400Y-206153000D01*
%TO.N,Net-(D17-K)*%
X191161600Y-206153000D02*
X193191800Y-208183200D01*
X179700000Y-206153000D02*
X191161600Y-206153000D01*
%TO.N,Net-(D18-K)*%
X210211200Y-206153000D02*
X212241400Y-208183200D01*
X198750000Y-206153000D02*
X210211200Y-206153000D01*
%TO.N,Net-(D19-K)*%
X229260800Y-206153000D02*
X231291000Y-208183200D01*
X217800000Y-206153000D02*
X229260800Y-206153000D01*
%TO.N,Net-(D20-K)*%
X236850000Y-206153000D02*
X244963000Y-206153000D01*
X246993200Y-208183200D02*
X250340600Y-208183200D01*
X244963000Y-206153000D02*
X246993200Y-208183200D01*
%TO.N,Net-(D21-K)*%
X267360000Y-206153000D02*
X269390200Y-208183200D01*
X255900000Y-206153000D02*
X267360000Y-206153000D01*
%TO.N,Net-(D22-K)*%
X274950000Y-206153000D02*
X287600200Y-206153000D01*
X287600200Y-206153000D02*
X289630400Y-208183200D01*
%TO.N,Net-(D23-K)*%
X305459200Y-206153000D02*
X307489400Y-208183200D01*
X294000000Y-206153000D02*
X305459200Y-206153000D01*
%TO.N,Net-(D24-K)*%
X324508800Y-206153000D02*
X326539000Y-208183200D01*
X313050000Y-206153000D02*
X324508800Y-206153000D01*
%TO.N,Net-(D27-K)*%
X403537500Y-268065500D02*
X414484600Y-268065500D01*
X414484600Y-268065500D02*
X417024600Y-270605500D01*
%TO.N,Net-(D28-K)*%
X415554200Y-197944200D02*
X412262200Y-197944200D01*
X422587500Y-251742500D02*
X426330000Y-248000000D01*
X422587500Y-268065500D02*
X422587500Y-251742500D01*
X416140000Y-198530000D02*
X415554200Y-197944200D01*
%TO.N,Net-(D31-K)*%
X165412500Y-225203000D02*
X176318000Y-225203000D01*
X176318000Y-225203000D02*
X178825000Y-227710000D01*
%TO.N,Net-(D32-K)*%
X184462500Y-225203000D02*
X195767700Y-225203000D01*
X195767700Y-225203000D02*
X197797500Y-227232800D01*
%TO.N,Net-(D33-K)*%
X214974000Y-225203000D02*
X217003800Y-227232800D01*
X203512500Y-225203000D02*
X214974000Y-225203000D01*
%TO.N,Net-(D34-K)*%
X222562500Y-225203000D02*
X234023600Y-225203000D01*
X234023600Y-225203000D02*
X236053400Y-227232800D01*
%TO.N,Net-(D35-K)*%
X253073200Y-225203000D02*
X255103000Y-227232800D01*
X241612500Y-225203000D02*
X253073200Y-225203000D01*
%TO.N,Net-(D36-K)*%
X272122800Y-225203000D02*
X274152600Y-227232800D01*
X260662500Y-225203000D02*
X272122800Y-225203000D01*
%TO.N,Net-(D37-K)*%
X279712500Y-225203000D02*
X291172400Y-225203000D01*
X291172400Y-225203000D02*
X293202200Y-227232800D01*
%TO.N,Net-(D38-K)*%
X298762500Y-225203000D02*
X310222000Y-225203000D01*
X310222000Y-225203000D02*
X312251800Y-227232800D01*
%TO.N,Net-(D39-K)*%
X317812500Y-225203000D02*
X329271600Y-225203000D01*
X329271600Y-225203000D02*
X331301400Y-227232800D01*
%TO.N,Net-(D42-K)*%
X336862500Y-225203000D02*
X348321200Y-225203000D01*
X357470000Y-229770000D02*
X352888200Y-229770000D01*
X352888200Y-229770000D02*
X350351000Y-227232800D01*
X348321200Y-225203000D02*
X350351000Y-227232800D01*
%TO.N,Net-(D43-K)*%
X395630000Y-216070000D02*
X390380000Y-216070000D01*
X355912500Y-225203000D02*
X367370800Y-225203000D01*
X390380000Y-216070000D02*
X379090000Y-227360000D01*
X367370800Y-225203000D02*
X369400600Y-227232800D01*
%TO.N,Net-(D45-K)*%
X167350400Y-244253000D02*
X143981250Y-244253000D01*
X169379800Y-246282400D02*
X167350400Y-244253000D01*
%TO.N,Net-(D46-K)*%
X188429400Y-247473000D02*
X185209400Y-244253000D01*
X185209400Y-244253000D02*
X174937500Y-244253000D01*
%TO.N,Net-(D47-K)*%
X205449600Y-244253000D02*
X193987500Y-244253000D01*
X207479000Y-246282400D02*
X205449600Y-244253000D01*
%TO.N,Net-(D48-K)*%
X224499200Y-244253000D02*
X213037500Y-244253000D01*
X226528600Y-246282400D02*
X224499200Y-244253000D01*
%TO.N,Net-(D49-K)*%
X243548800Y-244253000D02*
X232087500Y-244253000D01*
X245578200Y-246282400D02*
X243548800Y-244253000D01*
%TO.N,Net-(D50-K)*%
X264627800Y-246282400D02*
X262598400Y-244253000D01*
X262598400Y-244253000D02*
X251137500Y-244253000D01*
%TO.N,Net-(D51-K)*%
X281648000Y-244253000D02*
X283677400Y-246282400D01*
X270187500Y-244253000D02*
X281648000Y-244253000D01*
%TO.N,Net-(D52-K)*%
X300697600Y-244253000D02*
X302727000Y-246282400D01*
X289237500Y-244253000D02*
X300697600Y-244253000D01*
%TO.N,Net-(D53-K)*%
X308287500Y-244253000D02*
X320937800Y-244253000D01*
X320937800Y-244253000D02*
X322967200Y-246282400D01*
%TO.N,Net-(D54-K)*%
X327337500Y-244253000D02*
X338796800Y-244253000D01*
X338796800Y-244253000D02*
X340826200Y-246282400D01*
%TO.N,Net-(D59-K)*%
X134456250Y-263303000D02*
X148301200Y-263303000D01*
X148301200Y-263303000D02*
X150330200Y-265332000D01*
%TO.N,Net-(D60-K)*%
X172113200Y-263303000D02*
X174142200Y-265332000D01*
X158268750Y-263303000D02*
X172113200Y-263303000D01*
%TO.N,Net-(D61-K)*%
X182081250Y-263303000D02*
X196163400Y-263303000D01*
X196163400Y-263303000D02*
X197954200Y-265093800D01*
%TO.N,Net-(D62-K)*%
X317014200Y-265843000D02*
X314474200Y-263303000D01*
X314474200Y-263303000D02*
X253518750Y-263303000D01*
%TO.N,Net-(D27-A)*%
X360675000Y-187103000D02*
X372132400Y-187103000D01*
X327640000Y-208639250D02*
X315017250Y-221262000D01*
X315017250Y-221262000D02*
X260518000Y-221262000D01*
X350470000Y-193520000D02*
X342650000Y-193520000D01*
X372132400Y-187103000D02*
X374163000Y-189133600D01*
X342650000Y-193520000D02*
X327640000Y-208530000D01*
X327640000Y-208530000D02*
X327640000Y-208639250D01*
X260518000Y-221262000D02*
X260370000Y-221410000D01*
%TO.N,Net-(D28-A)*%
X388821530Y-187103000D02*
X389250000Y-187103000D01*
X389250000Y-187103000D02*
X409041000Y-187103000D01*
X353300000Y-193790000D02*
X382134530Y-193790000D01*
X346830000Y-200260000D02*
X353300000Y-193790000D01*
X409041000Y-187103000D02*
X412262200Y-190324200D01*
X382134530Y-193790000D02*
X388821530Y-187103000D01*
%TO.N,Net-(D42-A)*%
X355824530Y-220100000D02*
X333490000Y-220100000D01*
X370200000Y-206153000D02*
X369771530Y-206153000D01*
X369771530Y-206153000D02*
X355824530Y-220100000D01*
%TO.N,Net-(D43-A)*%
X373076000Y-230094000D02*
X358565186Y-230094000D01*
X341927200Y-246731986D02*
X341927200Y-252801400D01*
X394012500Y-206153000D02*
X394012500Y-209157500D01*
X358565186Y-230094000D02*
X341927200Y-246731986D01*
X394012500Y-209157500D02*
X373076000Y-230094000D01*
X341927200Y-252801400D02*
X340826200Y-253902400D01*
%TO.N,Net-(D57-A)*%
X290750000Y-262000000D02*
X283677400Y-254927400D01*
X386868750Y-225203000D02*
X405603000Y-225203000D01*
X364790000Y-254180000D02*
X356760000Y-254180000D01*
X283677400Y-254927400D02*
X283677400Y-253902400D01*
X382587000Y-225203000D02*
X367850000Y-239940000D01*
X386868750Y-225203000D02*
X382587000Y-225203000D01*
X405603000Y-225203000D02*
X412250000Y-231850000D01*
X367680000Y-251290000D02*
X364790000Y-254180000D01*
%TO.N,Net-(D72-K)*%
X333523800Y-263303000D02*
X336063800Y-265843000D01*
X322575000Y-263303000D02*
X333523800Y-263303000D01*
%TO.N,Net-(D73-K)*%
X341625000Y-263303000D02*
X352573400Y-263303000D01*
X352573400Y-263303000D02*
X355113400Y-265843000D01*
%TO.N,Net-(D74-K)*%
X197954200Y-272713800D02*
X202022186Y-268645814D01*
X360675000Y-263303000D02*
X372134000Y-263303000D01*
X360246530Y-263303000D02*
X360675000Y-263303000D01*
X202022186Y-268645814D02*
X354903716Y-268645814D01*
X354903716Y-268645814D02*
X360246530Y-263303000D01*
X372134000Y-263303000D02*
X374163000Y-265332000D01*
%TO.N,Net-(D75-K)*%
X384487500Y-268065500D02*
X395435000Y-268065500D01*
X384487500Y-268065500D02*
X383387501Y-269165499D01*
X321311701Y-269165499D02*
X317014200Y-273463000D01*
X395435000Y-268065500D02*
X397975000Y-270605500D01*
X383387501Y-269165499D02*
X321311701Y-269165499D01*
%TO.N,Row 7*%
X405125000Y-241713000D02*
X409887500Y-246475500D01*
X432370000Y-183170000D02*
X429400000Y-186140000D01*
X338450000Y-203613000D02*
X357500000Y-203613000D01*
X426484500Y-220210000D02*
X428937500Y-222663000D01*
X328925000Y-184563000D02*
X347975000Y-184563000D01*
X362262500Y-160750500D02*
X343212500Y-160750500D01*
X355360500Y-239090000D02*
X352737500Y-241713000D01*
X425490000Y-220210000D02*
X426484500Y-220210000D01*
X378931250Y-241713000D02*
X405125000Y-241713000D01*
X429400000Y-186140000D02*
X429400000Y-186910000D01*
X378931250Y-241713000D02*
X352737500Y-241713000D01*
X356600000Y-239090000D02*
X355360500Y-239090000D01*
%TO.N,Row 6*%
X405125000Y-160750500D02*
X381312500Y-160750500D01*
X362262500Y-222663000D02*
X343212500Y-222663000D01*
X390837500Y-265525500D02*
X386075000Y-260763000D01*
X328925000Y-260763000D02*
X367025000Y-260763000D01*
X386075000Y-260763000D02*
X367025000Y-260763000D01*
%TD*%
M02*
