%TF.GenerationSoftware,KiCad,Pcbnew,9.0.2*%
%TF.CreationDate,2025-06-24T14:03:40-04:00*%
%TF.ProjectId,allankeyboard,616c6c61-6e6b-4657-9962-6f6172642e6b,rev?*%
%TF.SameCoordinates,Original*%
%TF.FileFunction,Plated,1,2,PTH,Drill*%
%TF.FilePolarity,Positive*%
%FSLAX46Y46*%
G04 Gerber Fmt 4.6, Leading zero omitted, Abs format (unit mm)*
G04 Created by KiCad (PCBNEW 9.0.2) date 2025-06-24 14:03:40*
%MOMM*%
%LPD*%
G01*
G04 APERTURE LIST*
%TA.AperFunction,ViaDrill*%
%ADD10C,0.300000*%
%TD*%
%TA.AperFunction,ComponentDrill*%
%ADD11C,0.800000*%
%TD*%
%TA.AperFunction,ComponentDrill*%
%ADD12C,1.092200*%
%TD*%
%TA.AperFunction,ComponentDrill*%
%ADD13C,1.500000*%
%TD*%
G04 APERTURE END LIST*
D10*
X260370000Y-221410000D03*
X290750000Y-262000000D03*
X333490000Y-220100000D03*
X336930000Y-222750000D03*
X344730000Y-241970000D03*
X346270000Y-205100000D03*
X346830000Y-200260000D03*
X349760000Y-242290000D03*
X350470000Y-193520000D03*
X356600000Y-239090000D03*
X356760000Y-254180000D03*
X357470000Y-229770000D03*
X366560000Y-211510000D03*
X367240000Y-196670000D03*
X367680000Y-251290000D03*
X367850000Y-239940000D03*
X369350000Y-258430000D03*
X371840000Y-227280000D03*
X375340000Y-200100000D03*
X379090000Y-227360000D03*
X382520000Y-228010000D03*
X385210000Y-205880000D03*
X385330000Y-191600000D03*
X386140000Y-184340000D03*
X388780000Y-209610000D03*
X393610000Y-179400000D03*
X395630000Y-199230000D03*
X395630000Y-216070000D03*
X396970000Y-188810000D03*
X398200000Y-235980000D03*
X398930000Y-244900000D03*
X399420000Y-240140000D03*
X401840000Y-176000000D03*
X402780000Y-189040000D03*
X403930000Y-205180000D03*
X406010000Y-204480000D03*
X408560000Y-193380000D03*
X409680000Y-201300000D03*
X414790000Y-201860000D03*
X416140000Y-198530000D03*
X422920000Y-184700000D03*
X425290000Y-216420000D03*
X425490000Y-220210000D03*
X429400000Y-186910000D03*
D11*
%TO.C,D15*%
X145567800Y-190324200D03*
X145567800Y-197944200D03*
%TO.C,D1*%
X147950000Y-166275000D03*
X147950000Y-173895000D03*
%TO.C,D72*%
X150330200Y-265332000D03*
X150330200Y-272952000D03*
%TO.C,D30*%
X155092600Y-208183200D03*
X155092600Y-215803200D03*
%TO.C,D45*%
X159725000Y-227710000D03*
X159725000Y-235330000D03*
%TO.C,D16*%
X164617400Y-190324200D03*
X164617400Y-197944200D03*
%TO.C,D59*%
X169379800Y-246282400D03*
X169379800Y-253902400D03*
%TO.C,D2*%
X169381250Y-166275000D03*
X169381250Y-173895000D03*
%TO.C,D31*%
X174142200Y-209373800D03*
X174142200Y-216993800D03*
%TO.C,D73*%
X174142200Y-265332000D03*
X174142200Y-272952000D03*
%TO.C,D46*%
X178825000Y-227710000D03*
X178825000Y-235330000D03*
%TO.C,D17*%
X183667000Y-190324200D03*
X183667000Y-197944200D03*
%TO.C,D60*%
X188429400Y-247473000D03*
X188429400Y-255093000D03*
%TO.C,D3*%
X188431250Y-166275000D03*
X188431250Y-173895000D03*
%TO.C,D32*%
X193191800Y-208183200D03*
X193191800Y-215803200D03*
%TO.C,D47*%
X197797500Y-227232800D03*
X197797500Y-234852800D03*
%TO.C,D74*%
X197954200Y-265093800D03*
X197954200Y-272713800D03*
%TO.C,D18*%
X202716600Y-190086000D03*
X202716600Y-197706000D03*
%TO.C,D61*%
X207479000Y-246282400D03*
X207479000Y-253902400D03*
%TO.C,D4*%
X207481250Y-166275000D03*
X207481250Y-173895000D03*
%TO.C,D33*%
X212241400Y-208183200D03*
X212241400Y-215803200D03*
%TO.C,D48*%
X217003800Y-227232800D03*
X217003800Y-234852800D03*
%TO.C,D19*%
X221766200Y-189847800D03*
X221766200Y-197467800D03*
%TO.C,D62*%
X226528600Y-246282400D03*
X226528600Y-253902400D03*
%TO.C,D5*%
X228912500Y-166275000D03*
X228912500Y-173895000D03*
%TO.C,D34*%
X231291000Y-208183200D03*
X231291000Y-215803200D03*
%TO.C,D49*%
X236053400Y-227232800D03*
X236053400Y-234852800D03*
%TO.C,D20*%
X240815800Y-190324200D03*
X240815800Y-197944200D03*
%TO.C,D63*%
X245578200Y-246282400D03*
X245578200Y-253902400D03*
%TO.C,D35*%
X250340600Y-208183200D03*
X250340600Y-215803200D03*
%TO.C,D6*%
X250343750Y-166275000D03*
X250343750Y-173895000D03*
%TO.C,D50*%
X255103000Y-227232800D03*
X255103000Y-234852800D03*
%TO.C,D21*%
X259865400Y-190324200D03*
X259865400Y-197944200D03*
%TO.C,D64*%
X264627800Y-246282400D03*
X264627800Y-253902400D03*
%TO.C,D36*%
X269390200Y-208183200D03*
X269390200Y-215803200D03*
%TO.C,D7*%
X269393750Y-165322500D03*
X269393750Y-172942500D03*
%TO.C,D51*%
X274152600Y-227232800D03*
X274152600Y-234852800D03*
%TO.C,D22*%
X278915000Y-190324200D03*
X278915000Y-197944200D03*
%TO.C,D65*%
X283677400Y-246282400D03*
X283677400Y-253902400D03*
%TO.C,D8*%
X288325000Y-166150000D03*
X288325000Y-173770000D03*
%TO.C,D37*%
X289630400Y-208183200D03*
X289630400Y-215803200D03*
%TO.C,D52*%
X293202200Y-227232800D03*
X293202200Y-234852800D03*
%TO.C,D23*%
X297810000Y-190324200D03*
X297810000Y-197944200D03*
%TO.C,D66*%
X302727000Y-246282400D03*
X302727000Y-253902400D03*
%TO.C,D38*%
X307489400Y-208183200D03*
X307489400Y-215803200D03*
%TO.C,D9*%
X310325000Y-165960000D03*
X310325000Y-173580000D03*
%TO.C,D53*%
X312251800Y-227232800D03*
X312251800Y-234852800D03*
%TO.C,D24*%
X317014200Y-190324200D03*
X317014200Y-197944200D03*
%TO.C,D75*%
X317014200Y-265843000D03*
X317014200Y-273463000D03*
%TO.C,D67*%
X322967200Y-246282400D03*
X322967200Y-253902400D03*
%TO.C,D39*%
X326539000Y-208183200D03*
X326539000Y-215803200D03*
%TO.C,D10*%
X331301400Y-166512200D03*
X331301400Y-174132200D03*
%TO.C,D54*%
X331301400Y-227232800D03*
X331301400Y-234852800D03*
%TO.C,D25*%
X336063800Y-190324200D03*
X336063800Y-197944200D03*
%TO.C,D76*%
X336063800Y-265843000D03*
X336063800Y-273463000D03*
%TO.C,D68*%
X340826200Y-246282400D03*
X340826200Y-253902400D03*
%TO.C,D40*%
X345588600Y-208183200D03*
X345588600Y-215803200D03*
%TO.C,D11*%
X350351000Y-166512200D03*
X350351000Y-174132200D03*
%TO.C,D55*%
X350351000Y-227232800D03*
X350351000Y-234852800D03*
%TO.C,D26*%
X355113400Y-190324200D03*
X355113400Y-197944200D03*
%TO.C,D77*%
X355113400Y-265843000D03*
X355113400Y-273463000D03*
%TO.C,D69*%
X361066400Y-245091800D03*
X361066400Y-252711800D03*
%TO.C,D41*%
X364638200Y-208183200D03*
X364638200Y-215803200D03*
%TO.C,D12*%
X369400600Y-166512200D03*
X369400600Y-174132200D03*
%TO.C,D56*%
X369400600Y-227232800D03*
X369400600Y-234852800D03*
%TO.C,D27*%
X374163000Y-189133600D03*
X374163000Y-196753600D03*
%TO.C,D78*%
X374163000Y-265332000D03*
X374163000Y-272952000D03*
%TO.C,D42*%
X383687800Y-208183200D03*
X383687800Y-215803200D03*
%TO.C,D13*%
X390831400Y-166512200D03*
X390831400Y-174132200D03*
%TO.C,D70*%
X393212600Y-246282400D03*
X393212600Y-253902400D03*
%TO.C,D79*%
X397975000Y-270605500D03*
X397975000Y-278225500D03*
%TO.C,D57*%
X412250000Y-231850000D03*
X412250000Y-239470000D03*
%TO.C,D14*%
X412262200Y-166512200D03*
X412262200Y-174132200D03*
%TO.C,D28*%
X412262200Y-190324200D03*
X412262200Y-197944200D03*
%TO.C,D44*%
X412450000Y-218950000D03*
X412450000Y-226570000D03*
%TO.C,D43*%
X412700000Y-207800000D03*
X412700000Y-215420000D03*
%TO.C,D71*%
X417024600Y-249854200D03*
X417024600Y-257474200D03*
%TO.C,D80*%
X417024600Y-270605500D03*
X417024600Y-278225500D03*
%TO.C,D81*%
X426330000Y-248000000D03*
X426330000Y-255620000D03*
%TO.C,D58*%
X432350000Y-247690000D03*
X432350000Y-255310000D03*
D12*
%TO.C,U1*%
X417130000Y-160310000D03*
X417130000Y-162850000D03*
X417130000Y-165390000D03*
X417130000Y-167930000D03*
X417130000Y-170470000D03*
X417130000Y-173010000D03*
X417130000Y-175550000D03*
X417130000Y-178090000D03*
X417130000Y-180630000D03*
X417130000Y-183170000D03*
X417130000Y-185710000D03*
X417130000Y-188250000D03*
X424750000Y-183170000D03*
X427290000Y-183170000D03*
X429830000Y-183170000D03*
X432370000Y-160310000D03*
X432370000Y-162850000D03*
X432370000Y-165390000D03*
X432370000Y-167930000D03*
X432370000Y-170470000D03*
X432370000Y-173010000D03*
X432370000Y-175550000D03*
X432370000Y-178090000D03*
X432370000Y-180630000D03*
X432370000Y-183170000D03*
X432370000Y-185710000D03*
X432370000Y-188250000D03*
D13*
%TO.C,S1*%
X132075000Y-163100000D03*
%TO.C,S15*%
X132075000Y-187103000D03*
%TO.C,S72*%
X134456250Y-263303000D03*
%TO.C,S30*%
X136837500Y-206153000D03*
%TO.C,S1*%
X138425000Y-160560000D03*
%TO.C,S15*%
X138425000Y-184563000D03*
%TO.C,S45*%
X139215000Y-225170000D03*
%TO.C,S72*%
X140806250Y-260763000D03*
%TO.C,S30*%
X143187500Y-203613000D03*
%TO.C,S59*%
X143981250Y-244253000D03*
%TO.C,S45*%
X145565000Y-222630000D03*
%TO.C,S59*%
X150331250Y-241713000D03*
%TO.C,S16*%
X151125000Y-187103000D03*
%TO.C,S2*%
X155887500Y-163290500D03*
%TO.C,S16*%
X157475000Y-184563000D03*
%TO.C,S73*%
X158268750Y-263303000D03*
%TO.C,S31*%
X160650000Y-206153000D03*
%TO.C,S2*%
X162237500Y-160750500D03*
%TO.C,S73*%
X164618750Y-260763000D03*
%TO.C,S46*%
X165412500Y-225203000D03*
%TO.C,S31*%
X167000000Y-203613000D03*
%TO.C,S17*%
X170175000Y-187103000D03*
%TO.C,S46*%
X171762500Y-222663000D03*
%TO.C,S3*%
X174937500Y-163290500D03*
%TO.C,S60*%
X174937500Y-244253000D03*
%TO.C,S17*%
X176525000Y-184563000D03*
%TO.C,S32*%
X179700000Y-206153000D03*
%TO.C,S3*%
X181287500Y-160750500D03*
%TO.C,S60*%
X181287500Y-241713000D03*
%TO.C,S74*%
X182081250Y-263303000D03*
%TO.C,S47*%
X184462500Y-225203000D03*
%TO.C,S32*%
X186050000Y-203613000D03*
%TO.C,S74*%
X188431250Y-260763000D03*
%TO.C,S18*%
X189225000Y-187103000D03*
%TO.C,S47*%
X190812500Y-222663000D03*
%TO.C,S4*%
X193987500Y-163290500D03*
%TO.C,S61*%
X193987500Y-244253000D03*
%TO.C,S18*%
X195575000Y-184563000D03*
%TO.C,S33*%
X198750000Y-206153000D03*
%TO.C,S4*%
X200337500Y-160750500D03*
%TO.C,S61*%
X200337500Y-241713000D03*
%TO.C,S48*%
X203512500Y-225203000D03*
%TO.C,S33*%
X205100000Y-203613000D03*
%TO.C,S19*%
X208275000Y-187103000D03*
%TO.C,S48*%
X209862500Y-222663000D03*
%TO.C,S5*%
X213037500Y-163290500D03*
%TO.C,S62*%
X213037500Y-244253000D03*
%TO.C,S19*%
X214625000Y-184563000D03*
%TO.C,S34*%
X217800000Y-206153000D03*
%TO.C,S5*%
X219387500Y-160750500D03*
%TO.C,S62*%
X219387500Y-241713000D03*
%TO.C,S49*%
X222562500Y-225203000D03*
%TO.C,S34*%
X224150000Y-203613000D03*
%TO.C,S20*%
X227325000Y-187103000D03*
%TO.C,S49*%
X228912500Y-222663000D03*
%TO.C,S63*%
X232087500Y-244253000D03*
%TO.C,S20*%
X233675000Y-184563000D03*
%TO.C,S6*%
X236850000Y-163290500D03*
%TO.C,S35*%
X236850000Y-206153000D03*
%TO.C,S63*%
X238437500Y-241713000D03*
%TO.C,S50*%
X241612500Y-225203000D03*
%TO.C,S6*%
X243200000Y-160750500D03*
%TO.C,S35*%
X243200000Y-203613000D03*
%TO.C,S21*%
X246375000Y-187103000D03*
%TO.C,S50*%
X247962500Y-222663000D03*
%TO.C,S64*%
X251137500Y-244253000D03*
%TO.C,S21*%
X252725000Y-184563000D03*
%TO.C,S75*%
X253518750Y-263303000D03*
%TO.C,S7*%
X255900000Y-163290500D03*
%TO.C,S36*%
X255900000Y-206153000D03*
%TO.C,S64*%
X257487500Y-241713000D03*
%TO.C,S75*%
X259868750Y-260763000D03*
%TO.C,S51*%
X260662500Y-225203000D03*
%TO.C,S7*%
X262250000Y-160750500D03*
%TO.C,S36*%
X262250000Y-203613000D03*
%TO.C,S22*%
X265425000Y-187103000D03*
%TO.C,S51*%
X267012500Y-222663000D03*
%TO.C,S65*%
X270187500Y-244253000D03*
%TO.C,S22*%
X271775000Y-184563000D03*
%TO.C,S8*%
X274950000Y-163290500D03*
%TO.C,S37*%
X274950000Y-206153000D03*
%TO.C,S65*%
X276537500Y-241713000D03*
%TO.C,S52*%
X279712500Y-225203000D03*
%TO.C,S8*%
X281300000Y-160750500D03*
%TO.C,S37*%
X281300000Y-203613000D03*
%TO.C,S23*%
X284475000Y-187103000D03*
%TO.C,S52*%
X286062500Y-222663000D03*
%TO.C,S66*%
X289237500Y-244253000D03*
%TO.C,S23*%
X290825000Y-184563000D03*
%TO.C,S9*%
X294000000Y-163290500D03*
%TO.C,S38*%
X294000000Y-206153000D03*
%TO.C,S66*%
X295587500Y-241713000D03*
%TO.C,S53*%
X298762500Y-225203000D03*
%TO.C,S9*%
X300350000Y-160750500D03*
%TO.C,S38*%
X300350000Y-203613000D03*
%TO.C,S24*%
X303525000Y-187103000D03*
%TO.C,S53*%
X305112500Y-222663000D03*
%TO.C,S67*%
X308287500Y-244253000D03*
%TO.C,S24*%
X309875000Y-184563000D03*
%TO.C,S39*%
X313050000Y-206153000D03*
%TO.C,S67*%
X314637500Y-241713000D03*
%TO.C,S10*%
X317812500Y-163290500D03*
%TO.C,S54*%
X317812500Y-225203000D03*
%TO.C,S39*%
X319400000Y-203613000D03*
%TO.C,S25*%
X322575000Y-187103000D03*
%TO.C,S76*%
X322575000Y-263303000D03*
%TO.C,S10*%
X324162500Y-160750500D03*
%TO.C,S54*%
X324162500Y-222663000D03*
%TO.C,S68*%
X327337500Y-244253000D03*
%TO.C,S25*%
X328925000Y-184563000D03*
%TO.C,S76*%
X328925000Y-260763000D03*
%TO.C,S40*%
X332100000Y-206153000D03*
%TO.C,S68*%
X333687500Y-241713000D03*
%TO.C,S11*%
X336862500Y-163290500D03*
%TO.C,S55*%
X336862500Y-225203000D03*
%TO.C,S40*%
X338450000Y-203613000D03*
%TO.C,S26*%
X341625000Y-187103000D03*
%TO.C,S77*%
X341625000Y-263303000D03*
%TO.C,S11*%
X343212500Y-160750500D03*
%TO.C,S55*%
X343212500Y-222663000D03*
%TO.C,S69*%
X346387500Y-244253000D03*
%TO.C,S26*%
X347975000Y-184563000D03*
%TO.C,S77*%
X347975000Y-260763000D03*
%TO.C,S41*%
X351150000Y-206153000D03*
%TO.C,S69*%
X352737500Y-241713000D03*
%TO.C,S12*%
X355912500Y-163290500D03*
%TO.C,S56*%
X355912500Y-225203000D03*
%TO.C,S41*%
X357500000Y-203613000D03*
%TO.C,S27*%
X360675000Y-187103000D03*
%TO.C,S78*%
X360675000Y-263303000D03*
%TO.C,S12*%
X362262500Y-160750500D03*
%TO.C,S56*%
X362262500Y-222663000D03*
%TO.C,S27*%
X367025000Y-184563000D03*
%TO.C,S78*%
X367025000Y-260763000D03*
%TO.C,S42*%
X370200000Y-206153000D03*
%TO.C,S70*%
X372581250Y-244253000D03*
%TO.C,S13*%
X374962500Y-163290500D03*
%TO.C,S42*%
X376550000Y-203613000D03*
%TO.C,S70*%
X378931250Y-241713000D03*
%TO.C,S13*%
X381312500Y-160750500D03*
%TO.C,S79*%
X384487500Y-268065500D03*
%TO.C,S57*%
X386868750Y-225203000D03*
%TO.C,S28*%
X389250000Y-187103000D03*
%TO.C,S79*%
X390837500Y-265525500D03*
%TO.C,S57*%
X393218750Y-222663000D03*
%TO.C,S43*%
X394012500Y-206153000D03*
%TO.C,S28*%
X395600000Y-184563000D03*
%TO.C,S14*%
X398775000Y-163290500D03*
%TO.C,S43*%
X400362500Y-203613000D03*
%TO.C,S71*%
X403537500Y-249015500D03*
%TO.C,S80*%
X403537500Y-268065500D03*
%TO.C,S14*%
X405125000Y-160750500D03*
%TO.C,S71*%
X409887500Y-246475500D03*
%TO.C,S80*%
X409887500Y-265525500D03*
%TO.C,S44*%
X422587500Y-206153000D03*
%TO.C,S58*%
X422587500Y-225203000D03*
%TO.C,S81*%
X422587500Y-268065500D03*
%TO.C,S44*%
X428937500Y-203613000D03*
%TO.C,S58*%
X428937500Y-222663000D03*
%TO.C,S81*%
X428937500Y-265525500D03*
M02*
