ISO-10303-21;
HEADER;
/* Generated by software containing ST-Developer
 * from STEP Tools, Inc. (www.steptools.com) 
 */

FILE_DESCRIPTION(
/* description */ (''),
/* implementation_level */ '2;1');

FILE_NAME(
/* name */ 'super good casetop.step',
/* time_stamp */ '2025-07-22T12:10:20-04:00',
/* author */ (''),
/* organization */ (''),
/* preprocessor_version */ 'ST-DEVELOPER v20.1',
/* originating_system */ 'Autodesk Translation Framework v14.10.0.0',
/* authorisation */ '');

FILE_SCHEMA (('AUTOMOTIVE_DESIGN { 1 0 10303 214 3 1 1 }'));
ENDSEC;

DATA;
#10=MECHANICAL_DESIGN_GEOMETRIC_PRESENTATION_REPRESENTATION('',(#13),#1509);
#11=SHAPE_REPRESENTATION_RELATIONSHIP('SRR','None',#1516,#12);
#12=ADVANCED_BREP_SHAPE_REPRESENTATION('',(#14),#1508);
#13=STYLED_ITEM('',(#1525),#14);
#14=MANIFOLD_SOLID_BREP('Body1',#853);
#15=FACE_BOUND('',#145,.T.);
#16=FACE_BOUND('',#164,.T.);
#17=FACE_BOUND('',#165,.T.);
#18=FACE_BOUND('',#166,.T.);
#19=FACE_BOUND('',#167,.T.);
#20=FACE_BOUND('',#168,.T.);
#21=FACE_BOUND('',#169,.T.);
#22=FACE_BOUND('',#170,.T.);
#23=FACE_BOUND('',#171,.T.);
#24=FACE_BOUND('',#172,.T.);
#25=FACE_BOUND('',#177,.T.);
#26=TOROIDAL_SURFACE('',#903,5.,3.);
#27=TOROIDAL_SURFACE('',#910,5.,3.);
#28=TOROIDAL_SURFACE('',#916,5.,3.);
#29=TOROIDAL_SURFACE('',#922,5.,3.);
#30=TOROIDAL_SURFACE('',#947,7.,3.);
#31=TOROIDAL_SURFACE('',#952,7.,3.);
#32=TOROIDAL_SURFACE('',#957,7.,3.);
#33=TOROIDAL_SURFACE('',#962,7.,3.);
#34=PLANE('',#870);
#35=PLANE('',#874);
#36=PLANE('',#878);
#37=PLANE('',#882);
#38=PLANE('',#886);
#39=PLANE('',#890);
#40=PLANE('',#894);
#41=PLANE('',#898);
#42=PLANE('',#899);
#43=PLANE('',#900);
#44=PLANE('',#901);
#45=PLANE('',#902);
#46=PLANE('',#927);
#47=PLANE('',#930);
#48=PLANE('',#933);
#49=PLANE('',#940);
#50=PLANE('',#943);
#51=PLANE('',#966);
#52=PLANE('',#969);
#53=PLANE('',#972);
#54=PLANE('',#974);
#55=PLANE('',#976);
#56=PLANE('',#977);
#57=FACE_OUTER_BOUND('',#112,.T.);
#58=FACE_OUTER_BOUND('',#113,.T.);
#59=FACE_OUTER_BOUND('',#114,.T.);
#60=FACE_OUTER_BOUND('',#115,.T.);
#61=FACE_OUTER_BOUND('',#116,.T.);
#62=FACE_OUTER_BOUND('',#117,.T.);
#63=FACE_OUTER_BOUND('',#118,.T.);
#64=FACE_OUTER_BOUND('',#119,.T.);
#65=FACE_OUTER_BOUND('',#120,.T.);
#66=FACE_OUTER_BOUND('',#121,.T.);
#67=FACE_OUTER_BOUND('',#122,.T.);
#68=FACE_OUTER_BOUND('',#123,.T.);
#69=FACE_OUTER_BOUND('',#124,.T.);
#70=FACE_OUTER_BOUND('',#125,.T.);
#71=FACE_OUTER_BOUND('',#126,.T.);
#72=FACE_OUTER_BOUND('',#127,.T.);
#73=FACE_OUTER_BOUND('',#128,.T.);
#74=FACE_OUTER_BOUND('',#129,.T.);
#75=FACE_OUTER_BOUND('',#130,.T.);
#76=FACE_OUTER_BOUND('',#131,.T.);
#77=FACE_OUTER_BOUND('',#132,.T.);
#78=FACE_OUTER_BOUND('',#133,.T.);
#79=FACE_OUTER_BOUND('',#134,.T.);
#80=FACE_OUTER_BOUND('',#135,.T.);
#81=FACE_OUTER_BOUND('',#136,.T.);
#82=FACE_OUTER_BOUND('',#137,.T.);
#83=FACE_OUTER_BOUND('',#138,.T.);
#84=FACE_OUTER_BOUND('',#139,.T.);
#85=FACE_OUTER_BOUND('',#140,.T.);
#86=FACE_OUTER_BOUND('',#141,.T.);
#87=FACE_OUTER_BOUND('',#142,.T.);
#88=FACE_OUTER_BOUND('',#143,.T.);
#89=FACE_OUTER_BOUND('',#144,.T.);
#90=FACE_OUTER_BOUND('',#146,.T.);
#91=FACE_OUTER_BOUND('',#147,.T.);
#92=FACE_OUTER_BOUND('',#148,.T.);
#93=FACE_OUTER_BOUND('',#149,.T.);
#94=FACE_OUTER_BOUND('',#150,.T.);
#95=FACE_OUTER_BOUND('',#151,.T.);
#96=FACE_OUTER_BOUND('',#152,.T.);
#97=FACE_OUTER_BOUND('',#153,.T.);
#98=FACE_OUTER_BOUND('',#154,.T.);
#99=FACE_OUTER_BOUND('',#155,.T.);
#100=FACE_OUTER_BOUND('',#156,.T.);
#101=FACE_OUTER_BOUND('',#157,.T.);
#102=FACE_OUTER_BOUND('',#158,.T.);
#103=FACE_OUTER_BOUND('',#159,.T.);
#104=FACE_OUTER_BOUND('',#160,.T.);
#105=FACE_OUTER_BOUND('',#161,.T.);
#106=FACE_OUTER_BOUND('',#162,.T.);
#107=FACE_OUTER_BOUND('',#163,.T.);
#108=FACE_OUTER_BOUND('',#173,.T.);
#109=FACE_OUTER_BOUND('',#174,.T.);
#110=FACE_OUTER_BOUND('',#175,.T.);
#111=FACE_OUTER_BOUND('',#176,.T.);
#112=EDGE_LOOP('',(#542,#543,#544,#545));
#113=EDGE_LOOP('',(#546));
#114=EDGE_LOOP('',(#547,#548,#549,#550));
#115=EDGE_LOOP('',(#551));
#116=EDGE_LOOP('',(#552,#553,#554,#555));
#117=EDGE_LOOP('',(#556));
#118=EDGE_LOOP('',(#557,#558,#559,#560));
#119=EDGE_LOOP('',(#561));
#120=EDGE_LOOP('',(#562,#563,#564,#565));
#121=EDGE_LOOP('',(#566));
#122=EDGE_LOOP('',(#567,#568,#569,#570));
#123=EDGE_LOOP('',(#571));
#124=EDGE_LOOP('',(#572,#573,#574,#575));
#125=EDGE_LOOP('',(#576));
#126=EDGE_LOOP('',(#577,#578,#579,#580));
#127=EDGE_LOOP('',(#581));
#128=EDGE_LOOP('',(#582,#583,#584,#585));
#129=EDGE_LOOP('',(#586,#587,#588,#589));
#130=EDGE_LOOP('',(#590,#591,#592,#593));
#131=EDGE_LOOP('',(#594,#595,#596,#597));
#132=EDGE_LOOP('',(#598,#599,#600,#601));
#133=EDGE_LOOP('',(#602,#603,#604,#605));
#134=EDGE_LOOP('',(#606,#607,#608,#609));
#135=EDGE_LOOP('',(#610,#611,#612,#613));
#136=EDGE_LOOP('',(#614,#615,#616,#617));
#137=EDGE_LOOP('',(#618,#619,#620,#621));
#138=EDGE_LOOP('',(#622,#623,#624,#625));
#139=EDGE_LOOP('',(#626,#627,#628,#629));
#140=EDGE_LOOP('',(#630,#631,#632,#633));
#141=EDGE_LOOP('',(#634,#635,#636,#637));
#142=EDGE_LOOP('',(#638,#639,#640,#641));
#143=EDGE_LOOP('',(#642,#643,#644,#645));
#144=EDGE_LOOP('',(#646,#647,#648,#649,#650,#651,#652,#653));
#145=EDGE_LOOP('',(#654,#655,#656,#657,#658,#659,#660,#661));
#146=EDGE_LOOP('',(#662,#663,#664,#665));
#147=EDGE_LOOP('',(#666,#667,#668,#669));
#148=EDGE_LOOP('',(#670,#671,#672,#673));
#149=EDGE_LOOP('',(#674,#675,#676,#677));
#150=EDGE_LOOP('',(#678,#679,#680,#681));
#151=EDGE_LOOP('',(#682,#683,#684,#685));
#152=EDGE_LOOP('',(#686,#687,#688,#689));
#153=EDGE_LOOP('',(#690,#691,#692,#693));
#154=EDGE_LOOP('',(#694,#695,#696,#697));
#155=EDGE_LOOP('',(#698,#699,#700,#701));
#156=EDGE_LOOP('',(#702,#703,#704,#705));
#157=EDGE_LOOP('',(#706,#707,#708,#709));
#158=EDGE_LOOP('',(#710,#711,#712,#713));
#159=EDGE_LOOP('',(#714,#715,#716,#717));
#160=EDGE_LOOP('',(#718,#719,#720,#721));
#161=EDGE_LOOP('',(#722,#723,#724,#725));
#162=EDGE_LOOP('',(#726,#727,#728,#729));
#163=EDGE_LOOP('',(#730,#731,#732,#733,#734,#735,#736,#737));
#164=EDGE_LOOP('',(#738));
#165=EDGE_LOOP('',(#739));
#166=EDGE_LOOP('',(#740));
#167=EDGE_LOOP('',(#741));
#168=EDGE_LOOP('',(#742));
#169=EDGE_LOOP('',(#743));
#170=EDGE_LOOP('',(#744));
#171=EDGE_LOOP('',(#745));
#172=EDGE_LOOP('',(#746,#747,#748,#749));
#173=EDGE_LOOP('',(#750,#751,#752,#753));
#174=EDGE_LOOP('',(#754,#755,#756,#757));
#175=EDGE_LOOP('',(#758,#759,#760,#761));
#176=EDGE_LOOP('',(#762,#763,#764,#765));
#177=EDGE_LOOP('',(#766,#767,#768,#769,#770,#771,#772,#773));
#178=LINE('',#1267,#238);
#179=LINE('',#1274,#239);
#180=LINE('',#1281,#240);
#181=LINE('',#1288,#241);
#182=LINE('',#1295,#242);
#183=LINE('',#1302,#243);
#184=LINE('',#1309,#244);
#185=LINE('',#1316,#245);
#186=LINE('',#1322,#246);
#187=LINE('',#1324,#247);
#188=LINE('',#1326,#248);
#189=LINE('',#1327,#249);
#190=LINE('',#1330,#250);
#191=LINE('',#1332,#251);
#192=LINE('',#1333,#252);
#193=LINE('',#1336,#253);
#194=LINE('',#1338,#254);
#195=LINE('',#1339,#255);
#196=LINE('',#1341,#256);
#197=LINE('',#1342,#257);
#198=LINE('',#1356,#258);
#199=LINE('',#1357,#259);
#200=LINE('',#1368,#260);
#201=LINE('',#1369,#261);
#202=LINE('',#1380,#262);
#203=LINE('',#1381,#263);
#204=LINE('',#1389,#264);
#205=LINE('',#1390,#265);
#206=LINE('',#1393,#266);
#207=LINE('',#1395,#267);
#208=LINE('',#1396,#268);
#209=LINE('',#1399,#269);
#210=LINE('',#1403,#270);
#211=LINE('',#1404,#271);
#212=LINE('',#1407,#272);
#213=LINE('',#1412,#273);
#214=LINE('',#1416,#274);
#215=LINE('',#1420,#275);
#216=LINE('',#1424,#276);
#217=LINE('',#1428,#277);
#218=LINE('',#1431,#278);
#219=LINE('',#1434,#279);
#220=LINE('',#1435,#280);
#221=LINE('',#1439,#281);
#222=LINE('',#1445,#282);
#223=LINE('',#1453,#283);
#224=LINE('',#1461,#284);
#225=LINE('',#1469,#285);
#226=LINE('',#1474,#286);
#227=LINE('',#1477,#287);
#228=LINE('',#1480,#288);
#229=LINE('',#1481,#289);
#230=LINE('',#1484,#290);
#231=LINE('',#1488,#291);
#232=LINE('',#1489,#292);
#233=LINE('',#1492,#293);
#234=LINE('',#1495,#294);
#235=LINE('',#1497,#295);
#236=LINE('',#1500,#296);
#237=LINE('',#1503,#297);
#238=VECTOR('',#984,2.54999999999999);
#239=VECTOR('',#993,2.54999999999999);
#240=VECTOR('',#1002,2.54999999999999);
#241=VECTOR('',#1011,2.54999999999999);
#242=VECTOR('',#1020,2.54999999999999);
#243=VECTOR('',#1029,2.55000000000003);
#244=VECTOR('',#1038,2.55000000000001);
#245=VECTOR('',#1047,2.55);
#246=VECTOR('',#1054,10.);
#247=VECTOR('',#1055,10.);
#248=VECTOR('',#1056,10.);
#249=VECTOR('',#1057,10.);
#250=VECTOR('',#1060,10.);
#251=VECTOR('',#1061,10.);
#252=VECTOR('',#1062,10.);
#253=VECTOR('',#1065,10.);
#254=VECTOR('',#1066,10.);
#255=VECTOR('',#1067,10.);
#256=VECTOR('',#1070,10.);
#257=VECTOR('',#1071,10.);
#258=VECTOR('',#1086,10.);
#259=VECTOR('',#1087,10.);
#260=VECTOR('',#1100,10.);
#261=VECTOR('',#1101,10.);
#262=VECTOR('',#1114,10.);
#263=VECTOR('',#1115,10.);
#264=VECTOR('',#1126,10.);
#265=VECTOR('',#1127,10.);
#266=VECTOR('',#1130,10.);
#267=VECTOR('',#1131,10.);
#268=VECTOR('',#1132,10.);
#269=VECTOR('',#1135,10.);
#270=VECTOR('',#1140,10.);
#271=VECTOR('',#1141,10.);
#272=VECTOR('',#1144,10.);
#273=VECTOR('',#1149,10.);
#274=VECTOR('',#1152,10.);
#275=VECTOR('',#1155,10.);
#276=VECTOR('',#1158,10.);
#277=VECTOR('',#1163,10.);
#278=VECTOR('',#1166,10.);
#279=VECTOR('',#1169,10.);
#280=VECTOR('',#1170,10.);
#281=VECTOR('',#1177,10.);
#282=VECTOR('',#1184,10.);
#283=VECTOR('',#1195,10.);
#284=VECTOR('',#1206,10.);
#285=VECTOR('',#1217,10.);
#286=VECTOR('',#1224,10.);
#287=VECTOR('',#1227,10.);
#288=VECTOR('',#1230,10.);
#289=VECTOR('',#1231,10.);
#290=VECTOR('',#1234,10.);
#291=VECTOR('',#1239,10.);
#292=VECTOR('',#1240,10.);
#293=VECTOR('',#1243,10.);
#294=VECTOR('',#1246,10.);
#295=VECTOR('',#1249,10.);
#296=VECTOR('',#1252,10.);
#297=VECTOR('',#1257,10.);
#298=CIRCLE('',#868,2.54999999999999);
#299=CIRCLE('',#869,2.54999999999999);
#300=CIRCLE('',#872,2.54999999999999);
#301=CIRCLE('',#873,2.54999999999999);
#302=CIRCLE('',#876,2.54999999999999);
#303=CIRCLE('',#877,2.54999999999999);
#304=CIRCLE('',#880,2.54999999999999);
#305=CIRCLE('',#881,2.54999999999999);
#306=CIRCLE('',#884,2.54999999999999);
#307=CIRCLE('',#885,2.54999999999999);
#308=CIRCLE('',#888,2.55000000000003);
#309=CIRCLE('',#889,2.55000000000003);
#310=CIRCLE('',#892,2.55000000000001);
#311=CIRCLE('',#893,2.55000000000001);
#312=CIRCLE('',#896,2.55);
#313=CIRCLE('',#897,2.55);
#314=CIRCLE('',#904,3.00000000000001);
#315=CIRCLE('',#905,5.);
#316=CIRCLE('',#906,3.);
#317=CIRCLE('',#907,2.);
#318=CIRCLE('',#909,3.);
#319=CIRCLE('',#911,3.);
#320=CIRCLE('',#912,2.);
#321=CIRCLE('',#913,5.);
#322=CIRCLE('',#915,3.);
#323=CIRCLE('',#917,3.);
#324=CIRCLE('',#918,2.);
#325=CIRCLE('',#919,5.);
#326=CIRCLE('',#921,3.);
#327=CIRCLE('',#923,3.);
#328=CIRCLE('',#924,2.);
#329=CIRCLE('',#925,5.);
#330=CIRCLE('',#929,2.);
#331=CIRCLE('',#932,2.);
#332=CIRCLE('',#934,7.);
#333=CIRCLE('',#935,7.);
#334=CIRCLE('',#936,7.);
#335=CIRCLE('',#937,7.);
#336=CIRCLE('',#939,2.);
#337=CIRCLE('',#942,2.);
#338=CIRCLE('',#945,3.00000000000001);
#339=CIRCLE('',#946,3.);
#340=CIRCLE('',#948,3.);
#341=CIRCLE('',#949,10.);
#342=CIRCLE('',#951,3.);
#343=CIRCLE('',#953,3.);
#344=CIRCLE('',#954,10.);
#345=CIRCLE('',#956,3.);
#346=CIRCLE('',#958,3.);
#347=CIRCLE('',#959,10.);
#348=CIRCLE('',#961,3.);
#349=CIRCLE('',#963,10.);
#350=CIRCLE('',#965,10.);
#351=CIRCLE('',#968,10.);
#352=CIRCLE('',#971,10.);
#353=CIRCLE('',#973,10.);
#354=VERTEX_POINT('',#1264);
#355=VERTEX_POINT('',#1266);
#356=VERTEX_POINT('',#1271);
#357=VERTEX_POINT('',#1273);
#358=VERTEX_POINT('',#1278);
#359=VERTEX_POINT('',#1280);
#360=VERTEX_POINT('',#1285);
#361=VERTEX_POINT('',#1287);
#362=VERTEX_POINT('',#1292);
#363=VERTEX_POINT('',#1294);
#364=VERTEX_POINT('',#1299);
#365=VERTEX_POINT('',#1301);
#366=VERTEX_POINT('',#1306);
#367=VERTEX_POINT('',#1308);
#368=VERTEX_POINT('',#1313);
#369=VERTEX_POINT('',#1315);
#370=VERTEX_POINT('',#1320);
#371=VERTEX_POINT('',#1321);
#372=VERTEX_POINT('',#1323);
#373=VERTEX_POINT('',#1325);
#374=VERTEX_POINT('',#1329);
#375=VERTEX_POINT('',#1331);
#376=VERTEX_POINT('',#1335);
#377=VERTEX_POINT('',#1337);
#378=VERTEX_POINT('',#1344);
#379=VERTEX_POINT('',#1345);
#380=VERTEX_POINT('',#1347);
#381=VERTEX_POINT('',#1349);
#382=VERTEX_POINT('',#1353);
#383=VERTEX_POINT('',#1354);
#384=VERTEX_POINT('',#1359);
#385=VERTEX_POINT('',#1360);
#386=VERTEX_POINT('',#1365);
#387=VERTEX_POINT('',#1366);
#388=VERTEX_POINT('',#1371);
#389=VERTEX_POINT('',#1372);
#390=VERTEX_POINT('',#1377);
#391=VERTEX_POINT('',#1378);
#392=VERTEX_POINT('',#1383);
#393=VERTEX_POINT('',#1384);
#394=VERTEX_POINT('',#1392);
#395=VERTEX_POINT('',#1394);
#396=VERTEX_POINT('',#1398);
#397=VERTEX_POINT('',#1402);
#398=VERTEX_POINT('',#1406);
#399=VERTEX_POINT('',#1410);
#400=VERTEX_POINT('',#1411);
#401=VERTEX_POINT('',#1413);
#402=VERTEX_POINT('',#1415);
#403=VERTEX_POINT('',#1417);
#404=VERTEX_POINT('',#1419);
#405=VERTEX_POINT('',#1421);
#406=VERTEX_POINT('',#1423);
#407=VERTEX_POINT('',#1427);
#408=VERTEX_POINT('',#1429);
#409=VERTEX_POINT('',#1433);
#410=VERTEX_POINT('',#1441);
#411=VERTEX_POINT('',#1443);
#412=VERTEX_POINT('',#1447);
#413=VERTEX_POINT('',#1451);
#414=VERTEX_POINT('',#1455);
#415=VERTEX_POINT('',#1459);
#416=VERTEX_POINT('',#1463);
#417=VERTEX_POINT('',#1467);
#418=VERTEX_POINT('',#1473);
#419=VERTEX_POINT('',#1475);
#420=VERTEX_POINT('',#1479);
#421=VERTEX_POINT('',#1483);
#422=VERTEX_POINT('',#1487);
#423=VERTEX_POINT('',#1491);
#424=VERTEX_POINT('',#1493);
#425=VERTEX_POINT('',#1498);
#426=EDGE_CURVE('',#354,#354,#298,.T.);
#427=EDGE_CURVE('',#354,#355,#178,.T.);
#428=EDGE_CURVE('',#355,#355,#299,.T.);
#429=EDGE_CURVE('',#356,#356,#300,.T.);
#430=EDGE_CURVE('',#356,#357,#179,.T.);
#431=EDGE_CURVE('',#357,#357,#301,.T.);
#432=EDGE_CURVE('',#358,#358,#302,.T.);
#433=EDGE_CURVE('',#358,#359,#180,.T.);
#434=EDGE_CURVE('',#359,#359,#303,.T.);
#435=EDGE_CURVE('',#360,#360,#304,.T.);
#436=EDGE_CURVE('',#360,#361,#181,.T.);
#437=EDGE_CURVE('',#361,#361,#305,.T.);
#438=EDGE_CURVE('',#362,#362,#306,.T.);
#439=EDGE_CURVE('',#362,#363,#182,.T.);
#440=EDGE_CURVE('',#363,#363,#307,.T.);
#441=EDGE_CURVE('',#364,#364,#308,.T.);
#442=EDGE_CURVE('',#364,#365,#183,.T.);
#443=EDGE_CURVE('',#365,#365,#309,.T.);
#444=EDGE_CURVE('',#366,#366,#310,.T.);
#445=EDGE_CURVE('',#366,#367,#184,.T.);
#446=EDGE_CURVE('',#367,#367,#311,.T.);
#447=EDGE_CURVE('',#368,#368,#312,.T.);
#448=EDGE_CURVE('',#368,#369,#185,.T.);
#449=EDGE_CURVE('',#369,#369,#313,.T.);
#450=EDGE_CURVE('',#370,#371,#186,.T.);
#451=EDGE_CURVE('',#370,#372,#187,.T.);
#452=EDGE_CURVE('',#373,#372,#188,.T.);
#453=EDGE_CURVE('',#371,#373,#189,.T.);
#454=EDGE_CURVE('',#372,#374,#190,.T.);
#455=EDGE_CURVE('',#374,#375,#191,.T.);
#456=EDGE_CURVE('',#373,#375,#192,.T.);
#457=EDGE_CURVE('',#376,#371,#193,.T.);
#458=EDGE_CURVE('',#377,#376,#194,.T.);
#459=EDGE_CURVE('',#377,#370,#195,.T.);
#460=EDGE_CURVE('',#375,#376,#196,.T.);
#461=EDGE_CURVE('',#374,#377,#197,.T.);
#462=EDGE_CURVE('',#378,#379,#314,.T.);
#463=EDGE_CURVE('',#379,#380,#315,.T.);
#464=EDGE_CURVE('',#380,#381,#316,.T.);
#465=EDGE_CURVE('',#381,#378,#317,.T.);
#466=EDGE_CURVE('',#382,#383,#318,.T.);
#467=EDGE_CURVE('',#383,#381,#198,.T.);
#468=EDGE_CURVE('',#380,#382,#199,.T.);
#469=EDGE_CURVE('',#384,#385,#319,.T.);
#470=EDGE_CURVE('',#385,#383,#320,.T.);
#471=EDGE_CURVE('',#382,#384,#321,.T.);
#472=EDGE_CURVE('',#386,#387,#322,.T.);
#473=EDGE_CURVE('',#387,#385,#200,.T.);
#474=EDGE_CURVE('',#384,#386,#201,.T.);
#475=EDGE_CURVE('',#388,#389,#323,.T.);
#476=EDGE_CURVE('',#389,#387,#324,.T.);
#477=EDGE_CURVE('',#386,#388,#325,.T.);
#478=EDGE_CURVE('',#390,#391,#326,.T.);
#479=EDGE_CURVE('',#391,#389,#202,.T.);
#480=EDGE_CURVE('',#388,#390,#203,.T.);
#481=EDGE_CURVE('',#392,#393,#327,.T.);
#482=EDGE_CURVE('',#393,#391,#328,.T.);
#483=EDGE_CURVE('',#390,#392,#329,.T.);
#484=EDGE_CURVE('',#392,#379,#204,.T.);
#485=EDGE_CURVE('',#378,#393,#205,.T.);
#486=EDGE_CURVE('',#394,#391,#206,.T.);
#487=EDGE_CURVE('',#395,#394,#207,.T.);
#488=EDGE_CURVE('',#389,#395,#208,.T.);
#489=EDGE_CURVE('',#393,#396,#209,.T.);
#490=EDGE_CURVE('',#396,#394,#330,.T.);
#491=EDGE_CURVE('',#397,#378,#210,.T.);
#492=EDGE_CURVE('',#396,#397,#211,.T.);
#493=EDGE_CURVE('',#381,#398,#212,.T.);
#494=EDGE_CURVE('',#398,#397,#331,.T.);
#495=EDGE_CURVE('',#399,#400,#213,.T.);
#496=EDGE_CURVE('',#401,#399,#332,.T.);
#497=EDGE_CURVE('',#402,#401,#214,.T.);
#498=EDGE_CURVE('',#403,#402,#333,.T.);
#499=EDGE_CURVE('',#404,#403,#215,.T.);
#500=EDGE_CURVE('',#405,#404,#334,.T.);
#501=EDGE_CURVE('',#406,#405,#216,.T.);
#502=EDGE_CURVE('',#400,#406,#335,.T.);
#503=EDGE_CURVE('',#385,#407,#217,.T.);
#504=EDGE_CURVE('',#407,#408,#336,.T.);
#505=EDGE_CURVE('',#408,#383,#218,.T.);
#506=EDGE_CURVE('',#409,#387,#219,.T.);
#507=EDGE_CURVE('',#407,#409,#220,.T.);
#508=EDGE_CURVE('',#395,#409,#337,.T.);
#509=EDGE_CURVE('',#398,#408,#221,.T.);
#510=EDGE_CURVE('',#410,#399,#338,.T.);
#511=EDGE_CURVE('',#400,#411,#339,.T.);
#512=EDGE_CURVE('',#411,#410,#222,.T.);
#513=EDGE_CURVE('',#406,#412,#340,.T.);
#514=EDGE_CURVE('',#412,#411,#341,.T.);
#515=EDGE_CURVE('',#405,#413,#342,.T.);
#516=EDGE_CURVE('',#413,#412,#223,.T.);
#517=EDGE_CURVE('',#404,#414,#343,.T.);
#518=EDGE_CURVE('',#414,#413,#344,.T.);
#519=EDGE_CURVE('',#403,#415,#345,.T.);
#520=EDGE_CURVE('',#415,#414,#224,.T.);
#521=EDGE_CURVE('',#402,#416,#346,.T.);
#522=EDGE_CURVE('',#416,#415,#347,.T.);
#523=EDGE_CURVE('',#401,#417,#348,.T.);
#524=EDGE_CURVE('',#417,#416,#225,.T.);
#525=EDGE_CURVE('',#410,#417,#349,.T.);
#526=EDGE_CURVE('',#416,#418,#226,.T.);
#527=EDGE_CURVE('',#418,#419,#350,.T.);
#528=EDGE_CURVE('',#419,#415,#227,.T.);
#529=EDGE_CURVE('',#420,#417,#228,.T.);
#530=EDGE_CURVE('',#418,#420,#229,.T.);
#531=EDGE_CURVE('',#410,#421,#230,.T.);
#532=EDGE_CURVE('',#421,#420,#351,.T.);
#533=EDGE_CURVE('',#422,#411,#231,.T.);
#534=EDGE_CURVE('',#421,#422,#232,.T.);
#535=EDGE_CURVE('',#414,#423,#233,.T.);
#536=EDGE_CURVE('',#423,#424,#352,.T.);
#537=EDGE_CURVE('',#424,#413,#234,.T.);
#538=EDGE_CURVE('',#423,#419,#235,.T.);
#539=EDGE_CURVE('',#425,#422,#353,.T.);
#540=EDGE_CURVE('',#425,#424,#236,.T.);
#541=EDGE_CURVE('',#412,#425,#237,.T.);
#542=ORIENTED_EDGE('',*,*,#426,.F.);
#543=ORIENTED_EDGE('',*,*,#427,.T.);
#544=ORIENTED_EDGE('',*,*,#428,.T.);
#545=ORIENTED_EDGE('',*,*,#427,.F.);
#546=ORIENTED_EDGE('',*,*,#428,.F.);
#547=ORIENTED_EDGE('',*,*,#429,.F.);
#548=ORIENTED_EDGE('',*,*,#430,.T.);
#549=ORIENTED_EDGE('',*,*,#431,.T.);
#550=ORIENTED_EDGE('',*,*,#430,.F.);
#551=ORIENTED_EDGE('',*,*,#431,.F.);
#552=ORIENTED_EDGE('',*,*,#432,.F.);
#553=ORIENTED_EDGE('',*,*,#433,.T.);
#554=ORIENTED_EDGE('',*,*,#434,.T.);
#555=ORIENTED_EDGE('',*,*,#433,.F.);
#556=ORIENTED_EDGE('',*,*,#434,.F.);
#557=ORIENTED_EDGE('',*,*,#435,.F.);
#558=ORIENTED_EDGE('',*,*,#436,.T.);
#559=ORIENTED_EDGE('',*,*,#437,.T.);
#560=ORIENTED_EDGE('',*,*,#436,.F.);
#561=ORIENTED_EDGE('',*,*,#437,.F.);
#562=ORIENTED_EDGE('',*,*,#438,.F.);
#563=ORIENTED_EDGE('',*,*,#439,.T.);
#564=ORIENTED_EDGE('',*,*,#440,.T.);
#565=ORIENTED_EDGE('',*,*,#439,.F.);
#566=ORIENTED_EDGE('',*,*,#440,.F.);
#567=ORIENTED_EDGE('',*,*,#441,.F.);
#568=ORIENTED_EDGE('',*,*,#442,.T.);
#569=ORIENTED_EDGE('',*,*,#443,.T.);
#570=ORIENTED_EDGE('',*,*,#442,.F.);
#571=ORIENTED_EDGE('',*,*,#443,.F.);
#572=ORIENTED_EDGE('',*,*,#444,.F.);
#573=ORIENTED_EDGE('',*,*,#445,.T.);
#574=ORIENTED_EDGE('',*,*,#446,.T.);
#575=ORIENTED_EDGE('',*,*,#445,.F.);
#576=ORIENTED_EDGE('',*,*,#446,.F.);
#577=ORIENTED_EDGE('',*,*,#447,.F.);
#578=ORIENTED_EDGE('',*,*,#448,.T.);
#579=ORIENTED_EDGE('',*,*,#449,.T.);
#580=ORIENTED_EDGE('',*,*,#448,.F.);
#581=ORIENTED_EDGE('',*,*,#449,.F.);
#582=ORIENTED_EDGE('',*,*,#450,.F.);
#583=ORIENTED_EDGE('',*,*,#451,.T.);
#584=ORIENTED_EDGE('',*,*,#452,.F.);
#585=ORIENTED_EDGE('',*,*,#453,.F.);
#586=ORIENTED_EDGE('',*,*,#452,.T.);
#587=ORIENTED_EDGE('',*,*,#454,.T.);
#588=ORIENTED_EDGE('',*,*,#455,.T.);
#589=ORIENTED_EDGE('',*,*,#456,.F.);
#590=ORIENTED_EDGE('',*,*,#450,.T.);
#591=ORIENTED_EDGE('',*,*,#457,.F.);
#592=ORIENTED_EDGE('',*,*,#458,.F.);
#593=ORIENTED_EDGE('',*,*,#459,.T.);
#594=ORIENTED_EDGE('',*,*,#458,.T.);
#595=ORIENTED_EDGE('',*,*,#460,.F.);
#596=ORIENTED_EDGE('',*,*,#455,.F.);
#597=ORIENTED_EDGE('',*,*,#461,.T.);
#598=ORIENTED_EDGE('',*,*,#462,.T.);
#599=ORIENTED_EDGE('',*,*,#463,.T.);
#600=ORIENTED_EDGE('',*,*,#464,.T.);
#601=ORIENTED_EDGE('',*,*,#465,.T.);
#602=ORIENTED_EDGE('',*,*,#466,.T.);
#603=ORIENTED_EDGE('',*,*,#467,.T.);
#604=ORIENTED_EDGE('',*,*,#464,.F.);
#605=ORIENTED_EDGE('',*,*,#468,.T.);
#606=ORIENTED_EDGE('',*,*,#469,.T.);
#607=ORIENTED_EDGE('',*,*,#470,.T.);
#608=ORIENTED_EDGE('',*,*,#466,.F.);
#609=ORIENTED_EDGE('',*,*,#471,.T.);
#610=ORIENTED_EDGE('',*,*,#472,.T.);
#611=ORIENTED_EDGE('',*,*,#473,.T.);
#612=ORIENTED_EDGE('',*,*,#469,.F.);
#613=ORIENTED_EDGE('',*,*,#474,.T.);
#614=ORIENTED_EDGE('',*,*,#475,.T.);
#615=ORIENTED_EDGE('',*,*,#476,.T.);
#616=ORIENTED_EDGE('',*,*,#472,.F.);
#617=ORIENTED_EDGE('',*,*,#477,.T.);
#618=ORIENTED_EDGE('',*,*,#478,.T.);
#619=ORIENTED_EDGE('',*,*,#479,.T.);
#620=ORIENTED_EDGE('',*,*,#475,.F.);
#621=ORIENTED_EDGE('',*,*,#480,.T.);
#622=ORIENTED_EDGE('',*,*,#481,.T.);
#623=ORIENTED_EDGE('',*,*,#482,.T.);
#624=ORIENTED_EDGE('',*,*,#478,.F.);
#625=ORIENTED_EDGE('',*,*,#483,.T.);
#626=ORIENTED_EDGE('',*,*,#481,.F.);
#627=ORIENTED_EDGE('',*,*,#484,.T.);
#628=ORIENTED_EDGE('',*,*,#462,.F.);
#629=ORIENTED_EDGE('',*,*,#485,.T.);
#630=ORIENTED_EDGE('',*,*,#479,.F.);
#631=ORIENTED_EDGE('',*,*,#486,.F.);
#632=ORIENTED_EDGE('',*,*,#487,.F.);
#633=ORIENTED_EDGE('',*,*,#488,.F.);
#634=ORIENTED_EDGE('',*,*,#482,.F.);
#635=ORIENTED_EDGE('',*,*,#489,.T.);
#636=ORIENTED_EDGE('',*,*,#490,.T.);
#637=ORIENTED_EDGE('',*,*,#486,.T.);
#638=ORIENTED_EDGE('',*,*,#485,.F.);
#639=ORIENTED_EDGE('',*,*,#491,.F.);
#640=ORIENTED_EDGE('',*,*,#492,.F.);
#641=ORIENTED_EDGE('',*,*,#489,.F.);
#642=ORIENTED_EDGE('',*,*,#465,.F.);
#643=ORIENTED_EDGE('',*,*,#493,.T.);
#644=ORIENTED_EDGE('',*,*,#494,.T.);
#645=ORIENTED_EDGE('',*,*,#491,.T.);
#646=ORIENTED_EDGE('',*,*,#495,.F.);
#647=ORIENTED_EDGE('',*,*,#496,.F.);
#648=ORIENTED_EDGE('',*,*,#497,.F.);
#649=ORIENTED_EDGE('',*,*,#498,.F.);
#650=ORIENTED_EDGE('',*,*,#499,.F.);
#651=ORIENTED_EDGE('',*,*,#500,.F.);
#652=ORIENTED_EDGE('',*,*,#501,.F.);
#653=ORIENTED_EDGE('',*,*,#502,.F.);
#654=ORIENTED_EDGE('',*,*,#463,.F.);
#655=ORIENTED_EDGE('',*,*,#484,.F.);
#656=ORIENTED_EDGE('',*,*,#483,.F.);
#657=ORIENTED_EDGE('',*,*,#480,.F.);
#658=ORIENTED_EDGE('',*,*,#477,.F.);
#659=ORIENTED_EDGE('',*,*,#474,.F.);
#660=ORIENTED_EDGE('',*,*,#471,.F.);
#661=ORIENTED_EDGE('',*,*,#468,.F.);
#662=ORIENTED_EDGE('',*,*,#470,.F.);
#663=ORIENTED_EDGE('',*,*,#503,.T.);
#664=ORIENTED_EDGE('',*,*,#504,.T.);
#665=ORIENTED_EDGE('',*,*,#505,.T.);
#666=ORIENTED_EDGE('',*,*,#473,.F.);
#667=ORIENTED_EDGE('',*,*,#506,.F.);
#668=ORIENTED_EDGE('',*,*,#507,.F.);
#669=ORIENTED_EDGE('',*,*,#503,.F.);
#670=ORIENTED_EDGE('',*,*,#476,.F.);
#671=ORIENTED_EDGE('',*,*,#488,.T.);
#672=ORIENTED_EDGE('',*,*,#508,.T.);
#673=ORIENTED_EDGE('',*,*,#506,.T.);
#674=ORIENTED_EDGE('',*,*,#467,.F.);
#675=ORIENTED_EDGE('',*,*,#505,.F.);
#676=ORIENTED_EDGE('',*,*,#509,.F.);
#677=ORIENTED_EDGE('',*,*,#493,.F.);
#678=ORIENTED_EDGE('',*,*,#510,.T.);
#679=ORIENTED_EDGE('',*,*,#495,.T.);
#680=ORIENTED_EDGE('',*,*,#511,.T.);
#681=ORIENTED_EDGE('',*,*,#512,.T.);
#682=ORIENTED_EDGE('',*,*,#513,.T.);
#683=ORIENTED_EDGE('',*,*,#514,.T.);
#684=ORIENTED_EDGE('',*,*,#511,.F.);
#685=ORIENTED_EDGE('',*,*,#502,.T.);
#686=ORIENTED_EDGE('',*,*,#515,.T.);
#687=ORIENTED_EDGE('',*,*,#516,.T.);
#688=ORIENTED_EDGE('',*,*,#513,.F.);
#689=ORIENTED_EDGE('',*,*,#501,.T.);
#690=ORIENTED_EDGE('',*,*,#517,.T.);
#691=ORIENTED_EDGE('',*,*,#518,.T.);
#692=ORIENTED_EDGE('',*,*,#515,.F.);
#693=ORIENTED_EDGE('',*,*,#500,.T.);
#694=ORIENTED_EDGE('',*,*,#519,.T.);
#695=ORIENTED_EDGE('',*,*,#520,.T.);
#696=ORIENTED_EDGE('',*,*,#517,.F.);
#697=ORIENTED_EDGE('',*,*,#499,.T.);
#698=ORIENTED_EDGE('',*,*,#521,.T.);
#699=ORIENTED_EDGE('',*,*,#522,.T.);
#700=ORIENTED_EDGE('',*,*,#519,.F.);
#701=ORIENTED_EDGE('',*,*,#498,.T.);
#702=ORIENTED_EDGE('',*,*,#523,.T.);
#703=ORIENTED_EDGE('',*,*,#524,.T.);
#704=ORIENTED_EDGE('',*,*,#521,.F.);
#705=ORIENTED_EDGE('',*,*,#497,.T.);
#706=ORIENTED_EDGE('',*,*,#510,.F.);
#707=ORIENTED_EDGE('',*,*,#525,.T.);
#708=ORIENTED_EDGE('',*,*,#523,.F.);
#709=ORIENTED_EDGE('',*,*,#496,.T.);
#710=ORIENTED_EDGE('',*,*,#522,.F.);
#711=ORIENTED_EDGE('',*,*,#526,.T.);
#712=ORIENTED_EDGE('',*,*,#527,.T.);
#713=ORIENTED_EDGE('',*,*,#528,.T.);
#714=ORIENTED_EDGE('',*,*,#524,.F.);
#715=ORIENTED_EDGE('',*,*,#529,.F.);
#716=ORIENTED_EDGE('',*,*,#530,.F.);
#717=ORIENTED_EDGE('',*,*,#526,.F.);
#718=ORIENTED_EDGE('',*,*,#525,.F.);
#719=ORIENTED_EDGE('',*,*,#531,.T.);
#720=ORIENTED_EDGE('',*,*,#532,.T.);
#721=ORIENTED_EDGE('',*,*,#529,.T.);
#722=ORIENTED_EDGE('',*,*,#512,.F.);
#723=ORIENTED_EDGE('',*,*,#533,.F.);
#724=ORIENTED_EDGE('',*,*,#534,.F.);
#725=ORIENTED_EDGE('',*,*,#531,.F.);
#726=ORIENTED_EDGE('',*,*,#518,.F.);
#727=ORIENTED_EDGE('',*,*,#535,.T.);
#728=ORIENTED_EDGE('',*,*,#536,.T.);
#729=ORIENTED_EDGE('',*,*,#537,.T.);
#730=ORIENTED_EDGE('',*,*,#536,.F.);
#731=ORIENTED_EDGE('',*,*,#538,.T.);
#732=ORIENTED_EDGE('',*,*,#527,.F.);
#733=ORIENTED_EDGE('',*,*,#530,.T.);
#734=ORIENTED_EDGE('',*,*,#532,.F.);
#735=ORIENTED_EDGE('',*,*,#534,.T.);
#736=ORIENTED_EDGE('',*,*,#539,.F.);
#737=ORIENTED_EDGE('',*,*,#540,.T.);
#738=ORIENTED_EDGE('',*,*,#426,.T.);
#739=ORIENTED_EDGE('',*,*,#429,.T.);
#740=ORIENTED_EDGE('',*,*,#432,.T.);
#741=ORIENTED_EDGE('',*,*,#435,.T.);
#742=ORIENTED_EDGE('',*,*,#438,.T.);
#743=ORIENTED_EDGE('',*,*,#441,.T.);
#744=ORIENTED_EDGE('',*,*,#444,.T.);
#745=ORIENTED_EDGE('',*,*,#447,.T.);
#746=ORIENTED_EDGE('',*,*,#459,.F.);
#747=ORIENTED_EDGE('',*,*,#461,.F.);
#748=ORIENTED_EDGE('',*,*,#454,.F.);
#749=ORIENTED_EDGE('',*,*,#451,.F.);
#750=ORIENTED_EDGE('',*,*,#520,.F.);
#751=ORIENTED_EDGE('',*,*,#528,.F.);
#752=ORIENTED_EDGE('',*,*,#538,.F.);
#753=ORIENTED_EDGE('',*,*,#535,.F.);
#754=ORIENTED_EDGE('',*,*,#514,.F.);
#755=ORIENTED_EDGE('',*,*,#541,.T.);
#756=ORIENTED_EDGE('',*,*,#539,.T.);
#757=ORIENTED_EDGE('',*,*,#533,.T.);
#758=ORIENTED_EDGE('',*,*,#516,.F.);
#759=ORIENTED_EDGE('',*,*,#537,.F.);
#760=ORIENTED_EDGE('',*,*,#540,.F.);
#761=ORIENTED_EDGE('',*,*,#541,.F.);
#762=ORIENTED_EDGE('',*,*,#453,.T.);
#763=ORIENTED_EDGE('',*,*,#456,.T.);
#764=ORIENTED_EDGE('',*,*,#460,.T.);
#765=ORIENTED_EDGE('',*,*,#457,.T.);
#766=ORIENTED_EDGE('',*,*,#487,.T.);
#767=ORIENTED_EDGE('',*,*,#490,.F.);
#768=ORIENTED_EDGE('',*,*,#492,.T.);
#769=ORIENTED_EDGE('',*,*,#494,.F.);
#770=ORIENTED_EDGE('',*,*,#509,.T.);
#771=ORIENTED_EDGE('',*,*,#504,.F.);
#772=ORIENTED_EDGE('',*,*,#507,.T.);
#773=ORIENTED_EDGE('',*,*,#508,.F.);
#774=CYLINDRICAL_SURFACE('',#867,2.54999999999999);
#775=CYLINDRICAL_SURFACE('',#871,2.54999999999999);
#776=CYLINDRICAL_SURFACE('',#875,2.54999999999999);
#777=CYLINDRICAL_SURFACE('',#879,2.54999999999999);
#778=CYLINDRICAL_SURFACE('',#883,2.54999999999999);
#779=CYLINDRICAL_SURFACE('',#887,2.55000000000003);
#780=CYLINDRICAL_SURFACE('',#891,2.55000000000001);
#781=CYLINDRICAL_SURFACE('',#895,2.55);
#782=CYLINDRICAL_SURFACE('',#908,3.);
#783=CYLINDRICAL_SURFACE('',#914,3.);
#784=CYLINDRICAL_SURFACE('',#920,3.);
#785=CYLINDRICAL_SURFACE('',#926,3.);
#786=CYLINDRICAL_SURFACE('',#928,2.);
#787=CYLINDRICAL_SURFACE('',#931,2.);
#788=CYLINDRICAL_SURFACE('',#938,2.);
#789=CYLINDRICAL_SURFACE('',#941,2.);
#790=CYLINDRICAL_SURFACE('',#944,3.);
#791=CYLINDRICAL_SURFACE('',#950,3.);
#792=CYLINDRICAL_SURFACE('',#955,3.);
#793=CYLINDRICAL_SURFACE('',#960,3.);
#794=CYLINDRICAL_SURFACE('',#964,10.);
#795=CYLINDRICAL_SURFACE('',#967,10.);
#796=CYLINDRICAL_SURFACE('',#970,10.);
#797=CYLINDRICAL_SURFACE('',#975,10.);
#798=ADVANCED_FACE('',(#57),#774,.F.);
#799=ADVANCED_FACE('',(#58),#34,.F.);
#800=ADVANCED_FACE('',(#59),#775,.F.);
#801=ADVANCED_FACE('',(#60),#35,.F.);
#802=ADVANCED_FACE('',(#61),#776,.F.);
#803=ADVANCED_FACE('',(#62),#36,.F.);
#804=ADVANCED_FACE('',(#63),#777,.F.);
#805=ADVANCED_FACE('',(#64),#37,.F.);
#806=ADVANCED_FACE('',(#65),#778,.F.);
#807=ADVANCED_FACE('',(#66),#38,.F.);
#808=ADVANCED_FACE('',(#67),#779,.F.);
#809=ADVANCED_FACE('',(#68),#39,.F.);
#810=ADVANCED_FACE('',(#69),#780,.F.);
#811=ADVANCED_FACE('',(#70),#40,.F.);
#812=ADVANCED_FACE('',(#71),#781,.F.);
#813=ADVANCED_FACE('',(#72),#41,.F.);
#814=ADVANCED_FACE('',(#73),#42,.T.);
#815=ADVANCED_FACE('',(#74),#43,.T.);
#816=ADVANCED_FACE('',(#75),#44,.T.);
#817=ADVANCED_FACE('',(#76),#45,.T.);
#818=ADVANCED_FACE('',(#77),#26,.T.);
#819=ADVANCED_FACE('',(#78),#782,.T.);
#820=ADVANCED_FACE('',(#79),#27,.T.);
#821=ADVANCED_FACE('',(#80),#783,.T.);
#822=ADVANCED_FACE('',(#81),#28,.T.);
#823=ADVANCED_FACE('',(#82),#784,.T.);
#824=ADVANCED_FACE('',(#83),#29,.T.);
#825=ADVANCED_FACE('',(#84),#785,.T.);
#826=ADVANCED_FACE('',(#85),#46,.T.);
#827=ADVANCED_FACE('',(#86),#786,.F.);
#828=ADVANCED_FACE('',(#87),#47,.T.);
#829=ADVANCED_FACE('',(#88),#787,.F.);
#830=ADVANCED_FACE('',(#89,#15),#48,.T.);
#831=ADVANCED_FACE('',(#90),#788,.F.);
#832=ADVANCED_FACE('',(#91),#49,.T.);
#833=ADVANCED_FACE('',(#92),#789,.F.);
#834=ADVANCED_FACE('',(#93),#50,.T.);
#835=ADVANCED_FACE('',(#94),#790,.T.);
#836=ADVANCED_FACE('',(#95),#30,.T.);
#837=ADVANCED_FACE('',(#96),#791,.T.);
#838=ADVANCED_FACE('',(#97),#31,.T.);
#839=ADVANCED_FACE('',(#98),#792,.T.);
#840=ADVANCED_FACE('',(#99),#32,.T.);
#841=ADVANCED_FACE('',(#100),#793,.T.);
#842=ADVANCED_FACE('',(#101),#33,.T.);
#843=ADVANCED_FACE('',(#102),#794,.T.);
#844=ADVANCED_FACE('',(#103),#51,.T.);
#845=ADVANCED_FACE('',(#104),#795,.T.);
#846=ADVANCED_FACE('',(#105),#52,.T.);
#847=ADVANCED_FACE('',(#106),#796,.T.);
#848=ADVANCED_FACE('',(#107,#16,#17,#18,#19,#20,#21,#22,#23,#24),#53,.T.);
#849=ADVANCED_FACE('',(#108),#54,.T.);
#850=ADVANCED_FACE('',(#109),#797,.T.);
#851=ADVANCED_FACE('',(#110),#55,.T.);
#852=ADVANCED_FACE('',(#111,#25),#56,.T.);
#853=CLOSED_SHELL('',(#798,#799,#800,#801,#802,#803,#804,#805,#806,#807,
#808,#809,#810,#811,#812,#813,#814,#815,#816,#817,#818,#819,#820,#821,#822,
#823,#824,#825,#826,#827,#828,#829,#830,#831,#832,#833,#834,#835,#836,#837,
#838,#839,#840,#841,#842,#843,#844,#845,#846,#847,#848,#849,#850,#851,#852));
#854=DERIVED_UNIT_ELEMENT(#856,1.);
#855=DERIVED_UNIT_ELEMENT(#1511,-3.);
#856=(
MASS_UNIT()
NAMED_UNIT(*)
SI_UNIT(.KILO.,.GRAM.)
);
#857=DERIVED_UNIT((#854,#855));
#858=MEASURE_REPRESENTATION_ITEM('density measure',
POSITIVE_RATIO_MEASURE(7850.),#857);
#859=PROPERTY_DEFINITION_REPRESENTATION(#864,#861);
#860=PROPERTY_DEFINITION_REPRESENTATION(#865,#862);
#861=REPRESENTATION('material name',(#863),#1508);
#862=REPRESENTATION('density',(#858),#1508);
#863=DESCRIPTIVE_REPRESENTATION_ITEM('Steel','Steel');
#864=PROPERTY_DEFINITION('material property','material name',#1518);
#865=PROPERTY_DEFINITION('material property','density of part',#1518);
#866=AXIS2_PLACEMENT_3D('',#1262,#978,#979);
#867=AXIS2_PLACEMENT_3D('',#1263,#980,#981);
#868=AXIS2_PLACEMENT_3D('',#1265,#982,#983);
#869=AXIS2_PLACEMENT_3D('',#1268,#985,#986);
#870=AXIS2_PLACEMENT_3D('',#1269,#987,#988);
#871=AXIS2_PLACEMENT_3D('',#1270,#989,#990);
#872=AXIS2_PLACEMENT_3D('',#1272,#991,#992);
#873=AXIS2_PLACEMENT_3D('',#1275,#994,#995);
#874=AXIS2_PLACEMENT_3D('',#1276,#996,#997);
#875=AXIS2_PLACEMENT_3D('',#1277,#998,#999);
#876=AXIS2_PLACEMENT_3D('',#1279,#1000,#1001);
#877=AXIS2_PLACEMENT_3D('',#1282,#1003,#1004);
#878=AXIS2_PLACEMENT_3D('',#1283,#1005,#1006);
#879=AXIS2_PLACEMENT_3D('',#1284,#1007,#1008);
#880=AXIS2_PLACEMENT_3D('',#1286,#1009,#1010);
#881=AXIS2_PLACEMENT_3D('',#1289,#1012,#1013);
#882=AXIS2_PLACEMENT_3D('',#1290,#1014,#1015);
#883=AXIS2_PLACEMENT_3D('',#1291,#1016,#1017);
#884=AXIS2_PLACEMENT_3D('',#1293,#1018,#1019);
#885=AXIS2_PLACEMENT_3D('',#1296,#1021,#1022);
#886=AXIS2_PLACEMENT_3D('',#1297,#1023,#1024);
#887=AXIS2_PLACEMENT_3D('',#1298,#1025,#1026);
#888=AXIS2_PLACEMENT_3D('',#1300,#1027,#1028);
#889=AXIS2_PLACEMENT_3D('',#1303,#1030,#1031);
#890=AXIS2_PLACEMENT_3D('',#1304,#1032,#1033);
#891=AXIS2_PLACEMENT_3D('',#1305,#1034,#1035);
#892=AXIS2_PLACEMENT_3D('',#1307,#1036,#1037);
#893=AXIS2_PLACEMENT_3D('',#1310,#1039,#1040);
#894=AXIS2_PLACEMENT_3D('',#1311,#1041,#1042);
#895=AXIS2_PLACEMENT_3D('',#1312,#1043,#1044);
#896=AXIS2_PLACEMENT_3D('',#1314,#1045,#1046);
#897=AXIS2_PLACEMENT_3D('',#1317,#1048,#1049);
#898=AXIS2_PLACEMENT_3D('',#1318,#1050,#1051);
#899=AXIS2_PLACEMENT_3D('',#1319,#1052,#1053);
#900=AXIS2_PLACEMENT_3D('',#1328,#1058,#1059);
#901=AXIS2_PLACEMENT_3D('',#1334,#1063,#1064);
#902=AXIS2_PLACEMENT_3D('',#1340,#1068,#1069);
#903=AXIS2_PLACEMENT_3D('',#1343,#1072,#1073);
#904=AXIS2_PLACEMENT_3D('',#1346,#1074,#1075);
#905=AXIS2_PLACEMENT_3D('',#1348,#1076,#1077);
#906=AXIS2_PLACEMENT_3D('',#1350,#1078,#1079);
#907=AXIS2_PLACEMENT_3D('',#1351,#1080,#1081);
#908=AXIS2_PLACEMENT_3D('',#1352,#1082,#1083);
#909=AXIS2_PLACEMENT_3D('',#1355,#1084,#1085);
#910=AXIS2_PLACEMENT_3D('',#1358,#1088,#1089);
#911=AXIS2_PLACEMENT_3D('',#1361,#1090,#1091);
#912=AXIS2_PLACEMENT_3D('',#1362,#1092,#1093);
#913=AXIS2_PLACEMENT_3D('',#1363,#1094,#1095);
#914=AXIS2_PLACEMENT_3D('',#1364,#1096,#1097);
#915=AXIS2_PLACEMENT_3D('',#1367,#1098,#1099);
#916=AXIS2_PLACEMENT_3D('',#1370,#1102,#1103);
#917=AXIS2_PLACEMENT_3D('',#1373,#1104,#1105);
#918=AXIS2_PLACEMENT_3D('',#1374,#1106,#1107);
#919=AXIS2_PLACEMENT_3D('',#1375,#1108,#1109);
#920=AXIS2_PLACEMENT_3D('',#1376,#1110,#1111);
#921=AXIS2_PLACEMENT_3D('',#1379,#1112,#1113);
#922=AXIS2_PLACEMENT_3D('',#1382,#1116,#1117);
#923=AXIS2_PLACEMENT_3D('',#1385,#1118,#1119);
#924=AXIS2_PLACEMENT_3D('',#1386,#1120,#1121);
#925=AXIS2_PLACEMENT_3D('',#1387,#1122,#1123);
#926=AXIS2_PLACEMENT_3D('',#1388,#1124,#1125);
#927=AXIS2_PLACEMENT_3D('',#1391,#1128,#1129);
#928=AXIS2_PLACEMENT_3D('',#1397,#1133,#1134);
#929=AXIS2_PLACEMENT_3D('',#1400,#1136,#1137);
#930=AXIS2_PLACEMENT_3D('',#1401,#1138,#1139);
#931=AXIS2_PLACEMENT_3D('',#1405,#1142,#1143);
#932=AXIS2_PLACEMENT_3D('',#1408,#1145,#1146);
#933=AXIS2_PLACEMENT_3D('',#1409,#1147,#1148);
#934=AXIS2_PLACEMENT_3D('',#1414,#1150,#1151);
#935=AXIS2_PLACEMENT_3D('',#1418,#1153,#1154);
#936=AXIS2_PLACEMENT_3D('',#1422,#1156,#1157);
#937=AXIS2_PLACEMENT_3D('',#1425,#1159,#1160);
#938=AXIS2_PLACEMENT_3D('',#1426,#1161,#1162);
#939=AXIS2_PLACEMENT_3D('',#1430,#1164,#1165);
#940=AXIS2_PLACEMENT_3D('',#1432,#1167,#1168);
#941=AXIS2_PLACEMENT_3D('',#1436,#1171,#1172);
#942=AXIS2_PLACEMENT_3D('',#1437,#1173,#1174);
#943=AXIS2_PLACEMENT_3D('',#1438,#1175,#1176);
#944=AXIS2_PLACEMENT_3D('',#1440,#1178,#1179);
#945=AXIS2_PLACEMENT_3D('',#1442,#1180,#1181);
#946=AXIS2_PLACEMENT_3D('',#1444,#1182,#1183);
#947=AXIS2_PLACEMENT_3D('',#1446,#1185,#1186);
#948=AXIS2_PLACEMENT_3D('',#1448,#1187,#1188);
#949=AXIS2_PLACEMENT_3D('',#1449,#1189,#1190);
#950=AXIS2_PLACEMENT_3D('',#1450,#1191,#1192);
#951=AXIS2_PLACEMENT_3D('',#1452,#1193,#1194);
#952=AXIS2_PLACEMENT_3D('',#1454,#1196,#1197);
#953=AXIS2_PLACEMENT_3D('',#1456,#1198,#1199);
#954=AXIS2_PLACEMENT_3D('',#1457,#1200,#1201);
#955=AXIS2_PLACEMENT_3D('',#1458,#1202,#1203);
#956=AXIS2_PLACEMENT_3D('',#1460,#1204,#1205);
#957=AXIS2_PLACEMENT_3D('',#1462,#1207,#1208);
#958=AXIS2_PLACEMENT_3D('',#1464,#1209,#1210);
#959=AXIS2_PLACEMENT_3D('',#1465,#1211,#1212);
#960=AXIS2_PLACEMENT_3D('',#1466,#1213,#1214);
#961=AXIS2_PLACEMENT_3D('',#1468,#1215,#1216);
#962=AXIS2_PLACEMENT_3D('',#1470,#1218,#1219);
#963=AXIS2_PLACEMENT_3D('',#1471,#1220,#1221);
#964=AXIS2_PLACEMENT_3D('',#1472,#1222,#1223);
#965=AXIS2_PLACEMENT_3D('',#1476,#1225,#1226);
#966=AXIS2_PLACEMENT_3D('',#1478,#1228,#1229);
#967=AXIS2_PLACEMENT_3D('',#1482,#1232,#1233);
#968=AXIS2_PLACEMENT_3D('',#1485,#1235,#1236);
#969=AXIS2_PLACEMENT_3D('',#1486,#1237,#1238);
#970=AXIS2_PLACEMENT_3D('',#1490,#1241,#1242);
#971=AXIS2_PLACEMENT_3D('',#1494,#1244,#1245);
#972=AXIS2_PLACEMENT_3D('',#1496,#1247,#1248);
#973=AXIS2_PLACEMENT_3D('',#1499,#1250,#1251);
#974=AXIS2_PLACEMENT_3D('',#1501,#1253,#1254);
#975=AXIS2_PLACEMENT_3D('',#1502,#1255,#1256);
#976=AXIS2_PLACEMENT_3D('',#1504,#1258,#1259);
#977=AXIS2_PLACEMENT_3D('',#1505,#1260,#1261);
#978=DIRECTION('axis',(0.,0.,1.));
#979=DIRECTION('refdir',(1.,0.,0.));
#980=DIRECTION('center_axis',(0.,0.,1.));
#981=DIRECTION('ref_axis',(1.,0.,0.));
#982=DIRECTION('center_axis',(0.,0.,1.));
#983=DIRECTION('ref_axis',(1.,0.,0.));
#984=DIRECTION('',(0.,0.,1.));
#985=DIRECTION('center_axis',(0.,0.,1.));
#986=DIRECTION('ref_axis',(1.,0.,0.));
#987=DIRECTION('center_axis',(0.,0.,1.));
#988=DIRECTION('ref_axis',(1.,0.,0.));
#989=DIRECTION('center_axis',(0.,0.,1.));
#990=DIRECTION('ref_axis',(1.,0.,0.));
#991=DIRECTION('center_axis',(0.,0.,1.));
#992=DIRECTION('ref_axis',(1.,0.,0.));
#993=DIRECTION('',(0.,0.,1.));
#994=DIRECTION('center_axis',(0.,0.,1.));
#995=DIRECTION('ref_axis',(1.,0.,0.));
#996=DIRECTION('center_axis',(0.,0.,1.));
#997=DIRECTION('ref_axis',(1.,0.,0.));
#998=DIRECTION('center_axis',(0.,0.,1.));
#999=DIRECTION('ref_axis',(1.,0.,0.));
#1000=DIRECTION('center_axis',(0.,0.,1.));
#1001=DIRECTION('ref_axis',(1.,0.,0.));
#1002=DIRECTION('',(0.,0.,1.));
#1003=DIRECTION('center_axis',(0.,0.,1.));
#1004=DIRECTION('ref_axis',(1.,0.,0.));
#1005=DIRECTION('center_axis',(0.,0.,1.));
#1006=DIRECTION('ref_axis',(1.,0.,0.));
#1007=DIRECTION('center_axis',(0.,0.,1.));
#1008=DIRECTION('ref_axis',(1.,0.,0.));
#1009=DIRECTION('center_axis',(0.,0.,1.));
#1010=DIRECTION('ref_axis',(1.,0.,0.));
#1011=DIRECTION('',(0.,0.,1.));
#1012=DIRECTION('center_axis',(0.,0.,1.));
#1013=DIRECTION('ref_axis',(1.,0.,0.));
#1014=DIRECTION('center_axis',(0.,0.,1.));
#1015=DIRECTION('ref_axis',(1.,0.,0.));
#1016=DIRECTION('center_axis',(0.,0.,1.));
#1017=DIRECTION('ref_axis',(1.,0.,0.));
#1018=DIRECTION('center_axis',(0.,0.,1.));
#1019=DIRECTION('ref_axis',(1.,0.,0.));
#1020=DIRECTION('',(0.,0.,1.));
#1021=DIRECTION('center_axis',(0.,0.,1.));
#1022=DIRECTION('ref_axis',(1.,0.,0.));
#1023=DIRECTION('center_axis',(0.,0.,1.));
#1024=DIRECTION('ref_axis',(1.,0.,0.));
#1025=DIRECTION('center_axis',(0.,0.,1.));
#1026=DIRECTION('ref_axis',(1.,0.,0.));
#1027=DIRECTION('center_axis',(0.,0.,1.));
#1028=DIRECTION('ref_axis',(1.,0.,0.));
#1029=DIRECTION('',(0.,0.,1.));
#1030=DIRECTION('center_axis',(0.,0.,1.));
#1031=DIRECTION('ref_axis',(1.,0.,0.));
#1032=DIRECTION('center_axis',(0.,0.,1.));
#1033=DIRECTION('ref_axis',(1.,0.,0.));
#1034=DIRECTION('center_axis',(0.,0.,1.));
#1035=DIRECTION('ref_axis',(1.,0.,0.));
#1036=DIRECTION('center_axis',(0.,0.,1.));
#1037=DIRECTION('ref_axis',(1.,0.,0.));
#1038=DIRECTION('',(0.,0.,1.));
#1039=DIRECTION('center_axis',(0.,0.,1.));
#1040=DIRECTION('ref_axis',(1.,0.,0.));
#1041=DIRECTION('center_axis',(0.,0.,1.));
#1042=DIRECTION('ref_axis',(1.,0.,0.));
#1043=DIRECTION('center_axis',(0.,0.,1.));
#1044=DIRECTION('ref_axis',(1.,0.,0.));
#1045=DIRECTION('center_axis',(0.,0.,1.));
#1046=DIRECTION('ref_axis',(1.,0.,0.));
#1047=DIRECTION('',(0.,0.,1.));
#1048=DIRECTION('center_axis',(0.,0.,1.));
#1049=DIRECTION('ref_axis',(1.,0.,0.));
#1050=DIRECTION('center_axis',(0.,0.,1.));
#1051=DIRECTION('ref_axis',(1.,0.,0.));
#1052=DIRECTION('center_axis',(1.,0.,0.));
#1053=DIRECTION('ref_axis',(0.,0.,-1.));
#1054=DIRECTION('',(0.,0.,1.));
#1055=DIRECTION('',(0.,1.,0.));
#1056=DIRECTION('',(0.,0.,-1.));
#1057=DIRECTION('',(0.,1.,0.));
#1058=DIRECTION('center_axis',(0.,-1.,0.));
#1059=DIRECTION('ref_axis',(0.,0.,-1.));
#1060=DIRECTION('',(1.,0.,0.));
#1061=DIRECTION('',(0.,0.,1.));
#1062=DIRECTION('',(1.,0.,0.));
#1063=DIRECTION('center_axis',(0.,1.,0.));
#1064=DIRECTION('ref_axis',(0.,0.,1.));
#1065=DIRECTION('',(-1.,0.,0.));
#1066=DIRECTION('',(0.,0.,1.));
#1067=DIRECTION('',(-1.,0.,0.));
#1068=DIRECTION('center_axis',(-1.,0.,0.));
#1069=DIRECTION('ref_axis',(0.,0.,1.));
#1070=DIRECTION('',(0.,-1.,0.));
#1071=DIRECTION('',(0.,-1.,0.));
#1072=DIRECTION('center_axis',(0.,0.,1.));
#1073=DIRECTION('ref_axis',(1.,0.,0.));
#1074=DIRECTION('center_axis',(0.,1.,0.));
#1075=DIRECTION('ref_axis',(-1.,0.,0.));
#1076=DIRECTION('center_axis',(0.,0.,1.));
#1077=DIRECTION('ref_axis',(0.707106781186547,0.707106781186548,0.));
#1078=DIRECTION('center_axis',(1.,0.,0.));
#1079=DIRECTION('ref_axis',(0.,0.,1.));
#1080=DIRECTION('center_axis',(0.,0.,-1.));
#1081=DIRECTION('ref_axis',(0.707106781186547,0.707106781186548,0.));
#1082=DIRECTION('center_axis',(1.,0.,0.));
#1083=DIRECTION('ref_axis',(0.,-0.707106781186547,0.707106781186548));
#1084=DIRECTION('center_axis',(1.,0.,0.));
#1085=DIRECTION('ref_axis',(0.,0.,1.));
#1086=DIRECTION('',(1.,0.,0.));
#1087=DIRECTION('',(-1.,0.,0.));
#1088=DIRECTION('center_axis',(0.,0.,1.));
#1089=DIRECTION('ref_axis',(1.,0.,0.));
#1090=DIRECTION('center_axis',(0.,1.,0.));
#1091=DIRECTION('ref_axis',(0.,0.,1.));
#1092=DIRECTION('center_axis',(0.,0.,-1.));
#1093=DIRECTION('ref_axis',(-0.707106781186546,0.707106781186549,0.));
#1094=DIRECTION('center_axis',(0.,0.,1.));
#1095=DIRECTION('ref_axis',(-0.707106781186546,0.707106781186549,0.));
#1096=DIRECTION('center_axis',(0.,1.,0.));
#1097=DIRECTION('ref_axis',(0.707106781186546,0.,0.707106781186549));
#1098=DIRECTION('center_axis',(-5.92118946466752E-15,1.,0.));
#1099=DIRECTION('ref_axis',(0.,0.,1.));
#1100=DIRECTION('',(0.,1.,0.));
#1101=DIRECTION('',(0.,-1.,0.));
#1102=DIRECTION('center_axis',(0.,0.,1.));
#1103=DIRECTION('ref_axis',(1.,0.,0.));
#1104=DIRECTION('center_axis',(-1.,0.,0.));
#1105=DIRECTION('ref_axis',(0.,0.,1.));
#1106=DIRECTION('center_axis',(0.,0.,-1.));
#1107=DIRECTION('ref_axis',(-0.707106781186548,-0.707106781186548,0.));
#1108=DIRECTION('center_axis',(0.,0.,1.));
#1109=DIRECTION('ref_axis',(-0.707106781186548,-0.707106781186548,0.));
#1110=DIRECTION('center_axis',(-1.,0.,0.));
#1111=DIRECTION('ref_axis',(0.,0.707106781186548,0.707106781186547));
#1112=DIRECTION('center_axis',(-1.,0.,0.));
#1113=DIRECTION('ref_axis',(0.,0.,1.));
#1114=DIRECTION('',(-1.,0.,0.));
#1115=DIRECTION('',(1.,0.,0.));
#1116=DIRECTION('center_axis',(0.,0.,1.));
#1117=DIRECTION('ref_axis',(1.,0.,0.));
#1118=DIRECTION('center_axis',(0.,-1.,0.));
#1119=DIRECTION('ref_axis',(0.,0.,1.));
#1120=DIRECTION('center_axis',(0.,0.,-1.));
#1121=DIRECTION('ref_axis',(0.707106781186548,-0.707106781186548,0.));
#1122=DIRECTION('center_axis',(0.,0.,1.));
#1123=DIRECTION('ref_axis',(0.707106781186547,-0.707106781186547,0.));
#1124=DIRECTION('center_axis',(0.,-1.,0.));
#1125=DIRECTION('ref_axis',(-0.707106781186544,0.,0.707106781186551));
#1126=DIRECTION('',(0.,1.,0.));
#1127=DIRECTION('',(0.,-1.,0.));
#1128=DIRECTION('center_axis',(0.,1.,0.));
#1129=DIRECTION('ref_axis',(1.,0.,0.));
#1130=DIRECTION('',(0.,0.,1.));
#1131=DIRECTION('',(1.,0.,0.));
#1132=DIRECTION('',(0.,0.,-1.));
#1133=DIRECTION('center_axis',(0.,0.,-1.));
#1134=DIRECTION('ref_axis',(0.707106781186554,-0.707106781186541,0.));
#1135=DIRECTION('',(0.,0.,-1.));
#1136=DIRECTION('center_axis',(0.,0.,-1.));
#1137=DIRECTION('ref_axis',(0.707106781186554,-0.707106781186541,0.));
#1138=DIRECTION('center_axis',(-1.,0.,0.));
#1139=DIRECTION('ref_axis',(0.,1.,0.));
#1140=DIRECTION('',(0.,0.,1.));
#1141=DIRECTION('',(0.,1.,0.));
#1142=DIRECTION('center_axis',(0.,0.,-1.));
#1143=DIRECTION('ref_axis',(0.707106781186552,0.707106781186543,0.));
#1144=DIRECTION('',(0.,0.,-1.));
#1145=DIRECTION('center_axis',(0.,0.,-1.));
#1146=DIRECTION('ref_axis',(0.707106781186552,0.707106781186543,0.));
#1147=DIRECTION('center_axis',(0.,0.,1.));
#1148=DIRECTION('ref_axis',(1.,0.,0.));
#1149=DIRECTION('',(-1.,0.,0.));
#1150=DIRECTION('center_axis',(0.,0.,-1.));
#1151=DIRECTION('ref_axis',(0.707106781186547,-0.707106781186548,0.));
#1152=DIRECTION('',(0.,-1.,0.));
#1153=DIRECTION('center_axis',(0.,0.,-1.));
#1154=DIRECTION('ref_axis',(0.707106781186547,0.707106781186548,0.));
#1155=DIRECTION('',(1.,0.,0.));
#1156=DIRECTION('center_axis',(0.,0.,-1.));
#1157=DIRECTION('ref_axis',(-0.707106781186547,0.707106781186548,0.));
#1158=DIRECTION('',(0.,1.,0.));
#1159=DIRECTION('center_axis',(0.,0.,-1.));
#1160=DIRECTION('ref_axis',(-0.707106781186547,-0.707106781186547,0.));
#1161=DIRECTION('center_axis',(0.,0.,-1.));
#1162=DIRECTION('ref_axis',(-0.707106781186549,0.707106781186546,0.));
#1163=DIRECTION('',(0.,0.,-1.));
#1164=DIRECTION('center_axis',(0.,0.,-1.));
#1165=DIRECTION('ref_axis',(-0.707106781186549,0.707106781186546,0.));
#1166=DIRECTION('',(0.,0.,1.));
#1167=DIRECTION('center_axis',(1.,0.,0.));
#1168=DIRECTION('ref_axis',(0.,-1.,0.));
#1169=DIRECTION('',(0.,0.,1.));
#1170=DIRECTION('',(0.,-1.,0.));
#1171=DIRECTION('center_axis',(0.,0.,-1.));
#1172=DIRECTION('ref_axis',(-0.707106781186551,-0.707106781186544,0.));
#1173=DIRECTION('center_axis',(0.,0.,-1.));
#1174=DIRECTION('ref_axis',(-0.707106781186551,-0.707106781186544,0.));
#1175=DIRECTION('center_axis',(0.,-1.,0.));
#1176=DIRECTION('ref_axis',(-1.,0.,0.));
#1177=DIRECTION('',(-1.,0.,0.));
#1178=DIRECTION('center_axis',(-1.,0.,0.));
#1179=DIRECTION('ref_axis',(0.,-0.707106781186548,0.707106781186547));
#1180=DIRECTION('center_axis',(-1.,0.,0.));
#1181=DIRECTION('ref_axis',(0.,-1.,0.));
#1182=DIRECTION('center_axis',(1.,0.,0.));
#1183=DIRECTION('ref_axis',(0.,0.,1.));
#1184=DIRECTION('',(1.,0.,0.));
#1185=DIRECTION('center_axis',(0.,0.,-1.));
#1186=DIRECTION('ref_axis',(-1.,0.,0.));
#1187=DIRECTION('center_axis',(0.,-1.,0.));
#1188=DIRECTION('ref_axis',(0.,0.,1.));
#1189=DIRECTION('center_axis',(0.,0.,1.));
#1190=DIRECTION('ref_axis',(-0.707106781186547,-0.707106781186547,0.));
#1191=DIRECTION('center_axis',(0.,1.,0.));
#1192=DIRECTION('ref_axis',(-0.707106781186548,0.,0.707106781186547));
#1193=DIRECTION('center_axis',(0.,-1.,0.));
#1194=DIRECTION('ref_axis',(0.,0.,1.));
#1195=DIRECTION('',(0.,-1.,0.));
#1196=DIRECTION('center_axis',(0.,0.,-1.));
#1197=DIRECTION('ref_axis',(-1.,0.,0.));
#1198=DIRECTION('center_axis',(-1.,0.,0.));
#1199=DIRECTION('ref_axis',(0.,0.,1.));
#1200=DIRECTION('center_axis',(0.,0.,1.));
#1201=DIRECTION('ref_axis',(-0.707106781186547,0.707106781186548,0.));
#1202=DIRECTION('center_axis',(1.,0.,0.));
#1203=DIRECTION('ref_axis',(0.,0.707106781186547,0.707106781186548));
#1204=DIRECTION('center_axis',(-1.,0.,0.));
#1205=DIRECTION('ref_axis',(0.,0.,1.));
#1206=DIRECTION('',(-1.,0.,0.));
#1207=DIRECTION('center_axis',(0.,0.,-1.));
#1208=DIRECTION('ref_axis',(-1.,0.,0.));
#1209=DIRECTION('center_axis',(0.,1.,0.));
#1210=DIRECTION('ref_axis',(0.,0.,1.));
#1211=DIRECTION('center_axis',(0.,0.,1.));
#1212=DIRECTION('ref_axis',(0.707106781186547,0.707106781186548,0.));
#1213=DIRECTION('center_axis',(0.,-1.,0.));
#1214=DIRECTION('ref_axis',(0.707106781186544,0.,0.707106781186551));
#1215=DIRECTION('center_axis',(0.,1.,0.));
#1216=DIRECTION('ref_axis',(0.,0.,1.));
#1217=DIRECTION('',(0.,1.,0.));
#1218=DIRECTION('center_axis',(0.,0.,-1.));
#1219=DIRECTION('ref_axis',(-1.,0.,0.));
#1220=DIRECTION('center_axis',(0.,0.,1.));
#1221=DIRECTION('ref_axis',(0.707106781186547,-0.707106781186548,0.));
#1222=DIRECTION('center_axis',(0.,0.,-1.));
#1223=DIRECTION('ref_axis',(0.707106781186547,0.707106781186547,0.));
#1224=DIRECTION('',(0.,0.,-1.));
#1225=DIRECTION('center_axis',(0.,0.,1.));
#1226=DIRECTION('ref_axis',(0.707106781186547,0.707106781186547,0.));
#1227=DIRECTION('',(0.,0.,1.));
#1228=DIRECTION('center_axis',(1.,0.,0.));
#1229=DIRECTION('ref_axis',(0.,-1.,0.));
#1230=DIRECTION('',(0.,0.,1.));
#1231=DIRECTION('',(0.,-1.,0.));
#1232=DIRECTION('center_axis',(0.,0.,-1.));
#1233=DIRECTION('ref_axis',(0.707106781186547,-0.707106781186547,0.));
#1234=DIRECTION('',(0.,0.,-1.));
#1235=DIRECTION('center_axis',(0.,0.,1.));
#1236=DIRECTION('ref_axis',(0.707106781186547,-0.707106781186547,0.));
#1237=DIRECTION('center_axis',(0.,-1.,0.));
#1238=DIRECTION('ref_axis',(-1.,0.,0.));
#1239=DIRECTION('',(0.,0.,1.));
#1240=DIRECTION('',(-1.,0.,0.));
#1241=DIRECTION('center_axis',(0.,0.,-1.));
#1242=DIRECTION('ref_axis',(-0.707106781186547,0.707106781186547,0.));
#1243=DIRECTION('',(0.,0.,-1.));
#1244=DIRECTION('center_axis',(0.,0.,1.));
#1245=DIRECTION('ref_axis',(-0.707106781186547,0.707106781186547,0.));
#1246=DIRECTION('',(0.,0.,1.));
#1247=DIRECTION('center_axis',(0.,0.,-1.));
#1248=DIRECTION('ref_axis',(-1.,0.,0.));
#1249=DIRECTION('',(1.,0.,0.));
#1250=DIRECTION('center_axis',(0.,0.,1.));
#1251=DIRECTION('ref_axis',(-0.707106781186547,-0.707106781186547,0.));
#1252=DIRECTION('',(0.,1.,0.));
#1253=DIRECTION('center_axis',(0.,1.,0.));
#1254=DIRECTION('ref_axis',(1.,0.,0.));
#1255=DIRECTION('center_axis',(0.,0.,-1.));
#1256=DIRECTION('ref_axis',(-0.707106781186547,-0.707106781186547,0.));
#1257=DIRECTION('',(0.,0.,-1.));
#1258=DIRECTION('center_axis',(-1.,0.,0.));
#1259=DIRECTION('ref_axis',(0.,1.,0.));
#1260=DIRECTION('center_axis',(0.,0.,-1.));
#1261=DIRECTION('ref_axis',(-1.,0.,0.));
#1262=CARTESIAN_POINT('',(0.,0.,0.));
#1263=CARTESIAN_POINT('Origin',(87.5094344785127,-111.269145636947,-15.));
#1264=CARTESIAN_POINT('',(84.9594344785127,-111.269145636947,-15.));
#1265=CARTESIAN_POINT('Origin',(87.5094344785127,-111.269145636947,-15.));
#1266=CARTESIAN_POINT('',(84.9594344785127,-111.269145636947,-9.));
#1267=CARTESIAN_POINT('',(84.9594344785127,-111.269145636947,-15.));
#1268=CARTESIAN_POINT('Origin',(87.5094344785127,-111.269145636947,-9.));
#1269=CARTESIAN_POINT('Origin',(87.5094344785127,-111.269145636947,-9.));
#1270=CARTESIAN_POINT('Origin',(136.509434478513,28.2308543630529,-15.));
#1271=CARTESIAN_POINT('',(133.959434478513,28.2308543630529,-15.));
#1272=CARTESIAN_POINT('Origin',(136.509434478513,28.2308543630529,-15.));
#1273=CARTESIAN_POINT('',(133.959434478513,28.2308543630529,-9.));
#1274=CARTESIAN_POINT('',(133.959434478513,28.2308543630529,-15.));
#1275=CARTESIAN_POINT('Origin',(136.509434478513,28.2308543630529,-9.));
#1276=CARTESIAN_POINT('Origin',(136.509434478513,28.2308543630529,-9.));
#1277=CARTESIAN_POINT('Origin',(136.509434478513,-111.269145636947,-15.));
#1278=CARTESIAN_POINT('',(133.959434478513,-111.269145636947,-15.));
#1279=CARTESIAN_POINT('Origin',(136.509434478513,-111.269145636947,-15.));
#1280=CARTESIAN_POINT('',(133.959434478513,-111.269145636947,-9.));
#1281=CARTESIAN_POINT('',(133.959434478513,-111.269145636947,-15.));
#1282=CARTESIAN_POINT('Origin',(136.509434478513,-111.269145636947,-9.));
#1283=CARTESIAN_POINT('Origin',(136.509434478513,-111.269145636947,-9.));
#1284=CARTESIAN_POINT('Origin',(-50.4905655214873,-111.269145636947,-15.));
#1285=CARTESIAN_POINT('',(-53.0405655214872,-111.269145636947,-15.));
#1286=CARTESIAN_POINT('Origin',(-50.4905655214873,-111.269145636947,-15.));
#1287=CARTESIAN_POINT('',(-53.0405655214872,-111.269145636947,-9.));
#1288=CARTESIAN_POINT('',(-53.0405655214872,-111.269145636947,-15.));
#1289=CARTESIAN_POINT('Origin',(-50.4905655214873,-111.269145636947,-9.));
#1290=CARTESIAN_POINT('Origin',(-50.4905655214873,-111.269145636947,-9.));
#1291=CARTESIAN_POINT('Origin',(274.509434478513,28.2308543630529,-15.));
#1292=CARTESIAN_POINT('',(271.959434478513,28.2308543630529,-15.));
#1293=CARTESIAN_POINT('Origin',(274.509434478513,28.2308543630529,-15.));
#1294=CARTESIAN_POINT('',(271.959434478513,28.2308543630529,-9.));
#1295=CARTESIAN_POINT('',(271.959434478513,28.2308543630529,-15.));
#1296=CARTESIAN_POINT('Origin',(274.509434478513,28.2308543630529,-9.));
#1297=CARTESIAN_POINT('Origin',(274.509434478513,28.2308543630529,-9.));
#1298=CARTESIAN_POINT('Origin',(274.509434478513,-111.269145636947,-15.));
#1299=CARTESIAN_POINT('',(271.959434478513,-111.269145636947,-15.));
#1300=CARTESIAN_POINT('Origin',(274.509434478513,-111.269145636947,-15.));
#1301=CARTESIAN_POINT('',(271.959434478513,-111.269145636947,-9.));
#1302=CARTESIAN_POINT('',(271.959434478513,-111.269145636947,-15.));
#1303=CARTESIAN_POINT('Origin',(274.509434478513,-111.269145636947,-9.));
#1304=CARTESIAN_POINT('Origin',(274.509434478513,-111.269145636947,-9.));
#1305=CARTESIAN_POINT('Origin',(87.5094344785127,28.2308543630529,-15.));
#1306=CARTESIAN_POINT('',(84.9594344785127,28.2308543630529,-15.));
#1307=CARTESIAN_POINT('Origin',(87.5094344785127,28.2308543630529,-15.));
#1308=CARTESIAN_POINT('',(84.9594344785127,28.2308543630529,-9.));
#1309=CARTESIAN_POINT('',(84.9594344785127,28.2308543630529,-15.));
#1310=CARTESIAN_POINT('Origin',(87.5094344785127,28.2308543630529,-9.));
#1311=CARTESIAN_POINT('Origin',(87.5094344785127,28.2308543630529,-9.));
#1312=CARTESIAN_POINT('Origin',(-50.4905655214873,28.2308543630529,-15.));
#1313=CARTESIAN_POINT('',(-53.0405655214873,28.2308543630529,-15.));
#1314=CARTESIAN_POINT('Origin',(-50.4905655214873,28.2308543630529,-15.));
#1315=CARTESIAN_POINT('',(-53.0405655214873,28.2308543630529,-9.));
#1316=CARTESIAN_POINT('',(-53.0405655214873,28.2308543630529,-15.));
#1317=CARTESIAN_POINT('Origin',(-50.4905655214873,28.2308543630529,-9.));
#1318=CARTESIAN_POINT('Origin',(-50.4905655214873,28.2308543630529,-9.));
#1319=CARTESIAN_POINT('Origin',(-45.2905655214873,24.7308543630529,0.));
#1320=CARTESIAN_POINT('',(-45.2905655214873,-106.069145636947,-15.));
#1321=CARTESIAN_POINT('',(-45.2905655214873,-106.069145636947,-6.));
#1322=CARTESIAN_POINT('',(-45.2905655214873,-106.069145636947,0.));
#1323=CARTESIAN_POINT('',(-45.2905655214873,23.0308543630529,-15.));
#1324=CARTESIAN_POINT('',(-45.2905655214873,-107.769145636947,-15.));
#1325=CARTESIAN_POINT('',(-45.2905655214873,23.0308543630529,-6.));
#1326=CARTESIAN_POINT('',(-45.2905655214872,23.0308543630529,0.));
#1327=CARTESIAN_POINT('',(-45.2905655214873,-8.3941456369471,-6.));
#1328=CARTESIAN_POINT('Origin',(271.009434478513,23.0308543630529,0.));
#1329=CARTESIAN_POINT('',(269.309434478513,23.0308543630529,-15.));
#1330=CARTESIAN_POINT('',(-46.9905655214873,23.0308543630529,-15.));
#1331=CARTESIAN_POINT('',(269.309434478513,23.0308543630529,-6.));
#1332=CARTESIAN_POINT('',(269.309434478513,23.0308543630529,0.));
#1333=CARTESIAN_POINT('',(191.509434478513,23.0308543630529,-6.));
#1334=CARTESIAN_POINT('Origin',(-46.9905655214873,-106.069145636947,0.));
#1335=CARTESIAN_POINT('',(269.309434478513,-106.069145636947,-6.));
#1336=CARTESIAN_POINT('',(32.5094344785127,-106.069145636947,-6.));
#1337=CARTESIAN_POINT('',(269.309434478513,-106.069145636947,-15.));
#1338=CARTESIAN_POINT('',(269.309434478513,-106.069145636947,0.));
#1339=CARTESIAN_POINT('',(271.009434478513,-106.069145636947,-15.));
#1340=CARTESIAN_POINT('Origin',(269.309434478513,-107.769145636947,0.));
#1341=CARTESIAN_POINT('',(269.309434478513,-74.6441456369471,-6.));
#1342=CARTESIAN_POINT('',(269.309434478513,24.7308543630529,-15.));
#1343=CARTESIAN_POINT('Origin',(264.509434478513,18.2308543630529,-3.));
#1344=CARTESIAN_POINT('',(266.509434478513,18.2308543630529,-3.));
#1345=CARTESIAN_POINT('',(269.509434478513,18.2308543630529,0.));
#1346=CARTESIAN_POINT('Origin',(269.509434478513,18.2308543630529,-3.));
#1347=CARTESIAN_POINT('',(264.509434478513,23.2308543630529,0.));
#1348=CARTESIAN_POINT('Origin',(264.509434478513,18.2308543630529,0.));
#1349=CARTESIAN_POINT('',(264.509434478513,20.2308543630529,-3.));
#1350=CARTESIAN_POINT('Origin',(264.509434478513,23.2308543630529,-3.));
#1351=CARTESIAN_POINT('Origin',(264.509434478513,18.2308543630529,-3.));
#1352=CARTESIAN_POINT('Origin',(189.259434478513,23.2308543630529,-3.));
#1353=CARTESIAN_POINT('',(-40.9905655214873,23.2308543630529,0.));
#1354=CARTESIAN_POINT('',(-40.9905655214873,20.2308543630529,-3.));
#1355=CARTESIAN_POINT('Origin',(-40.9905655214873,23.2308543630529,-3.));
#1356=CARTESIAN_POINT('',(189.259434478513,20.2308543630529,-3.));
#1357=CARTESIAN_POINT('',(189.259434478513,23.2308543630529,0.));
#1358=CARTESIAN_POINT('Origin',(-40.9905655214873,18.2308543630529,-3.));
#1359=CARTESIAN_POINT('',(-45.9905655214873,18.2308543630529,0.));
#1360=CARTESIAN_POINT('',(-42.9905655214873,18.2308543630529,-3.));
#1361=CARTESIAN_POINT('Origin',(-45.9905655214873,18.2308543630529,-3.));
#1362=CARTESIAN_POINT('Origin',(-40.9905655214873,18.2308543630529,-3.));
#1363=CARTESIAN_POINT('Origin',(-40.9905655214873,18.2308543630529,0.));
#1364=CARTESIAN_POINT('Origin',(-45.9905655214873,-10.6441456369471,-3.));
#1365=CARTESIAN_POINT('',(-45.9905655214873,-101.769145636947,0.));
#1366=CARTESIAN_POINT('',(-42.9905655214873,-101.769145636947,-3.));
#1367=CARTESIAN_POINT('Origin',(-45.9905655214873,-101.769145636947,-3.));
#1368=CARTESIAN_POINT('',(-42.9905655214873,-10.6441456369471,-3.));
#1369=CARTESIAN_POINT('',(-45.9905655214873,-10.6441456369471,0.));
#1370=CARTESIAN_POINT('Origin',(-40.9905655214873,-101.769145636947,-3.));
#1371=CARTESIAN_POINT('',(-40.9905655214873,-106.769145636947,0.));
#1372=CARTESIAN_POINT('',(-40.9905655214873,-103.769145636947,-3.));
#1373=CARTESIAN_POINT('Origin',(-40.9905655214873,-106.769145636947,-3.));
#1374=CARTESIAN_POINT('Origin',(-40.9905655214873,-101.769145636947,-3.));
#1375=CARTESIAN_POINT('Origin',(-40.9905655214873,-101.769145636947,0.));
#1376=CARTESIAN_POINT('Origin',(34.5094344785127,-106.769145636947,-3.));
#1377=CARTESIAN_POINT('',(264.509434478513,-106.769145636947,0.));
#1378=CARTESIAN_POINT('',(264.509434478513,-103.769145636947,-3.));
#1379=CARTESIAN_POINT('Origin',(264.509434478513,-106.769145636947,-3.));
#1380=CARTESIAN_POINT('',(34.5094344785127,-103.769145636947,-3.));
#1381=CARTESIAN_POINT('',(34.5094344785127,-106.769145636947,0.));
#1382=CARTESIAN_POINT('Origin',(264.509434478513,-101.769145636947,-3.));
#1383=CARTESIAN_POINT('',(269.509434478513,-101.769145636947,0.));
#1384=CARTESIAN_POINT('',(266.509434478513,-101.769145636947,-3.));
#1385=CARTESIAN_POINT('Origin',(269.509434478513,-101.769145636947,-3.));
#1386=CARTESIAN_POINT('Origin',(264.509434478513,-101.769145636947,-3.));
#1387=CARTESIAN_POINT('Origin',(264.509434478513,-101.769145636947,0.));
#1388=CARTESIAN_POINT('Origin',(269.509434478513,-72.6441456369471,-3.));
#1389=CARTESIAN_POINT('',(269.509434478513,-72.6441456369471,0.));
#1390=CARTESIAN_POINT('',(266.509434478513,-72.6441456369471,-3.));
#1391=CARTESIAN_POINT('Origin',(-42.9905655214873,-103.769145636947,0.));
#1392=CARTESIAN_POINT('',(264.509434478513,-103.769145636947,-6.));
#1393=CARTESIAN_POINT('',(264.509434478513,-103.769145636947,0.));
#1394=CARTESIAN_POINT('',(-40.9905655214873,-103.769145636947,-6.));
#1395=CARTESIAN_POINT('',(266.509434478513,-103.769145636947,-6.));
#1396=CARTESIAN_POINT('',(-40.9905655214873,-103.769145636947,0.));
#1397=CARTESIAN_POINT('Origin',(264.509434478513,-101.769145636947,0.));
#1398=CARTESIAN_POINT('',(266.509434478513,-101.769145636947,-6.));
#1399=CARTESIAN_POINT('',(266.509434478513,-101.769145636947,0.));
#1400=CARTESIAN_POINT('Origin',(264.509434478513,-101.769145636947,-6.));
#1401=CARTESIAN_POINT('Origin',(266.509434478513,-103.769145636947,0.));
#1402=CARTESIAN_POINT('',(266.509434478513,18.2308543630529,-6.));
#1403=CARTESIAN_POINT('',(266.509434478513,18.2308543630529,0.));
#1404=CARTESIAN_POINT('',(266.509434478513,20.2308543630529,-6.));
#1405=CARTESIAN_POINT('Origin',(264.509434478513,18.2308543630529,0.));
#1406=CARTESIAN_POINT('',(264.509434478513,20.2308543630529,-6.));
#1407=CARTESIAN_POINT('',(264.509434478513,20.2308543630529,0.));
#1408=CARTESIAN_POINT('Origin',(264.509434478513,18.2308543630529,-6.));
#1409=CARTESIAN_POINT('Origin',(112.009434478513,-41.5191456369471,0.));
#1410=CARTESIAN_POINT('',(271.509434478513,-115.269145636947,0.));
#1411=CARTESIAN_POINT('',(-47.4905655214873,-115.269145636947,0.));
#1412=CARTESIAN_POINT('',(196.759434478513,-115.269145636947,0.));
#1413=CARTESIAN_POINT('',(278.509434478513,-108.269145636947,0.));
#1414=CARTESIAN_POINT('Origin',(271.509434478513,-108.269145636947,0.));
#1415=CARTESIAN_POINT('',(278.509434478513,25.2308543630529,0.));
#1416=CARTESIAN_POINT('',(278.509434478513,-3.1441456369471,0.));
#1417=CARTESIAN_POINT('',(271.509434478513,32.2308543630529,0.));
#1418=CARTESIAN_POINT('Origin',(271.509434478513,25.2308543630529,0.));
#1419=CARTESIAN_POINT('',(-47.4905655214873,32.2308543630529,0.));
#1420=CARTESIAN_POINT('',(27.2594344785127,32.2308543630529,0.));
#1421=CARTESIAN_POINT('',(-54.4905655214873,25.2308543630529,0.));
#1422=CARTESIAN_POINT('Origin',(-47.4905655214873,25.2308543630529,0.));
#1423=CARTESIAN_POINT('',(-54.4905655214873,-108.269145636947,0.));
#1424=CARTESIAN_POINT('',(-54.4905655214873,-79.8941456369471,0.));
#1425=CARTESIAN_POINT('Origin',(-47.4905655214873,-108.269145636947,0.));
#1426=CARTESIAN_POINT('Origin',(-40.9905655214873,18.2308543630529,0.));
#1427=CARTESIAN_POINT('',(-42.9905655214873,18.2308543630529,-6.));
#1428=CARTESIAN_POINT('',(-42.9905655214873,18.2308543630529,0.));
#1429=CARTESIAN_POINT('',(-40.9905655214873,20.2308543630529,-6.));
#1430=CARTESIAN_POINT('Origin',(-40.9905655214873,18.2308543630529,-6.));
#1431=CARTESIAN_POINT('',(-40.9905655214873,20.2308543630529,0.));
#1432=CARTESIAN_POINT('Origin',(-42.9905655214873,20.2308543630529,0.));
#1433=CARTESIAN_POINT('',(-42.9905655214873,-101.769145636947,-6.));
#1434=CARTESIAN_POINT('',(-42.9905655214873,-101.769145636947,0.));
#1435=CARTESIAN_POINT('',(-42.9905655214873,-103.769145636947,-6.));
#1436=CARTESIAN_POINT('Origin',(-40.9905655214873,-101.769145636947,0.));
#1437=CARTESIAN_POINT('Origin',(-40.9905655214873,-101.769145636947,-6.));
#1438=CARTESIAN_POINT('Origin',(266.509434478513,20.2308543630529,0.));
#1439=CARTESIAN_POINT('',(-42.9905655214873,20.2308543630529,-6.));
#1440=CARTESIAN_POINT('Origin',(196.759434478513,-115.269145636947,-3.));
#1441=CARTESIAN_POINT('',(271.509434478513,-118.269145636947,-3.));
#1442=CARTESIAN_POINT('Origin',(271.509434478513,-115.269145636947,-3.));
#1443=CARTESIAN_POINT('',(-47.4905655214873,-118.269145636947,-3.));
#1444=CARTESIAN_POINT('Origin',(-47.4905655214873,-115.269145636947,-3.));
#1445=CARTESIAN_POINT('',(196.759434478513,-118.269145636947,-3.));
#1446=CARTESIAN_POINT('Origin',(-47.4905655214873,-108.269145636947,-3.));
#1447=CARTESIAN_POINT('',(-57.4905655214873,-108.269145636947,-3.));
#1448=CARTESIAN_POINT('Origin',(-54.4905655214873,-108.269145636947,-3.));
#1449=CARTESIAN_POINT('Origin',(-47.4905655214873,-108.269145636947,-3.));
#1450=CARTESIAN_POINT('Origin',(-54.4905655214873,-79.8941456369471,-3.));
#1451=CARTESIAN_POINT('',(-57.4905655214873,25.2308543630529,-3.));
#1452=CARTESIAN_POINT('Origin',(-54.4905655214873,25.2308543630529,-3.));
#1453=CARTESIAN_POINT('',(-57.4905655214873,-79.8941456369471,-3.));
#1454=CARTESIAN_POINT('Origin',(-47.4905655214873,25.2308543630529,-3.));
#1455=CARTESIAN_POINT('',(-47.4905655214873,35.2308543630529,-3.));
#1456=CARTESIAN_POINT('Origin',(-47.4905655214873,32.2308543630529,-3.));
#1457=CARTESIAN_POINT('Origin',(-47.4905655214873,25.2308543630529,-3.));
#1458=CARTESIAN_POINT('Origin',(27.2594344785127,32.2308543630529,-3.));
#1459=CARTESIAN_POINT('',(271.509434478513,35.2308543630529,-3.));
#1460=CARTESIAN_POINT('Origin',(271.509434478513,32.2308543630529,-3.));
#1461=CARTESIAN_POINT('',(27.2594344785127,35.2308543630529,-3.));
#1462=CARTESIAN_POINT('Origin',(271.509434478513,25.2308543630529,-3.));
#1463=CARTESIAN_POINT('',(281.509434478513,25.2308543630529,-3.));
#1464=CARTESIAN_POINT('Origin',(278.509434478513,25.2308543630529,-3.));
#1465=CARTESIAN_POINT('Origin',(271.509434478513,25.2308543630529,-3.));
#1466=CARTESIAN_POINT('Origin',(278.509434478513,-3.1441456369471,-3.));
#1467=CARTESIAN_POINT('',(281.509434478513,-108.269145636947,-3.));
#1468=CARTESIAN_POINT('Origin',(278.509434478513,-108.269145636947,-3.));
#1469=CARTESIAN_POINT('',(281.509434478513,-3.1441456369471,-3.));
#1470=CARTESIAN_POINT('Origin',(271.509434478513,-108.269145636947,-3.));
#1471=CARTESIAN_POINT('Origin',(271.509434478513,-108.269145636947,-3.));
#1472=CARTESIAN_POINT('Origin',(271.509434478513,25.2308543630529,0.));
#1473=CARTESIAN_POINT('',(281.509434478513,25.2308543630529,-15.));
#1474=CARTESIAN_POINT('',(281.509434478513,25.2308543630529,0.));
#1475=CARTESIAN_POINT('',(271.509434478513,35.2308543630529,-15.));
#1476=CARTESIAN_POINT('Origin',(271.509434478513,25.2308543630529,-15.));
#1477=CARTESIAN_POINT('',(271.509434478513,35.2308543630529,0.));
#1478=CARTESIAN_POINT('Origin',(281.509434478513,35.2308543630529,0.));
#1479=CARTESIAN_POINT('',(281.509434478513,-108.269145636947,-15.));
#1480=CARTESIAN_POINT('',(281.509434478513,-108.269145636947,0.));
#1481=CARTESIAN_POINT('',(281.509434478513,35.2308543630529,-15.));
#1482=CARTESIAN_POINT('Origin',(271.509434478513,-108.269145636947,0.));
#1483=CARTESIAN_POINT('',(271.509434478513,-118.269145636947,-15.));
#1484=CARTESIAN_POINT('',(271.509434478513,-118.269145636947,0.));
#1485=CARTESIAN_POINT('Origin',(271.509434478513,-108.269145636947,-15.));
#1486=CARTESIAN_POINT('Origin',(281.509434478513,-118.269145636947,0.));
#1487=CARTESIAN_POINT('',(-47.4905655214873,-118.269145636947,-15.));
#1488=CARTESIAN_POINT('',(-47.4905655214873,-118.269145636947,0.));
#1489=CARTESIAN_POINT('',(281.509434478513,-118.269145636947,-15.));
#1490=CARTESIAN_POINT('Origin',(-47.4905655214873,25.2308543630529,0.));
#1491=CARTESIAN_POINT('',(-47.4905655214873,35.2308543630529,-15.));
#1492=CARTESIAN_POINT('',(-47.4905655214873,35.2308543630529,0.));
#1493=CARTESIAN_POINT('',(-57.4905655214873,25.2308543630529,-15.));
#1494=CARTESIAN_POINT('Origin',(-47.4905655214873,25.2308543630529,-15.));
#1495=CARTESIAN_POINT('',(-57.4905655214873,25.2308543630529,0.));
#1496=CARTESIAN_POINT('Origin',(112.009434478513,-41.5191456369471,-15.));
#1497=CARTESIAN_POINT('',(-57.4905655214873,35.2308543630529,-15.));
#1498=CARTESIAN_POINT('',(-57.4905655214873,-108.269145636947,-15.));
#1499=CARTESIAN_POINT('Origin',(-47.4905655214873,-108.269145636947,-15.));
#1500=CARTESIAN_POINT('',(-57.4905655214873,-118.269145636947,-15.));
#1501=CARTESIAN_POINT('Origin',(-57.4905655214873,35.2308543630529,0.));
#1502=CARTESIAN_POINT('Origin',(-47.4905655214873,-108.269145636947,0.));
#1503=CARTESIAN_POINT('',(-57.4905655214873,-108.269145636947,0.));
#1504=CARTESIAN_POINT('Origin',(-57.4905655214873,-118.269145636947,0.));
#1505=CARTESIAN_POINT('Origin',(112.009434478513,-41.5191456369471,-6.));
#1506=UNCERTAINTY_MEASURE_WITH_UNIT(LENGTH_MEASURE(0.01),#1510,
'DISTANCE_ACCURACY_VALUE',
'Maximum model space distance between geometric entities at asserted c
onnectivities');
#1507=UNCERTAINTY_MEASURE_WITH_UNIT(LENGTH_MEASURE(0.01),#1510,
'DISTANCE_ACCURACY_VALUE',
'Maximum model space distance between geometric entities at asserted c
onnectivities');
#1508=(
GEOMETRIC_REPRESENTATION_CONTEXT(3)
GLOBAL_UNCERTAINTY_ASSIGNED_CONTEXT((#1506))
GLOBAL_UNIT_ASSIGNED_CONTEXT((#1510,#1512,#1513))
REPRESENTATION_CONTEXT('','3D')
);
#1509=(
GEOMETRIC_REPRESENTATION_CONTEXT(3)
GLOBAL_UNCERTAINTY_ASSIGNED_CONTEXT((#1507))
GLOBAL_UNIT_ASSIGNED_CONTEXT((#1510,#1512,#1513))
REPRESENTATION_CONTEXT('','3D')
);
#1510=(
LENGTH_UNIT()
NAMED_UNIT(*)
SI_UNIT(.MILLI.,.METRE.)
);
#1511=(
LENGTH_UNIT()
NAMED_UNIT(*)
SI_UNIT($,.METRE.)
);
#1512=(
NAMED_UNIT(*)
PLANE_ANGLE_UNIT()
SI_UNIT($,.RADIAN.)
);
#1513=(
NAMED_UNIT(*)
SI_UNIT($,.STERADIAN.)
SOLID_ANGLE_UNIT()
);
#1514=SHAPE_DEFINITION_REPRESENTATION(#1515,#1516);
#1515=PRODUCT_DEFINITION_SHAPE('',$,#1518);
#1516=SHAPE_REPRESENTATION('',(#866),#1508);
#1517=PRODUCT_DEFINITION_CONTEXT('part definition',#1522,'design');
#1518=PRODUCT_DEFINITION('2025-06-30-16-51-00-438','super good casetop',
#1519,#1517);
#1519=PRODUCT_DEFINITION_FORMATION('',$,#1524);
#1520=PRODUCT_RELATED_PRODUCT_CATEGORY('super good casetop',
'super good casetop',(#1524));
#1521=APPLICATION_PROTOCOL_DEFINITION('international standard',
'automotive_design',2009,#1522);
#1522=APPLICATION_CONTEXT(
'Core Data for Automotive Mechanical Design Process');
#1523=PRODUCT_CONTEXT('part definition',#1522,'mechanical');
#1524=PRODUCT('2025-06-30-16-51-00-438','super good casetop',$,(#1523));
#1525=PRESENTATION_STYLE_ASSIGNMENT((#1526));
#1526=SURFACE_STYLE_USAGE(.BOTH.,#1527);
#1527=SURFACE_SIDE_STYLE('',(#1528));
#1528=SURFACE_STYLE_FILL_AREA(#1529);
#1529=FILL_AREA_STYLE('Steel - Satin',(#1530));
#1530=FILL_AREA_STYLE_COLOUR('Steel - Satin',#1531);
#1531=COLOUR_RGB('Steel - Satin',0.627450980392157,0.627450980392157,0.627450980392157);
ENDSEC;
END-ISO-10303-21;
